%TF.GenerationSoftware,KiCad,Pcbnew,7.0.6-7.0.6~ubuntu20.04.1*%
%TF.CreationDate,2023-08-02T11:13:28+01:00*%
%TF.ProjectId,concept2creation,636f6e63-6570-4743-9263-72656174696f,rev?*%
%TF.SameCoordinates,Original*%
%TF.FileFunction,Copper,L1,Top*%
%TF.FilePolarity,Positive*%
%FSLAX46Y46*%
G04 Gerber Fmt 4.6, Leading zero omitted, Abs format (unit mm)*
G04 Created by KiCad (PCBNEW 7.0.6-7.0.6~ubuntu20.04.1) date 2023-08-02 11:13:28*
%MOMM*%
%LPD*%
G01*
G04 APERTURE LIST*
G04 Aperture macros list*
%AMRoundRect*
0 Rectangle with rounded corners*
0 $1 Rounding radius*
0 $2 $3 $4 $5 $6 $7 $8 $9 X,Y pos of 4 corners*
0 Add a 4 corners polygon primitive as box body*
4,1,4,$2,$3,$4,$5,$6,$7,$8,$9,$2,$3,0*
0 Add four circle primitives for the rounded corners*
1,1,$1+$1,$2,$3*
1,1,$1+$1,$4,$5*
1,1,$1+$1,$6,$7*
1,1,$1+$1,$8,$9*
0 Add four rect primitives between the rounded corners*
20,1,$1+$1,$2,$3,$4,$5,0*
20,1,$1+$1,$4,$5,$6,$7,0*
20,1,$1+$1,$6,$7,$8,$9,0*
20,1,$1+$1,$8,$9,$2,$3,0*%
G04 Aperture macros list end*
%TA.AperFunction,SMDPad,CuDef*%
%ADD10R,1.000000X1.100000*%
%TD*%
%TA.AperFunction,ComponentPad*%
%ADD11R,1.000000X1.000000*%
%TD*%
%TA.AperFunction,ComponentPad*%
%ADD12O,1.000000X1.000000*%
%TD*%
%TA.AperFunction,SMDPad,CuDef*%
%ADD13RoundRect,0.250000X0.250000X-0.250000X0.250000X0.250000X-0.250000X0.250000X-0.250000X-0.250000X0*%
%TD*%
%TA.AperFunction,SMDPad,CuDef*%
%ADD14R,1.000000X1.400000*%
%TD*%
%TA.AperFunction,SMDPad,CuDef*%
%ADD15R,1.400000X1.000000*%
%TD*%
%TA.AperFunction,SMDPad,CuDef*%
%ADD16R,1.100000X1.000000*%
%TD*%
%TA.AperFunction,SMDPad,CuDef*%
%ADD17R,1.450000X0.300000*%
%TD*%
%TA.AperFunction,SMDPad,CuDef*%
%ADD18R,1.450000X0.600000*%
%TD*%
%TA.AperFunction,ComponentPad*%
%ADD19RoundRect,0.500000X-0.550000X0.000000X-0.550000X0.000000X0.550000X0.000000X0.550000X0.000000X0*%
%TD*%
%TA.AperFunction,ComponentPad*%
%ADD20RoundRect,0.500000X-0.300000X0.000000X-0.300000X0.000000X0.300000X0.000000X0.300000X0.000000X0*%
%TD*%
%TA.AperFunction,SMDPad,CuDef*%
%ADD21R,1.450000X0.550000*%
%TD*%
%TA.AperFunction,SMDPad,CuDef*%
%ADD22R,0.706399X0.254800*%
%TD*%
%TA.AperFunction,SMDPad,CuDef*%
%ADD23R,1.600200X2.387600*%
%TD*%
%TA.AperFunction,SMDPad,CuDef*%
%ADD24RoundRect,0.045000X-0.255000X-0.630000X0.255000X-0.630000X0.255000X0.630000X-0.255000X0.630000X0*%
%TD*%
%TA.AperFunction,SMDPad,CuDef*%
%ADD25R,0.900000X1.000000*%
%TD*%
%TA.AperFunction,SMDPad,CuDef*%
%ADD26R,0.700000X0.899996*%
%TD*%
%TA.AperFunction,SMDPad,CuDef*%
%ADD27R,0.899996X0.700000*%
%TD*%
%TA.AperFunction,SMDPad,CuDef*%
%ADD28R,0.999996X0.700000*%
%TD*%
%TA.AperFunction,SMDPad,CuDef*%
%ADD29R,1.600000X1.803000*%
%TD*%
%TA.AperFunction,SMDPad,CuDef*%
%ADD30R,2.220000X0.740000*%
%TD*%
%TA.AperFunction,SMDPad,CuDef*%
%ADD31RoundRect,0.250000X0.450000X-0.325000X0.450000X0.325000X-0.450000X0.325000X-0.450000X-0.325000X0*%
%TD*%
%TA.AperFunction,SMDPad,CuDef*%
%ADD32RoundRect,0.045000X0.255000X0.630000X-0.255000X0.630000X-0.255000X-0.630000X0.255000X-0.630000X0*%
%TD*%
%TA.AperFunction,SMDPad,CuDef*%
%ADD33RoundRect,0.137500X0.137500X-0.137500X0.137500X0.137500X-0.137500X0.137500X-0.137500X-0.137500X0*%
%TD*%
%TA.AperFunction,SMDPad,CuDef*%
%ADD34R,0.600000X1.550000*%
%TD*%
%TA.AperFunction,SMDPad,CuDef*%
%ADD35R,1.200000X1.800000*%
%TD*%
%TA.AperFunction,ViaPad*%
%ADD36C,0.800000*%
%TD*%
%TA.AperFunction,ViaPad*%
%ADD37C,1.000000*%
%TD*%
%TA.AperFunction,Conductor*%
%ADD38C,0.200000*%
%TD*%
%TA.AperFunction,Conductor*%
%ADD39C,0.350000*%
%TD*%
%TA.AperFunction,Conductor*%
%ADD40C,0.500000*%
%TD*%
%TA.AperFunction,Conductor*%
%ADD41C,0.250000*%
%TD*%
%TA.AperFunction,Conductor*%
%ADD42C,1.000000*%
%TD*%
%ADD43C,0.350000*%
%ADD44O,1.700000X0.700000*%
%ADD45O,1.300000X0.700000*%
G04 APERTURE END LIST*
D10*
%TO.P,R99,1,1*%
%TO.N,Net-(J1-CC1)*%
X32750000Y-83000000D03*
%TO.P,R99,2,2*%
%TO.N,GND*%
X34450000Y-83000000D03*
%TD*%
D11*
%TO.P,J2,1,Pin_1*%
%TO.N,+3.3V*%
X70800000Y-88940000D03*
D12*
%TO.P,J2,2,Pin_2*%
%TO.N,GND*%
X70800000Y-87670000D03*
%TO.P,J2,3,Pin_3*%
%TO.N,/NRF/RST*%
X70800000Y-86400000D03*
%TO.P,J2,4,Pin_4*%
%TO.N,/NRF/SCK*%
X70800000Y-85130000D03*
%TO.P,J2,5,Pin_5*%
%TO.N,/NRF/SWD*%
X70800000Y-83860000D03*
%TD*%
D10*
%TO.P,R100,1,1*%
%TO.N,Net-(J1-CC2)*%
X32750000Y-86200000D03*
%TO.P,R100,2,2*%
%TO.N,GND*%
X34450000Y-86200000D03*
%TD*%
D13*
%TO.P,D122,1,K*%
%TO.N,V_RAW*%
X40200000Y-82250000D03*
%TO.P,D122,2,A*%
%TO.N,VBUS*%
X40200000Y-79750000D03*
%TD*%
D10*
%TO.P,C2,1,1*%
%TO.N,V_RAW*%
X42150000Y-84000000D03*
%TO.P,C2,2,2*%
%TO.N,GND*%
X43850000Y-84000000D03*
%TD*%
D14*
%TO.P,U2,1,VM*%
%TO.N,GND*%
X52489600Y-79700000D03*
%TO.P,U2,2,VDD*%
%TO.N,Net-(U2-VDD)*%
X50589600Y-79700000D03*
%TO.P,U2,3,GND*%
%TO.N,Net-(U2-GND)*%
X51539600Y-81900000D03*
%TD*%
D15*
%TO.P,Q6,1,G*%
%TO.N,VBUS*%
X42100000Y-80250000D03*
%TO.P,Q6,2,S*%
%TO.N,V_RAW*%
X42100000Y-82150000D03*
%TO.P,Q6,3,D*%
%TO.N,+BATT*%
X44300000Y-81200000D03*
%TD*%
D16*
%TO.P,R90,1,1*%
%TO.N,GND*%
X46339600Y-84650000D03*
%TO.P,R90,2,2*%
%TO.N,/NRF/BVOLT*%
X46339600Y-82950000D03*
%TD*%
%TO.P,R92,1,1*%
%TO.N,/NRF/BVOLT*%
X46339600Y-81250000D03*
%TO.P,R92,2,2*%
%TO.N,+BATT*%
X46339600Y-79550000D03*
%TD*%
%TO.P,R95,1,1*%
%TO.N,GND*%
X40600000Y-88049000D03*
%TO.P,R95,2,2*%
%TO.N,Net-(U1-PROG)*%
X40600000Y-86349000D03*
%TD*%
D17*
%TO.P,J1,A5,CC1*%
%TO.N,Net-(J1-CC1)*%
X30000000Y-83700000D03*
%TO.P,J1,A6,D+*%
%TO.N,D+*%
X30000000Y-84700000D03*
%TO.P,J1,A7,D-*%
%TO.N,D-*%
X30000000Y-85200000D03*
%TO.P,J1,A8*%
%TO.N,N/C*%
X30000000Y-86200000D03*
%TO.P,J1,B5,CC2*%
%TO.N,Net-(J1-CC2)*%
X30000000Y-86700000D03*
%TO.P,J1,B6,D+*%
%TO.N,D+*%
X30000000Y-85700000D03*
%TO.P,J1,B7,D-*%
%TO.N,D-*%
X30000000Y-84200000D03*
%TO.P,J1,B8*%
%TO.N,N/C*%
X30000000Y-83200000D03*
D18*
%TO.P,J1,GND,GND*%
%TO.N,GND*%
X30000000Y-81725000D03*
%TO.P,J1,GND2,GND*%
X30000000Y-88175000D03*
D19*
%TO.P,J1,SHLD1,SHLD*%
X29085000Y-80630000D03*
D20*
X24905000Y-80630000D03*
D19*
X29085000Y-89270000D03*
D20*
X24905000Y-89270000D03*
D21*
%TO.P,J1,VBUS1,VBUS*%
%TO.N,Net-(FUSE1-Pad1)*%
X30000000Y-82500000D03*
%TO.P,J1,VBUS2,VBUS*%
X30000000Y-87400000D03*
%TD*%
D16*
%TO.P,C5,1,1*%
%TO.N,+5V*%
X41495801Y-92802000D03*
%TO.P,C5,2,2*%
%TO.N,GND*%
X41495801Y-94502000D03*
%TD*%
%TO.P,C3,1,1*%
%TO.N,+5V*%
X45895801Y-92802000D03*
%TO.P,C3,2,2*%
%TO.N,GND*%
X45895801Y-94502000D03*
%TD*%
D22*
%TO.P,U3,1,LX*%
%TO.N,Net-(L1-Pad2)*%
X34407600Y-92599999D03*
%TO.P,U3,2,LX*%
X34407600Y-93100001D03*
%TO.P,U3,3,BATT*%
%TO.N,V_RAW*%
X34407600Y-93600000D03*
%TO.P,U3,4,ON*%
%TO.N,/5VEN*%
X34407600Y-94099999D03*
%TO.P,U3,5,GND*%
%TO.N,GND*%
X34407600Y-94600001D03*
%TO.P,U3,6,FB*%
%TO.N,+5V*%
X37400000Y-94600001D03*
%TO.P,U3,7,OUTS*%
%TO.N,Net-(U3-OUTS)*%
X37400000Y-94099999D03*
%TO.P,U3,8,SKIPB*%
%TO.N,GND*%
X37400000Y-93600000D03*
%TO.P,U3,9,POUT*%
%TO.N,+5V*%
X37400000Y-93100001D03*
%TO.P,U3,10,POUT*%
X37400000Y-92599999D03*
D23*
%TO.P,U3,11,EPAD*%
%TO.N,GND*%
X35903800Y-93600000D03*
%TD*%
D24*
%TO.P,VREG1,1,VIN*%
%TO.N,V_RAW*%
X38350000Y-86815000D03*
%TO.P,VREG1,2,GND*%
%TO.N,GND*%
X37400000Y-86815000D03*
%TO.P,VREG1,3,EN*%
%TO.N,V_RAW*%
X36450000Y-86815000D03*
%TO.P,VREG1,4*%
%TO.N,N/C*%
X36450000Y-89185000D03*
%TO.P,VREG1,5,VOUT*%
%TO.N,+3.3V*%
X38350000Y-89185000D03*
%TD*%
D25*
%TO.P,S1,1,1*%
%TO.N,GND*%
X52050000Y-69800000D03*
%TO.P,S1,2,1*%
X47950000Y-69800000D03*
%TO.P,S1,3,2*%
%TO.N,/NRF/RST*%
X47950000Y-71400000D03*
%TO.P,S1,4,2*%
X52050000Y-71400000D03*
%TD*%
D26*
%TO.P,M1,D+,D+*%
%TO.N,D+*%
X67500009Y-94550000D03*
%TO.P,M1,D-,D-*%
%TO.N,D-*%
X66400012Y-94550000D03*
D27*
%TO.P,M1,GND,GND1*%
%TO.N,GND*%
X55650022Y-80150004D03*
%TO.P,M1,GND1,GND2*%
X68350021Y-93350003D03*
%TO.P,M1,GND2,GND3*%
X68350021Y-80150004D03*
%TO.P,M1,P0.02,P0.02*%
%TO.N,/NRF/P0.02*%
X55650022Y-86750015D03*
%TO.P,M1,P0.03,P0.03*%
%TO.N,/NRF/P0.03*%
X55650022Y-85649994D03*
%TO.P,M1,P0.04,P0.04*%
%TO.N,/NRF/BVOLT*%
X55650022Y-92250003D03*
%TO.P,M1,P0.05,P0.05*%
%TO.N,/NRF/P0.05*%
X55650022Y-93350003D03*
D28*
%TO.P,M1,P0.06,P0.06*%
%TO.N,/RX*%
X57750019Y-90050009D03*
D26*
%TO.P,M1,P0.07,P0.07*%
%TO.N,/NRF/P0.07*%
X57600032Y-94550000D03*
D28*
%TO.P,M1,P0.08,P0.08*%
%TO.N,/TX*%
X57750019Y-88950012D03*
D27*
%TO.P,M1,P0.09,P0.09*%
%TO.N,/NRF/P0.09*%
X68350021Y-82350000D03*
%TO.P,M1,P0.10,P0.10*%
%TO.N,/NRF/P0.10*%
X68350021Y-81250000D03*
D28*
%TO.P,M1,P0.11,P0.11*%
%TO.N,/NRF/P0.11*%
X57750019Y-85649994D03*
D26*
%TO.P,M1,P0.12,P0.12*%
%TO.N,/NRF/P0.12*%
X59800000Y-94550000D03*
D28*
%TO.P,M1,P0.13,P0.13*%
%TO.N,/NRF/POWER_PIN*%
X66250000Y-90050009D03*
%TO.P,M1,P0.14,P0.14*%
%TO.N,/NRF/RST*%
X66250000Y-88950012D03*
%TO.P,M1,P0.15,P0.15*%
%TO.N,/NRF/BLED*%
X66250000Y-87850012D03*
%TO.P,M1,P0.16,P0.16*%
%TO.N,/NRF/RST*%
X66250000Y-91150006D03*
%TO.P,M1,P0.17,P0.17*%
%TO.N,/NRF/PWM*%
X66250000Y-86749991D03*
D26*
%TO.P,M1,P0.18,P0.18*%
%TO.N,/NRF/RST*%
X64200015Y-94550000D03*
%TO.P,M1,P0.19,P0.19*%
%TO.N,/NRF/P0.19*%
X63100018Y-94550000D03*
D28*
%TO.P,M1,P0.20,P0.20*%
%TO.N,/WS2812*%
X66250000Y-85649994D03*
D26*
%TO.P,M1,P0.21,P0.21*%
%TO.N,/NRF/P0.21*%
X62000021Y-94550000D03*
D27*
%TO.P,M1,P0.22,P0.22*%
%TO.N,/NRF/P0.22*%
X68350021Y-92250003D03*
D26*
%TO.P,M1,P0.23,P0.23*%
%TO.N,/NRF/P0.23*%
X60899997Y-94550000D03*
D28*
%TO.P,M1,P0.24,P0.24*%
%TO.N,/NRF/P0.24*%
X66250000Y-84550019D03*
%TO.P,M1,P0.25,P0.25*%
%TO.N,/NRF/P0.25*%
X57750019Y-84550019D03*
%TO.P,M1,P0.26,P0.26*%
%TO.N,/5VEN*%
X57750019Y-91150006D03*
%TO.P,M1,P0.27,P0.27*%
%TO.N,/NRF/P0.27*%
X57750019Y-87850012D03*
D27*
%TO.P,M1,P0.28,P0.28*%
%TO.N,/NRF/P0.28*%
X55650022Y-87850012D03*
%TO.P,M1,P0.29,P0.29*%
%TO.N,/NRF/P0.29*%
X55650022Y-88950012D03*
%TO.P,M1,P0.30,P0.30*%
%TO.N,/NRF/P0.30*%
X55650022Y-90050009D03*
%TO.P,M1,P0.31,P0.31*%
%TO.N,/NRF/P0.31*%
X55650022Y-91150006D03*
%TO.P,M1,P1.00,P1.00*%
%TO.N,/NRF/P1.00*%
X68350021Y-91150006D03*
%TO.P,M1,P1.01,P1.01*%
%TO.N,/NRF/P1.01*%
X68350021Y-88950012D03*
%TO.P,M1,P1.02,P1.02*%
%TO.N,/NRF/P1.02*%
X68350021Y-87850012D03*
%TO.P,M1,P1.03,P1.03*%
%TO.N,/NRF/P1.03*%
X68350021Y-90050009D03*
%TO.P,M1,P1.04,P1.04*%
%TO.N,/NRF/P1.04*%
X68350021Y-84550019D03*
D28*
%TO.P,M1,P1.05,P1.05*%
%TO.N,/NRF/P1.05*%
X66250000Y-83450022D03*
D27*
%TO.P,M1,P1.06,P1.06*%
%TO.N,/NRF/P1.06*%
X68350021Y-83450022D03*
D28*
%TO.P,M1,P1.07,P1.07*%
%TO.N,/NRF/P1.07*%
X66250000Y-82350000D03*
%TO.P,M1,P1.08,P1.08*%
%TO.N,/NRF/P1.08*%
X57750019Y-86749991D03*
D26*
%TO.P,M1,P1.09,P1.09*%
%TO.N,/NRF/P1.09*%
X58700004Y-94550000D03*
D27*
%TO.P,M1,P1.10,P1.10*%
%TO.N,/NRF/P1.10*%
X55650022Y-82350000D03*
%TO.P,M1,P1.11,P1.11*%
%TO.N,/NRF/P1.11*%
X55650022Y-81250000D03*
D28*
%TO.P,M1,P1.12,P1.12*%
%TO.N,/NRF/P1.12*%
X57750019Y-83450022D03*
D27*
%TO.P,M1,P1.13,P1.13*%
%TO.N,/NRF/P1.13*%
X55650022Y-83450022D03*
D28*
%TO.P,M1,P1.14,P1.14*%
%TO.N,/NRF/P1.14*%
X57750019Y-82350000D03*
D27*
%TO.P,M1,P1.15,P1.15*%
%TO.N,/NRF/P1.15*%
X55650022Y-84549994D03*
%TO.P,M1,SWDCLK,SWDCLK*%
%TO.N,/NRF/SCK*%
X68350021Y-86750015D03*
%TO.P,M1,SWDIO,SWDIO*%
%TO.N,/NRF/SWD*%
X68350021Y-85649994D03*
D26*
%TO.P,M1,VBUS,VBUS*%
%TO.N,VBUS*%
X65300015Y-94550000D03*
%TO.P,M1,VDD_NRF,VDD_NRF*%
%TO.N,+3.3V*%
X56500007Y-94550000D03*
%TD*%
D16*
%TO.P,R91,1,1*%
%TO.N,/NRF/RST*%
X70800000Y-93050000D03*
%TO.P,R91,2,2*%
%TO.N,+3.3V*%
X70800000Y-91350000D03*
%TD*%
D10*
%TO.P,C1,1,1*%
%TO.N,VBUS*%
X43850000Y-78400000D03*
%TO.P,C1,2,2*%
%TO.N,GND*%
X42150000Y-78400000D03*
%TD*%
D16*
%TO.P,R98,1,1*%
%TO.N,+BATT*%
X48739600Y-81250000D03*
%TO.P,R98,2,2*%
%TO.N,Net-(U2-VDD)*%
X48739600Y-79550000D03*
%TD*%
%TO.P,C4,1,1*%
%TO.N,+5V*%
X43695801Y-92802000D03*
%TO.P,C4,2,2*%
%TO.N,GND*%
X43695801Y-94502000D03*
%TD*%
%TO.P,R1,1,1*%
%TO.N,Net-(U3-OUTS)*%
X39295801Y-94502000D03*
%TO.P,R1,2,2*%
%TO.N,+5V*%
X39295801Y-92802000D03*
%TD*%
D29*
%TO.P,FUSE1,1,1*%
%TO.N,Net-(FUSE1-Pad1)*%
X40378000Y-76200000D03*
%TO.P,FUSE1,2,2*%
%TO.N,VBUS*%
X43222000Y-76200000D03*
%TD*%
D30*
%TO.P,J3,1,Pin_1*%
%TO.N,unconnected-(J3-Pin_1-Pad1)*%
X32670000Y-127890000D03*
%TO.P,J3,2,Pin_2*%
%TO.N,+5V*%
X35400000Y-127890000D03*
%TO.P,J3,3,Pin_3*%
%TO.N,GND*%
X32670000Y-126620000D03*
%TO.P,J3,4,Pin_4*%
X35400000Y-126620000D03*
%TO.P,J3,5,Pin_5*%
%TO.N,unconnected-(J3-Pin_5-Pad5)*%
X32670000Y-125350000D03*
%TO.P,J3,6,Pin_6*%
%TO.N,unconnected-(J3-Pin_6-Pad6)*%
X35400000Y-125350000D03*
%TO.P,J3,7,Pin_7*%
%TO.N,/TX*%
X32670000Y-124080000D03*
%TO.P,J3,8,Pin_8*%
%TO.N,unconnected-(J3-Pin_8-Pad8)*%
X35400000Y-124080000D03*
%TO.P,J3,9,Pin_9*%
%TO.N,/RX*%
X32670000Y-122810000D03*
%TO.P,J3,10,Pin_10*%
%TO.N,unconnected-(J3-Pin_10-Pad10)*%
X35400000Y-122810000D03*
%TD*%
D16*
%TO.P,R96,1,1*%
%TO.N,GND*%
X46000000Y-75750000D03*
%TO.P,R96,2,2*%
%TO.N,VBUS*%
X46000000Y-77450000D03*
%TD*%
D31*
%TO.P,L1,1,1*%
%TO.N,V_RAW*%
X32095801Y-94677000D03*
%TO.P,L1,2,2*%
%TO.N,Net-(L1-Pad2)*%
X32095801Y-92627000D03*
%TD*%
D32*
%TO.P,U1,1,~{CHRG}*%
%TO.N,CHG*%
X42650000Y-88585000D03*
%TO.P,U1,2,GND*%
%TO.N,GND*%
X43600000Y-88585000D03*
%TO.P,U1,3,BAT*%
%TO.N,+BATT*%
X44550000Y-88585000D03*
%TO.P,U1,4,VCC*%
%TO.N,VBUS*%
X44550000Y-86215000D03*
%TO.P,U1,5,PROG*%
%TO.N,Net-(U1-PROG)*%
X42650000Y-86215000D03*
%TD*%
D33*
%TO.P,LED1,1,DIN*%
%TO.N,/WS2812*%
X50475000Y-77075000D03*
%TO.P,LED1,2,VDD*%
%TO.N,+3.3V*%
X50475000Y-76125000D03*
%TO.P,LED1,3,DOUT*%
%TO.N,unconnected-(LED1-DOUT-Pad3)*%
X49525000Y-76125000D03*
%TO.P,LED1,4,VSS*%
%TO.N,GND*%
X49525000Y-77075000D03*
%TD*%
D34*
%TO.P,X1,1,1*%
%TO.N,Net-(U2-GND)*%
X50839600Y-84075000D03*
%TO.P,X1,2,2*%
%TO.N,+BATT*%
X49839600Y-84075000D03*
D35*
%TO.P,X1,M1*%
%TO.N,N/C*%
X52139600Y-86600000D03*
%TO.P,X1,M2*%
X48539600Y-86600000D03*
%TD*%
D36*
%TO.N,VBUS*%
X32314130Y-109137414D03*
D37*
X44400000Y-79800000D03*
D36*
%TO.N,GND*%
X46600000Y-88600000D03*
X34400000Y-89400000D03*
X45000000Y-73400000D03*
X59600000Y-92400000D03*
X66400000Y-80200000D03*
X38800000Y-79400000D03*
X48400000Y-94600000D03*
X60000000Y-82200000D03*
X53400000Y-82400000D03*
X66600000Y-92800000D03*
X62600000Y-89600000D03*
X41400000Y-89400000D03*
X62600000Y-86400000D03*
X47800000Y-83400000D03*
X39800000Y-83800000D03*
X34800000Y-90800000D03*
X43600000Y-87200000D03*
X36800000Y-90800000D03*
%TO.N,D+*%
X33689500Y-84800000D03*
X33689500Y-108600000D03*
%TO.N,D-*%
X34600000Y-84200000D03*
X33800000Y-109800000D03*
%TO.N,+3.3V*%
X51894772Y-75905228D03*
X64400000Y-91400000D03*
%TO.N,/NRF/RST*%
X64400000Y-90000000D03*
X53000000Y-76000000D03*
%TO.N,/TX*%
X65994772Y-98005228D03*
X60400000Y-86000000D03*
%TO.N,/RX*%
X65600000Y-96600000D03*
X60400000Y-87200000D03*
%TO.N,/WS2812*%
X64800000Y-81439500D03*
X51842784Y-76893364D03*
%TO.N,/NRF/BVOLT*%
X47800000Y-82400000D03*
X54000000Y-84000000D03*
%TO.N,/5VEN*%
X60400000Y-90000000D03*
X38000000Y-98400000D03*
%TD*%
D38*
%TO.N,VBUS*%
X70200000Y-128582770D02*
X67372770Y-131410000D01*
D39*
X43250000Y-82150000D02*
X43225000Y-82125000D01*
D40*
X44800000Y-83150000D02*
X43800000Y-82150000D01*
X45050000Y-78400000D02*
X46000000Y-77450000D01*
D38*
X32989500Y-108310050D02*
X32989500Y-108810500D01*
X65300015Y-95199998D02*
X66700017Y-96600000D01*
X32662586Y-109137414D02*
X32314130Y-109137414D01*
X34500000Y-110089950D02*
X34500000Y-108420550D01*
X34089950Y-110500000D02*
X34500000Y-110089950D01*
X33399550Y-107900000D02*
X32989500Y-108310050D01*
X29790000Y-130472770D02*
X29790000Y-114375686D01*
X33665686Y-110500000D02*
X34089950Y-110500000D01*
X70200000Y-98572574D02*
X70200000Y-128582770D01*
X68227426Y-96600000D02*
X70200000Y-98572574D01*
D40*
X44550000Y-86215000D02*
X44800000Y-85965000D01*
D38*
X67372770Y-131410000D02*
X30727230Y-131410000D01*
X44400000Y-79800000D02*
X44400000Y-78950000D01*
D40*
X40700000Y-80250000D02*
X40200000Y-79750000D01*
X42100000Y-80250000D02*
X40700000Y-80250000D01*
X43850000Y-78500000D02*
X42100000Y-80250000D01*
X42100000Y-80250000D02*
X43150000Y-81300000D01*
X43222000Y-76200000D02*
X43222000Y-77772000D01*
D39*
X43225000Y-81375000D02*
X43150000Y-81300000D01*
D40*
X43850000Y-78400000D02*
X43850000Y-78500000D01*
D38*
X65300015Y-94550000D02*
X65300015Y-95199998D01*
X29790000Y-114375686D02*
X33665686Y-110500000D01*
X44400000Y-78950000D02*
X43850000Y-78400000D01*
D40*
X44800000Y-85965000D02*
X44800000Y-83150000D01*
D38*
X33979450Y-107900000D02*
X33399550Y-107900000D01*
D39*
X43800000Y-82150000D02*
X43250000Y-82150000D01*
D38*
X32989500Y-108810500D02*
X32662586Y-109137414D01*
X30727230Y-131410000D02*
X29790000Y-130472770D01*
D39*
X43225000Y-82125000D02*
X43225000Y-81375000D01*
D40*
X43222000Y-77772000D02*
X43850000Y-78400000D01*
D38*
X66700017Y-96600000D02*
X68227426Y-96600000D01*
D40*
X43850000Y-78400000D02*
X45050000Y-78400000D01*
D38*
X34500000Y-108420550D02*
X33979450Y-107900000D01*
D39*
%TO.N,GND*%
X46000000Y-75750000D02*
X48150000Y-75750000D01*
D41*
X37400000Y-93600000D02*
X35903800Y-93600000D01*
D39*
X48150000Y-75750000D02*
X48200000Y-75800000D01*
X43800000Y-87400000D02*
X43600000Y-87200000D01*
D40*
X30000000Y-81545000D02*
X29085000Y-80630000D01*
D39*
X46339600Y-85904370D02*
X44843970Y-87400000D01*
D41*
X38865000Y-79465000D02*
X38800000Y-79400000D01*
D40*
X30000000Y-81725000D02*
X30000000Y-81545000D01*
D41*
X39800000Y-83800000D02*
X38865000Y-82865000D01*
X40050000Y-78400000D02*
X42150000Y-78400000D01*
D42*
X33160000Y-87440000D02*
X32800000Y-87800000D01*
X34450000Y-86200000D02*
X34600000Y-86200000D01*
X33940000Y-87440000D02*
X33160000Y-87440000D01*
X34600000Y-86200000D02*
X36000000Y-84800000D01*
D39*
X38800000Y-79400000D02*
X39800000Y-78400000D01*
X44843970Y-87400000D02*
X43800000Y-87400000D01*
D41*
X38865000Y-82865000D02*
X38865000Y-79465000D01*
D39*
X46339600Y-84650000D02*
X46339600Y-85904370D01*
X46550000Y-84650000D02*
X47800000Y-83400000D01*
D42*
X34450000Y-86930000D02*
X33940000Y-87440000D01*
D41*
X35903800Y-93600000D02*
X34903799Y-94600001D01*
D42*
X34450000Y-86200000D02*
X34450000Y-86930000D01*
D39*
X46339600Y-84650000D02*
X46550000Y-84650000D01*
X39800000Y-78400000D02*
X40050000Y-78400000D01*
D41*
X34903799Y-94600001D02*
X34407600Y-94600001D01*
D40*
%TO.N,V_RAW*%
X42150000Y-84000000D02*
X41165000Y-84000000D01*
X38350000Y-86815000D02*
X38350000Y-87450036D01*
X33172801Y-93600000D02*
X32095801Y-94677000D01*
X36939964Y-87940000D02*
X36450000Y-87450036D01*
X37860036Y-87940000D02*
X36939964Y-87940000D01*
X33550000Y-89407852D02*
X30945801Y-92012051D01*
X31355852Y-93652000D02*
X32095801Y-93652000D01*
X38350000Y-87450036D02*
X37860036Y-87940000D01*
X36142852Y-86815000D02*
X34557852Y-88400000D01*
X42100000Y-82150000D02*
X40300000Y-82150000D01*
X41165000Y-84000000D02*
X38350000Y-86815000D01*
D41*
X34407600Y-93600000D02*
X33172801Y-93600000D01*
D40*
X42100000Y-82150000D02*
X42100000Y-83950000D01*
X40300000Y-82150000D02*
X40200000Y-82250000D01*
X42100000Y-83950000D02*
X42150000Y-84000000D01*
X33550000Y-88850000D02*
X33550000Y-89407852D01*
X36450000Y-86815000D02*
X36142852Y-86815000D01*
X32095801Y-93652000D02*
X32095801Y-94677000D01*
X34000000Y-88400000D02*
X33550000Y-88850000D01*
X34557852Y-88400000D02*
X34000000Y-88400000D01*
X30945801Y-93241949D02*
X31355852Y-93652000D01*
X36450000Y-87450036D02*
X36450000Y-86815000D01*
X30945801Y-92012051D02*
X30945801Y-93241949D01*
D41*
%TO.N,+5V*%
X38199999Y-95400000D02*
X40077801Y-95400000D01*
D38*
X37400000Y-92800000D02*
X37402000Y-92802000D01*
X37400000Y-92800000D02*
X37400000Y-93100001D01*
D42*
X46625801Y-92802000D02*
X47135801Y-93312000D01*
D40*
X37402000Y-92802000D02*
X39295801Y-92802000D01*
D42*
X39110000Y-127890000D02*
X35400000Y-127890000D01*
X40000000Y-104071602D02*
X40000000Y-127000000D01*
X45895801Y-92802000D02*
X46625801Y-92802000D01*
X39295801Y-92802000D02*
X40400000Y-92802000D01*
X40400000Y-92802000D02*
X41495801Y-92802000D01*
D41*
X37400000Y-94600001D02*
X38199999Y-95400000D01*
X40077801Y-95400000D02*
X40400000Y-95077801D01*
X40400000Y-95077801D02*
X40400000Y-92802000D01*
D38*
X37400000Y-92599999D02*
X37400000Y-92800000D01*
D42*
X40000000Y-127000000D02*
X39110000Y-127890000D01*
X47135801Y-96935801D02*
X40000000Y-104071602D01*
X47135801Y-93312000D02*
X47135801Y-96935801D01*
X43695801Y-92802000D02*
X41495801Y-92802000D01*
X45895801Y-92802000D02*
X43695801Y-92802000D01*
D40*
%TO.N,Net-(FUSE1-Pad1)*%
X30000000Y-82500000D02*
X31320000Y-82500000D01*
D39*
X29246371Y-82500000D02*
X30000000Y-82500000D01*
D40*
X38800000Y-76200000D02*
X40378000Y-76200000D01*
X32390000Y-82010000D02*
X33200000Y-81200000D01*
X31320000Y-82500000D02*
X31810000Y-82010000D01*
D39*
X28520000Y-83226371D02*
X29246371Y-82500000D01*
D40*
X31810000Y-82010000D02*
X32390000Y-82010000D01*
X33200000Y-81200000D02*
X33800000Y-81200000D01*
D39*
X30000000Y-87400000D02*
X29246371Y-87400000D01*
X29246371Y-87400000D02*
X28520000Y-86673629D01*
X28520000Y-86673629D02*
X28520000Y-83226371D01*
D40*
X33800000Y-81200000D02*
X38800000Y-76200000D01*
D41*
%TO.N,Net-(J1-CC1)*%
X32050000Y-83700000D02*
X32750000Y-83000000D01*
X30000000Y-83700000D02*
X32050000Y-83700000D01*
D38*
%TO.N,D+*%
X29000000Y-114048456D02*
X30041494Y-113006962D01*
X30400000Y-132200000D02*
X29000000Y-130799999D01*
X33589500Y-84700000D02*
X33689500Y-84800000D01*
X33689500Y-108751994D02*
X33689500Y-108600000D01*
X30041494Y-113006962D02*
X30041494Y-112400000D01*
X29000000Y-130799999D02*
X29000000Y-114048456D01*
X31015000Y-84760000D02*
X31015000Y-85640000D01*
X30955000Y-85700000D02*
X30000000Y-85700000D01*
X31015000Y-85640000D02*
X30955000Y-85700000D01*
X30955000Y-84700000D02*
X31015000Y-84760000D01*
X30000000Y-84700000D02*
X33589500Y-84700000D01*
X71000000Y-128900000D02*
X67700000Y-132200000D01*
X67500009Y-94550000D02*
X67500009Y-94755353D01*
X67700000Y-132200000D02*
X30400000Y-132200000D01*
X30000000Y-84700000D02*
X30955000Y-84700000D01*
X67500009Y-94755353D02*
X71000000Y-98255344D01*
X71000000Y-98255344D02*
X71000000Y-128900000D01*
X30041494Y-112400000D02*
X33689500Y-108751994D01*
%TO.N,D-*%
X30000000Y-84200000D02*
X29045000Y-84200000D01*
X28985000Y-84260000D02*
X28985000Y-85140000D01*
X29045000Y-85200000D02*
X30000000Y-85200000D01*
X66400012Y-94550000D02*
X66761478Y-94911466D01*
X70600000Y-98406888D02*
X70600000Y-128748456D01*
X30561544Y-131810000D02*
X29390000Y-130638456D01*
X66761478Y-95134422D02*
X67827056Y-96200000D01*
X29045000Y-84200000D02*
X28985000Y-84260000D01*
X33313692Y-84200000D02*
X30000000Y-84200000D01*
X28985000Y-85140000D02*
X29045000Y-85200000D01*
X70600000Y-128748456D02*
X67538456Y-131810000D01*
X68393112Y-96200000D02*
X70600000Y-98406888D01*
X34600000Y-84200000D02*
X34510000Y-84110000D01*
X67538456Y-131810000D02*
X30561544Y-131810000D01*
X67827056Y-96200000D02*
X68393112Y-96200000D01*
X29390000Y-114210000D02*
X33800000Y-109800000D01*
X33403692Y-84110000D02*
X33313692Y-84200000D01*
X29390000Y-130638456D02*
X29390000Y-114210000D01*
X66761478Y-94911466D02*
X66761478Y-95134422D01*
X34510000Y-84110000D02*
X33403692Y-84110000D01*
D41*
%TO.N,Net-(J1-CC2)*%
X30000000Y-86700000D02*
X32250000Y-86700000D01*
X32250000Y-86700000D02*
X32750000Y-86200000D01*
%TO.N,+3.3V*%
X56950009Y-93400000D02*
X62400000Y-93400000D01*
X51894772Y-75905228D02*
X51600000Y-76200000D01*
X70800000Y-91350000D02*
X70800000Y-88940000D01*
D40*
X56500007Y-95013025D02*
X56500007Y-94550000D01*
X48705850Y-91200000D02*
X52848850Y-95343000D01*
X56170032Y-95343000D02*
X56500007Y-95013025D01*
D41*
X62400000Y-93400000D02*
X64400000Y-91400000D01*
X56500007Y-94550000D02*
X56500007Y-93850002D01*
X50550000Y-76200000D02*
X50475000Y-76125000D01*
X51600000Y-76200000D02*
X50550000Y-76200000D01*
D40*
X38350000Y-89350000D02*
X40200000Y-91200000D01*
X38350000Y-89185000D02*
X38350000Y-89350000D01*
D41*
X56500007Y-93850002D02*
X56950009Y-93400000D01*
D40*
X40200000Y-91200000D02*
X48705850Y-91200000D01*
X52848850Y-95343000D02*
X56170032Y-95343000D01*
D41*
%TO.N,/NRF/RST*%
X47950000Y-71400000D02*
X52050000Y-71400000D01*
X65550006Y-91150006D02*
X66250000Y-91150006D01*
X53000000Y-76000000D02*
X52050000Y-75050000D01*
X66250000Y-88950012D02*
X65500002Y-88950012D01*
X52050000Y-75050000D02*
X52050000Y-71400000D01*
X70800000Y-86400000D02*
X71665000Y-87265000D01*
X65435002Y-91035002D02*
X65550006Y-91150006D01*
X71665000Y-87265000D02*
X71665000Y-92185000D01*
X65435002Y-90000000D02*
X65435002Y-91035002D01*
X65435002Y-90000000D02*
X64400000Y-90000000D01*
X65435002Y-89015012D02*
X65435002Y-90000000D01*
X66250000Y-91150006D02*
X64200015Y-93199991D01*
X64200015Y-93199991D02*
X64200015Y-94550000D01*
X71665000Y-92185000D02*
X70800000Y-93050000D01*
X65500002Y-88950012D02*
X65435002Y-89015012D01*
%TO.N,/NRF/SCK*%
X70070000Y-85130000D02*
X69800000Y-85400000D01*
X70800000Y-85130000D02*
X70070000Y-85130000D01*
X69800000Y-85400000D02*
X69800000Y-86000034D01*
X69800000Y-86000034D02*
X69050019Y-86750015D01*
X69050019Y-86750015D02*
X68350021Y-86750015D01*
%TO.N,/NRF/SWD*%
X69400000Y-84882656D02*
X69400000Y-84000000D01*
X68350021Y-85649994D02*
X68632662Y-85649994D01*
X68632662Y-85649994D02*
X69400000Y-84882656D01*
X69400000Y-84000000D02*
X69540000Y-83860000D01*
X69540000Y-83860000D02*
X70800000Y-83860000D01*
%TO.N,/TX*%
X59600000Y-86600000D02*
X59600000Y-87519856D01*
X31745000Y-130545000D02*
X30655000Y-129455000D01*
X69335000Y-128224476D02*
X67014476Y-130545000D01*
X65994772Y-98194772D02*
X69335000Y-101535000D01*
X60400000Y-86000000D02*
X60200000Y-86000000D01*
X58169844Y-88950012D02*
X57750019Y-88950012D01*
X65994772Y-98005228D02*
X65994772Y-98194772D01*
X30655000Y-129455000D02*
X30655000Y-124800000D01*
X31375000Y-124080000D02*
X32670000Y-124080000D01*
X67014476Y-130545000D02*
X31745000Y-130545000D01*
X30655000Y-124800000D02*
X31375000Y-124080000D01*
X60200000Y-86000000D02*
X59600000Y-86600000D01*
X59600000Y-87519856D02*
X58169844Y-88950012D01*
X69335000Y-101535000D02*
X69335000Y-128224476D01*
%TO.N,/RX*%
X69775000Y-100775000D02*
X69775000Y-128406730D01*
X30903270Y-130985000D02*
X30215000Y-130296730D01*
X58162047Y-90050009D02*
X57750019Y-90050009D01*
X30215000Y-130296730D02*
X30215000Y-123600000D01*
X67196730Y-130985000D02*
X30903270Y-130985000D01*
X60400000Y-87200000D02*
X60400000Y-87812056D01*
X69775000Y-128406730D02*
X67196730Y-130985000D01*
X31005000Y-122810000D02*
X32670000Y-122810000D01*
X65600000Y-96600000D02*
X69775000Y-100775000D01*
X60400000Y-87812056D02*
X58162047Y-90050009D01*
X30215000Y-123600000D02*
X31005000Y-122810000D01*
D40*
%TO.N,Net-(L1-Pad2)*%
X33400000Y-92800000D02*
X34407600Y-92800000D01*
D41*
X34407600Y-92599999D02*
X34407600Y-92800000D01*
X34407600Y-92800000D02*
X34407600Y-93100001D01*
D40*
X33227000Y-92627000D02*
X33400000Y-92800000D01*
X32095801Y-92627000D02*
X33227000Y-92627000D01*
D41*
%TO.N,/WS2812*%
X65500002Y-85649994D02*
X64800000Y-84949992D01*
X51842784Y-76893364D02*
X51661148Y-77075000D01*
X64800000Y-84949992D02*
X64800000Y-81439500D01*
X66250000Y-85649994D02*
X65500002Y-85649994D01*
X51661148Y-77075000D02*
X50475000Y-77075000D01*
%TO.N,/NRF/BVOLT*%
X54600000Y-84600000D02*
X54600000Y-91899979D01*
X46339600Y-82000000D02*
X47400000Y-82000000D01*
X46339600Y-82950000D02*
X46339600Y-82000000D01*
X54000000Y-84000000D02*
X54600000Y-84600000D01*
X47400000Y-82000000D02*
X47800000Y-82400000D01*
X54600000Y-91899979D02*
X54950024Y-92250003D01*
X46339600Y-82000000D02*
X46339600Y-81250000D01*
X54950024Y-92250003D02*
X55650022Y-92250003D01*
%TO.N,/5VEN*%
X37097000Y-98400000D02*
X33739401Y-95042401D01*
X59249994Y-91150006D02*
X57750019Y-91150006D01*
X33797003Y-94099999D02*
X34407600Y-94099999D01*
X33739401Y-94157601D02*
X33797003Y-94099999D01*
X38000000Y-98400000D02*
X37097000Y-98400000D01*
X33739401Y-95042401D02*
X33739401Y-94157601D01*
X60400000Y-90000000D02*
X59249994Y-91150006D01*
D40*
%TO.N,+BATT*%
X47499600Y-86500400D02*
X45415000Y-88585000D01*
X48684600Y-84075000D02*
X47499600Y-85260000D01*
X47499600Y-85260000D02*
X47499600Y-86500400D01*
X49839600Y-84075000D02*
X48684600Y-84075000D01*
X44689600Y-81200000D02*
X46339600Y-79550000D01*
X48739600Y-81250000D02*
X48739600Y-82975000D01*
X44300000Y-81200000D02*
X44689600Y-81200000D01*
X47039600Y-79550000D02*
X48739600Y-81250000D01*
X46339600Y-79550000D02*
X47039600Y-79550000D01*
X48739600Y-82975000D02*
X49839600Y-84075000D01*
X45415000Y-88585000D02*
X44550000Y-88585000D01*
D38*
%TO.N,Net-(U3-OUTS)*%
X37400000Y-94099999D02*
X38893800Y-94099999D01*
X38893800Y-94099999D02*
X39295801Y-94502000D01*
D41*
%TO.N,Net-(U1-PROG)*%
X42516000Y-86349000D02*
X42650000Y-86215000D01*
X40600000Y-86349000D02*
X42516000Y-86349000D01*
D40*
%TO.N,Net-(U2-VDD)*%
X48739600Y-79550000D02*
X50439600Y-79550000D01*
X50439600Y-79550000D02*
X50589600Y-79700000D01*
%TO.N,Net-(U2-GND)*%
X51539600Y-83375000D02*
X50839600Y-84075000D01*
X51539600Y-81900000D02*
X51539600Y-83375000D01*
%TD*%
%TA.AperFunction,Conductor*%
%TO.N,GND*%
G36*
X67217318Y-64609488D02*
G01*
X67415934Y-64618160D01*
X67420865Y-64618574D01*
X67636792Y-64645489D01*
X67832940Y-64671313D01*
X67837265Y-64671883D01*
X67841894Y-64672671D01*
X68054183Y-64717183D01*
X68252534Y-64761157D01*
X68256778Y-64762257D01*
X68464544Y-64824112D01*
X68658658Y-64885317D01*
X68662530Y-64886680D01*
X68864457Y-64965472D01*
X69052817Y-65043494D01*
X69056252Y-65045045D01*
X69131343Y-65081755D01*
X69250992Y-65140249D01*
X69388629Y-65211897D01*
X69432009Y-65234479D01*
X69435107Y-65236207D01*
X69621382Y-65347202D01*
X69793662Y-65456957D01*
X69796377Y-65458789D01*
X69972918Y-65584837D01*
X70135098Y-65709282D01*
X70137426Y-65711159D01*
X70303055Y-65851439D01*
X70454895Y-65990574D01*
X70609424Y-66145103D01*
X70748555Y-66296938D01*
X70763008Y-66314003D01*
X70888839Y-66462572D01*
X70890716Y-66464900D01*
X71015162Y-66627081D01*
X71141209Y-66803621D01*
X71143040Y-66806335D01*
X71252797Y-66978617D01*
X71363791Y-67164891D01*
X71365525Y-67168000D01*
X71459750Y-67349007D01*
X71516954Y-67466016D01*
X71554953Y-67543744D01*
X71556524Y-67547229D01*
X71634536Y-67735566D01*
X71713309Y-67937445D01*
X71714681Y-67941340D01*
X71775899Y-68135496D01*
X71837735Y-68343200D01*
X71838843Y-68347472D01*
X71882818Y-68545826D01*
X71927326Y-68758101D01*
X71928115Y-68762733D01*
X71954524Y-68963319D01*
X71981422Y-69179114D01*
X71981839Y-69184080D01*
X71990513Y-69382728D01*
X71999500Y-69600000D01*
X71999500Y-83531664D01*
X71979815Y-83598703D01*
X71927011Y-83644458D01*
X71857853Y-83654402D01*
X71794297Y-83625377D01*
X71756840Y-83567660D01*
X71729343Y-83477017D01*
X71728814Y-83475273D01*
X71721114Y-83460867D01*
X71635913Y-83301467D01*
X71635909Y-83301460D01*
X71510883Y-83149116D01*
X71358539Y-83024090D01*
X71358532Y-83024086D01*
X71184733Y-82931188D01*
X71184727Y-82931186D01*
X70997342Y-82874343D01*
X70996129Y-82873975D01*
X70800000Y-82854659D01*
X70603870Y-82873975D01*
X70415266Y-82931188D01*
X70241467Y-83024086D01*
X70241460Y-83024090D01*
X70089116Y-83149116D01*
X70056250Y-83189165D01*
X69998505Y-83228499D01*
X69960397Y-83234500D01*
X69622743Y-83234500D01*
X69607122Y-83232775D01*
X69607096Y-83233061D01*
X69599334Y-83232327D01*
X69599333Y-83232327D01*
X69530186Y-83234500D01*
X69500649Y-83234500D01*
X69493766Y-83235369D01*
X69487949Y-83235826D01*
X69433577Y-83237536D01*
X69433514Y-83235545D01*
X69374610Y-83227927D01*
X69321163Y-83182925D01*
X69300530Y-83116171D01*
X69300518Y-83114414D01*
X69300518Y-83052151D01*
X69300517Y-83052145D01*
X69300516Y-83052138D01*
X69294110Y-82992539D01*
X69275760Y-82943342D01*
X69270777Y-82873654D01*
X69275762Y-82856676D01*
X69281113Y-82842330D01*
X69294110Y-82807483D01*
X69300519Y-82747873D01*
X69300518Y-81952128D01*
X69294110Y-81892517D01*
X69291237Y-81884814D01*
X69275766Y-81843334D01*
X69270781Y-81773643D01*
X69275766Y-81756665D01*
X69278438Y-81749500D01*
X69294110Y-81707483D01*
X69300519Y-81647873D01*
X69300518Y-80852128D01*
X69294110Y-80792517D01*
X69275498Y-80742617D01*
X69270515Y-80672928D01*
X69275500Y-80655951D01*
X69293616Y-80607379D01*
X69293617Y-80607376D01*
X69300018Y-80547848D01*
X69300019Y-80547831D01*
X69300019Y-80400004D01*
X68855910Y-80400004D01*
X68849279Y-80399649D01*
X68847893Y-80399500D01*
X67852152Y-80399500D01*
X67852144Y-80399501D01*
X67850772Y-80399649D01*
X67844142Y-80400004D01*
X67400023Y-80400004D01*
X67400023Y-80547848D01*
X67406424Y-80607376D01*
X67406427Y-80607387D01*
X67424541Y-80655955D01*
X67429525Y-80725647D01*
X67424542Y-80742618D01*
X67405931Y-80792517D01*
X67399524Y-80852116D01*
X67399524Y-80852123D01*
X67399523Y-80852135D01*
X67399523Y-81647870D01*
X67399702Y-81651195D01*
X67398834Y-81651241D01*
X67387084Y-81716349D01*
X67339471Y-81767484D01*
X67271771Y-81784760D01*
X67205478Y-81762692D01*
X67176937Y-81735150D01*
X67107545Y-81642455D01*
X67107542Y-81642452D01*
X66992333Y-81556206D01*
X66992326Y-81556202D01*
X66857480Y-81505908D01*
X66857481Y-81505908D01*
X66797881Y-81499501D01*
X66797879Y-81499500D01*
X66797871Y-81499500D01*
X66797863Y-81499500D01*
X65823416Y-81499500D01*
X65756377Y-81479815D01*
X65710622Y-81427011D01*
X65700096Y-81388465D01*
X65685674Y-81251244D01*
X65627179Y-81071216D01*
X65532533Y-80907284D01*
X65405871Y-80766612D01*
X65383695Y-80750500D01*
X65252734Y-80655351D01*
X65252729Y-80655348D01*
X65079807Y-80578357D01*
X65079802Y-80578355D01*
X64934001Y-80547365D01*
X64894646Y-80539000D01*
X64705354Y-80539000D01*
X64672897Y-80545898D01*
X64520197Y-80578355D01*
X64520192Y-80578357D01*
X64347270Y-80655348D01*
X64347265Y-80655351D01*
X64194129Y-80766611D01*
X64067466Y-80907285D01*
X63972821Y-81071215D01*
X63972818Y-81071222D01*
X63914892Y-81249501D01*
X63914326Y-81251244D01*
X63900858Y-81379388D01*
X63894734Y-81437658D01*
X63894540Y-81439500D01*
X63914326Y-81627756D01*
X63914327Y-81627759D01*
X63972818Y-81807777D01*
X63972821Y-81807784D01*
X64067467Y-81971716D01*
X64098921Y-82006649D01*
X64142649Y-82055214D01*
X64172879Y-82118205D01*
X64174499Y-82138186D01*
X64174499Y-84867247D01*
X64172776Y-84882864D01*
X64173061Y-84882891D01*
X64172326Y-84890657D01*
X64174500Y-84959806D01*
X64174500Y-84989335D01*
X64174501Y-84989352D01*
X64175368Y-84996223D01*
X64175826Y-85002042D01*
X64177290Y-85048616D01*
X64177291Y-85048619D01*
X64182880Y-85067859D01*
X64186824Y-85086903D01*
X64189336Y-85106784D01*
X64202034Y-85138856D01*
X64206490Y-85150111D01*
X64208382Y-85155639D01*
X64221125Y-85199500D01*
X64221382Y-85200382D01*
X64230528Y-85215848D01*
X64231580Y-85217626D01*
X64240138Y-85235095D01*
X64247514Y-85253724D01*
X64274898Y-85291415D01*
X64278106Y-85296299D01*
X64301827Y-85336408D01*
X64301833Y-85336416D01*
X64315990Y-85350572D01*
X64328627Y-85365367D01*
X64340406Y-85381579D01*
X64368966Y-85405206D01*
X64376309Y-85411280D01*
X64380620Y-85415202D01*
X64859783Y-85894366D01*
X64999199Y-86033782D01*
X65009024Y-86046045D01*
X65009245Y-86045863D01*
X65014216Y-86051872D01*
X65035293Y-86071664D01*
X65064637Y-86099220D01*
X65085531Y-86120114D01*
X65091013Y-86124367D01*
X65095445Y-86128151D01*
X65129420Y-86160056D01*
X65146978Y-86169708D01*
X65163237Y-86180389D01*
X65173383Y-86188259D01*
X65179066Y-86192667D01*
X65185782Y-86196639D01*
X65185121Y-86197755D01*
X65232651Y-86237300D01*
X65253676Y-86303931D01*
X65252991Y-86319664D01*
X65249502Y-86352118D01*
X65249502Y-86352119D01*
X65249502Y-86352123D01*
X65249502Y-87147861D01*
X65249503Y-87147867D01*
X65255910Y-87207474D01*
X65274259Y-87256668D01*
X65279243Y-87326360D01*
X65274259Y-87343333D01*
X65255911Y-87392526D01*
X65255910Y-87392528D01*
X65249503Y-87452128D01*
X65249502Y-87452147D01*
X65249502Y-88247882D01*
X65249503Y-88247891D01*
X65252894Y-88279436D01*
X65240486Y-88348196D01*
X65202489Y-88393006D01*
X65158573Y-88424913D01*
X65153689Y-88428122D01*
X65113583Y-88451840D01*
X65099415Y-88466008D01*
X65084629Y-88478636D01*
X65068414Y-88490417D01*
X65068412Y-88490419D01*
X65050682Y-88511851D01*
X65034195Y-88528340D01*
X65033127Y-88529223D01*
X64985772Y-88579649D01*
X64964891Y-88600530D01*
X64964879Y-88600544D01*
X64960623Y-88606029D01*
X64956839Y-88610459D01*
X64924939Y-88644430D01*
X64924938Y-88644432D01*
X64915286Y-88661988D01*
X64904612Y-88678238D01*
X64892331Y-88694073D01*
X64892326Y-88694080D01*
X64873817Y-88736850D01*
X64871247Y-88742096D01*
X64848805Y-88782918D01*
X64843824Y-88802319D01*
X64837523Y-88820722D01*
X64829564Y-88839114D01*
X64829563Y-88839117D01*
X64822273Y-88885139D01*
X64821089Y-88890858D01*
X64809503Y-88935984D01*
X64809502Y-88935994D01*
X64809502Y-88956028D01*
X64807975Y-88975427D01*
X64804842Y-88995206D01*
X64804841Y-88995208D01*
X64805377Y-89000869D01*
X64792088Y-89069463D01*
X64743824Y-89119984D01*
X64675908Y-89136391D01*
X64656147Y-89133827D01*
X64494647Y-89099500D01*
X64494646Y-89099500D01*
X64305354Y-89099500D01*
X64272897Y-89106398D01*
X64120197Y-89138855D01*
X64120192Y-89138857D01*
X63947270Y-89215848D01*
X63947265Y-89215851D01*
X63794129Y-89327111D01*
X63667466Y-89467785D01*
X63572821Y-89631715D01*
X63572818Y-89631722D01*
X63514661Y-89810712D01*
X63514326Y-89811744D01*
X63500935Y-89939154D01*
X63496096Y-89985200D01*
X63494540Y-90000000D01*
X63514326Y-90188256D01*
X63514327Y-90188259D01*
X63572818Y-90368277D01*
X63572821Y-90368284D01*
X63667464Y-90532212D01*
X63667465Y-90532214D01*
X63667467Y-90532216D01*
X63695851Y-90563739D01*
X63743832Y-90617028D01*
X63774061Y-90680020D01*
X63765435Y-90749355D01*
X63743832Y-90782972D01*
X63667464Y-90867787D01*
X63572821Y-91031715D01*
X63572818Y-91031722D01*
X63514327Y-91211740D01*
X63514326Y-91211744D01*
X63508509Y-91267095D01*
X63496679Y-91379649D01*
X63470094Y-91444263D01*
X63461039Y-91454368D01*
X62177228Y-92738181D01*
X62115905Y-92771666D01*
X62089547Y-92774500D01*
X57032752Y-92774500D01*
X57017131Y-92772775D01*
X57017105Y-92773061D01*
X57009343Y-92772327D01*
X57009342Y-92772327D01*
X56940195Y-92774500D01*
X56910658Y-92774500D01*
X56903775Y-92775369D01*
X56897958Y-92775826D01*
X56851382Y-92777290D01*
X56832138Y-92782881D01*
X56813088Y-92786825D01*
X56793220Y-92789334D01*
X56793216Y-92789335D01*
X56766947Y-92799736D01*
X56697369Y-92806111D01*
X56635389Y-92773858D01*
X56600686Y-92713216D01*
X56598013Y-92671190D01*
X56600520Y-92647876D01*
X56600519Y-91852131D01*
X56600518Y-91852130D01*
X56600341Y-91848808D01*
X56601223Y-91848760D01*
X56612957Y-91783705D01*
X56660565Y-91732565D01*
X56728263Y-91715283D01*
X56794559Y-91737344D01*
X56823108Y-91764891D01*
X56892475Y-91857552D01*
X56938664Y-91892129D01*
X57007685Y-91943799D01*
X57007692Y-91943803D01*
X57142538Y-91994097D01*
X57142537Y-91994097D01*
X57149465Y-91994841D01*
X57202148Y-92000506D01*
X58297889Y-92000505D01*
X58357500Y-91994097D01*
X58492348Y-91943802D01*
X58607563Y-91857552D01*
X58611621Y-91852132D01*
X58631785Y-91825196D01*
X58687718Y-91783324D01*
X58731052Y-91775506D01*
X59167251Y-91775506D01*
X59182871Y-91777230D01*
X59182898Y-91776945D01*
X59190654Y-91777677D01*
X59190661Y-91777679D01*
X59259808Y-91775506D01*
X59289344Y-91775506D01*
X59296222Y-91774636D01*
X59302035Y-91774178D01*
X59348621Y-91772715D01*
X59367863Y-91767123D01*
X59386906Y-91763180D01*
X59406786Y-91760670D01*
X59450116Y-91743513D01*
X59455640Y-91741623D01*
X59459390Y-91740533D01*
X59500384Y-91728624D01*
X59517623Y-91718428D01*
X59535097Y-91709868D01*
X59553721Y-91702494D01*
X59553721Y-91702493D01*
X59553726Y-91702492D01*
X59591443Y-91675088D01*
X59596299Y-91671898D01*
X59636414Y-91648176D01*
X59650583Y-91634005D01*
X59665373Y-91621374D01*
X59681581Y-91609600D01*
X59711293Y-91573682D01*
X59715206Y-91569382D01*
X60347771Y-90936819D01*
X60409095Y-90903334D01*
X60435453Y-90900500D01*
X60494644Y-90900500D01*
X60494646Y-90900500D01*
X60679803Y-90861144D01*
X60852730Y-90784151D01*
X61005871Y-90672888D01*
X61132533Y-90532216D01*
X61227179Y-90368284D01*
X61285674Y-90188256D01*
X61305460Y-90000000D01*
X61285674Y-89811744D01*
X61227179Y-89631716D01*
X61132533Y-89467784D01*
X61005871Y-89327112D01*
X61002963Y-89324999D01*
X60852734Y-89215851D01*
X60852729Y-89215848D01*
X60679807Y-89138857D01*
X60679802Y-89138855D01*
X60534001Y-89107865D01*
X60494646Y-89099500D01*
X60305354Y-89099500D01*
X60298855Y-89099500D01*
X60298855Y-89097212D01*
X60240430Y-89086510D01*
X60189420Y-89038763D01*
X60172322Y-88971017D01*
X60194565Y-88904782D01*
X60208541Y-88888104D01*
X60783788Y-88312857D01*
X60796042Y-88303042D01*
X60795859Y-88302820D01*
X60801866Y-88297848D01*
X60801877Y-88297842D01*
X60832775Y-88264938D01*
X60849227Y-88247420D01*
X60859671Y-88236974D01*
X60870120Y-88226527D01*
X60874379Y-88221034D01*
X60878152Y-88216617D01*
X60910062Y-88182638D01*
X60919713Y-88165080D01*
X60930396Y-88148817D01*
X60942673Y-88132992D01*
X60961185Y-88090209D01*
X60963738Y-88084997D01*
X60986197Y-88044148D01*
X60991180Y-88024736D01*
X60997481Y-88006336D01*
X61005437Y-87987952D01*
X61012729Y-87941908D01*
X61013906Y-87936227D01*
X61025500Y-87891075D01*
X61025500Y-87891066D01*
X61026478Y-87883332D01*
X61029881Y-87883762D01*
X61045185Y-87831646D01*
X61057345Y-87815718D01*
X61132533Y-87732216D01*
X61227179Y-87568284D01*
X61285674Y-87388256D01*
X61305460Y-87200000D01*
X61285674Y-87011744D01*
X61227179Y-86831716D01*
X61159626Y-86714711D01*
X61129284Y-86662156D01*
X61131929Y-86660628D01*
X61112779Y-86607421D01*
X61128417Y-86539323D01*
X61129344Y-86537879D01*
X61129284Y-86537844D01*
X61174124Y-86460178D01*
X61227179Y-86368284D01*
X61285674Y-86188256D01*
X61305460Y-86000000D01*
X61285674Y-85811744D01*
X61227179Y-85631716D01*
X61132533Y-85467784D01*
X61005871Y-85327112D01*
X61005870Y-85327111D01*
X60852734Y-85215851D01*
X60852729Y-85215848D01*
X60679807Y-85138857D01*
X60679802Y-85138855D01*
X60520700Y-85105038D01*
X60494646Y-85099500D01*
X60305354Y-85099500D01*
X60279300Y-85105038D01*
X60120197Y-85138855D01*
X60120192Y-85138857D01*
X59947270Y-85215848D01*
X59947265Y-85215851D01*
X59794129Y-85327111D01*
X59667466Y-85467785D01*
X59572821Y-85631715D01*
X59572819Y-85631719D01*
X59528655Y-85767640D01*
X59498405Y-85817002D01*
X59216208Y-86099199D01*
X59203951Y-86109020D01*
X59204134Y-86109241D01*
X59198123Y-86114213D01*
X59150772Y-86164636D01*
X59129889Y-86185519D01*
X59129877Y-86185532D01*
X59125621Y-86191017D01*
X59121837Y-86195447D01*
X59089937Y-86229418D01*
X59089936Y-86229420D01*
X59080286Y-86246973D01*
X59069609Y-86263228D01*
X59057327Y-86279062D01*
X59057325Y-86279066D01*
X59038819Y-86321832D01*
X59036248Y-86327080D01*
X59013801Y-86367911D01*
X59008820Y-86387310D01*
X59002521Y-86405709D01*
X58994561Y-86424104D01*
X58993591Y-86427445D01*
X58992119Y-86429749D01*
X58991466Y-86431259D01*
X58991222Y-86431153D01*
X58955982Y-86486329D01*
X58892509Y-86515533D01*
X58823322Y-86505784D01*
X58770390Y-86460178D01*
X58750516Y-86393194D01*
X58750516Y-86352120D01*
X58750515Y-86352114D01*
X58744108Y-86292507D01*
X58744106Y-86292501D01*
X58725764Y-86243324D01*
X58720779Y-86173633D01*
X58725758Y-86156673D01*
X58744108Y-86107477D01*
X58750517Y-86047867D01*
X58750516Y-85252122D01*
X58744108Y-85192511D01*
X58725767Y-85143338D01*
X58720784Y-85073648D01*
X58725769Y-85056671D01*
X58737593Y-85024969D01*
X58744108Y-85007502D01*
X58750517Y-84947892D01*
X58750516Y-84152147D01*
X58744108Y-84092536D01*
X58744108Y-84092535D01*
X58744106Y-84092529D01*
X58725764Y-84043352D01*
X58720779Y-83973661D01*
X58725758Y-83956701D01*
X58744108Y-83907505D01*
X58750517Y-83847895D01*
X58750516Y-83052150D01*
X58744108Y-82992539D01*
X58725758Y-82943342D01*
X58720775Y-82873654D01*
X58725760Y-82856676D01*
X58731111Y-82842330D01*
X58744108Y-82807483D01*
X58750517Y-82747873D01*
X58750516Y-81952128D01*
X58744108Y-81892517D01*
X58739072Y-81879016D01*
X58693814Y-81757671D01*
X58693810Y-81757664D01*
X58607564Y-81642455D01*
X58607561Y-81642452D01*
X58492352Y-81556206D01*
X58492345Y-81556202D01*
X58357499Y-81505908D01*
X58357500Y-81505908D01*
X58297900Y-81499501D01*
X58297898Y-81499500D01*
X58297890Y-81499500D01*
X58297881Y-81499500D01*
X57202150Y-81499500D01*
X57202144Y-81499501D01*
X57142537Y-81505908D01*
X57007692Y-81556202D01*
X57007685Y-81556206D01*
X56892476Y-81642452D01*
X56823110Y-81735113D01*
X56767176Y-81776983D01*
X56697484Y-81781967D01*
X56636162Y-81748481D01*
X56602677Y-81687158D01*
X56600752Y-81651203D01*
X56600584Y-81651194D01*
X56600520Y-81651194D01*
X56600519Y-81651190D01*
X56600342Y-81651181D01*
X56600517Y-81647900D01*
X56600520Y-81647873D01*
X56600519Y-80852128D01*
X56594111Y-80792517D01*
X56575499Y-80742617D01*
X56570516Y-80672928D01*
X56575501Y-80655951D01*
X56593617Y-80607379D01*
X56593618Y-80607376D01*
X56600019Y-80547848D01*
X56600020Y-80547831D01*
X56600020Y-80400004D01*
X56155911Y-80400004D01*
X56149280Y-80399649D01*
X56147894Y-80399500D01*
X55152153Y-80399500D01*
X55152145Y-80399501D01*
X55150773Y-80399649D01*
X55144143Y-80400004D01*
X54700024Y-80400004D01*
X54700024Y-80547848D01*
X54706425Y-80607376D01*
X54706428Y-80607387D01*
X54724542Y-80655955D01*
X54729526Y-80725647D01*
X54724543Y-80742618D01*
X54705932Y-80792517D01*
X54699525Y-80852116D01*
X54699525Y-80852123D01*
X54699524Y-80852135D01*
X54699524Y-81647870D01*
X54699525Y-81647876D01*
X54705932Y-81707482D01*
X54712280Y-81724501D01*
X54724276Y-81756665D01*
X54724277Y-81756666D01*
X54729261Y-81826358D01*
X54724277Y-81843331D01*
X54705933Y-81892514D01*
X54705932Y-81892516D01*
X54699699Y-81950500D01*
X54699525Y-81952123D01*
X54699524Y-81952135D01*
X54699524Y-82747870D01*
X54699525Y-82747876D01*
X54705932Y-82807483D01*
X54724281Y-82856678D01*
X54729265Y-82926369D01*
X54724281Y-82943342D01*
X54705933Y-82992536D01*
X54705932Y-82992538D01*
X54699525Y-83052138D01*
X54699525Y-83052145D01*
X54699524Y-83052157D01*
X54699524Y-83151791D01*
X54679839Y-83218830D01*
X54627035Y-83264585D01*
X54557877Y-83274529D01*
X54502639Y-83252109D01*
X54452734Y-83215851D01*
X54452729Y-83215848D01*
X54279807Y-83138857D01*
X54279802Y-83138855D01*
X54134001Y-83107865D01*
X54094646Y-83099500D01*
X53905354Y-83099500D01*
X53872897Y-83106398D01*
X53720197Y-83138855D01*
X53720192Y-83138857D01*
X53547270Y-83215848D01*
X53547265Y-83215851D01*
X53394129Y-83327111D01*
X53267466Y-83467785D01*
X53172821Y-83631715D01*
X53172818Y-83631722D01*
X53114327Y-83811740D01*
X53114326Y-83811744D01*
X53094540Y-84000000D01*
X53114326Y-84188256D01*
X53114327Y-84188259D01*
X53172818Y-84368277D01*
X53172821Y-84368284D01*
X53267467Y-84532216D01*
X53326585Y-84597873D01*
X53394129Y-84672888D01*
X53547265Y-84784148D01*
X53547270Y-84784151D01*
X53720192Y-84861142D01*
X53720193Y-84861142D01*
X53720197Y-84861144D01*
X53876280Y-84894320D01*
X53937762Y-84927512D01*
X53971539Y-84988675D01*
X53974500Y-85015610D01*
X53974500Y-91817234D01*
X53972775Y-91832851D01*
X53973061Y-91832878D01*
X53972326Y-91840644D01*
X53974500Y-91909793D01*
X53974500Y-91939322D01*
X53974501Y-91939339D01*
X53975368Y-91946210D01*
X53975826Y-91952029D01*
X53977290Y-91998603D01*
X53977291Y-91998606D01*
X53982880Y-92017846D01*
X53986824Y-92036890D01*
X53989336Y-92056771D01*
X54003415Y-92092331D01*
X54006490Y-92100098D01*
X54008382Y-92105626D01*
X54014211Y-92125690D01*
X54021382Y-92150369D01*
X54028367Y-92162181D01*
X54031580Y-92167613D01*
X54040136Y-92185079D01*
X54046045Y-92200000D01*
X54047514Y-92203711D01*
X54074898Y-92241402D01*
X54078106Y-92246286D01*
X54101827Y-92286395D01*
X54101833Y-92286403D01*
X54115990Y-92300559D01*
X54128628Y-92315355D01*
X54140405Y-92331565D01*
X54140406Y-92331566D01*
X54176309Y-92361267D01*
X54180620Y-92365189D01*
X54317547Y-92502116D01*
X54449218Y-92633787D01*
X54459043Y-92646051D01*
X54459264Y-92645869D01*
X54464234Y-92651876D01*
X54464237Y-92651879D01*
X54464238Y-92651880D01*
X54514675Y-92699244D01*
X54535554Y-92720123D01*
X54541028Y-92724369D01*
X54545466Y-92728159D01*
X54579442Y-92760065D01*
X54579446Y-92760067D01*
X54596997Y-92769716D01*
X54613255Y-92780395D01*
X54619967Y-92785602D01*
X54629089Y-92792678D01*
X54635801Y-92796647D01*
X54635141Y-92797761D01*
X54682677Y-92837315D01*
X54703698Y-92903947D01*
X54703013Y-92919677D01*
X54699524Y-92952130D01*
X54699524Y-92952134D01*
X54699524Y-92952135D01*
X54699524Y-93747873D01*
X54699525Y-93747879D01*
X54705932Y-93807486D01*
X54756226Y-93942331D01*
X54756230Y-93942338D01*
X54842476Y-94057547D01*
X54842479Y-94057550D01*
X54957688Y-94143796D01*
X54957695Y-94143800D01*
X54958296Y-94144024D01*
X55092541Y-94194094D01*
X55152151Y-94200503D01*
X55525507Y-94200502D01*
X55592546Y-94220186D01*
X55638301Y-94272990D01*
X55649507Y-94324501D01*
X55649508Y-94468499D01*
X55629824Y-94535539D01*
X55577020Y-94581294D01*
X55525508Y-94592500D01*
X53211079Y-94592500D01*
X53144040Y-94572815D01*
X53123398Y-94556181D01*
X51215103Y-92647886D01*
X49281579Y-90714361D01*
X49269799Y-90700730D01*
X49262332Y-90690701D01*
X49255462Y-90681472D01*
X49215766Y-90648163D01*
X49215437Y-90647886D01*
X49211462Y-90644244D01*
X49208540Y-90641322D01*
X49205630Y-90638411D01*
X49179890Y-90618059D01*
X49160654Y-90601918D01*
X49121064Y-90568698D01*
X49121063Y-90568697D01*
X49121059Y-90568694D01*
X49115030Y-90564729D01*
X49115062Y-90564680D01*
X49108703Y-90560628D01*
X49108672Y-90560679D01*
X49102530Y-90556891D01*
X49102528Y-90556890D01*
X49102527Y-90556889D01*
X49049617Y-90532216D01*
X49032908Y-90524424D01*
X48982028Y-90498872D01*
X48964283Y-90489960D01*
X48964281Y-90489959D01*
X48964280Y-90489959D01*
X48957495Y-90487489D01*
X48957515Y-90487433D01*
X48950399Y-90484959D01*
X48950381Y-90485015D01*
X48943521Y-90482742D01*
X48915691Y-90476996D01*
X48868284Y-90467207D01*
X48819322Y-90455603D01*
X48793569Y-90449499D01*
X48786397Y-90448661D01*
X48786403Y-90448601D01*
X48778905Y-90447835D01*
X48778900Y-90447895D01*
X48771710Y-90447265D01*
X48694933Y-90449500D01*
X40562230Y-90449500D01*
X40495191Y-90429815D01*
X40474549Y-90413181D01*
X39186819Y-89125451D01*
X39153334Y-89064128D01*
X39150500Y-89037770D01*
X39150500Y-88512289D01*
X39139973Y-88424631D01*
X39090431Y-88299000D01*
X39550000Y-88299000D01*
X39550000Y-88596844D01*
X39556401Y-88656372D01*
X39556403Y-88656379D01*
X39606645Y-88791086D01*
X39606649Y-88791093D01*
X39692809Y-88906187D01*
X39692812Y-88906190D01*
X39807906Y-88992350D01*
X39807913Y-88992354D01*
X39942620Y-89042596D01*
X39942627Y-89042598D01*
X40002155Y-89048999D01*
X40002172Y-89049000D01*
X40350000Y-89049000D01*
X40350000Y-88299000D01*
X39550000Y-88299000D01*
X39090431Y-88299000D01*
X39084962Y-88285131D01*
X38994353Y-88165647D01*
X38936748Y-88121963D01*
X38895225Y-88065770D01*
X38890674Y-87996049D01*
X38914405Y-87946253D01*
X38931188Y-87925027D01*
X38931942Y-87924074D01*
X38944763Y-87908794D01*
X38981302Y-87865250D01*
X38981306Y-87865241D01*
X38985274Y-87859211D01*
X38985325Y-87859244D01*
X38989369Y-87852896D01*
X38989317Y-87852864D01*
X38993113Y-87846709D01*
X39000507Y-87830853D01*
X39014086Y-87808331D01*
X39049099Y-87762160D01*
X39084962Y-87714869D01*
X39139973Y-87575369D01*
X39150500Y-87487710D01*
X39150500Y-87127228D01*
X39170185Y-87060189D01*
X39186815Y-87039551D01*
X39344878Y-86881488D01*
X39406200Y-86848004D01*
X39475892Y-86852988D01*
X39531825Y-86894860D01*
X39553187Y-86949153D01*
X39554124Y-86948932D01*
X39555663Y-86955447D01*
X39555848Y-86955916D01*
X39555909Y-86956483D01*
X39606202Y-87091328D01*
X39606204Y-87091331D01*
X39631487Y-87125105D01*
X39655905Y-87190568D01*
X39641054Y-87258841D01*
X39631488Y-87273726D01*
X39606649Y-87306906D01*
X39606645Y-87306913D01*
X39556403Y-87441620D01*
X39556401Y-87441627D01*
X39550000Y-87501155D01*
X39550000Y-87799000D01*
X40726000Y-87799000D01*
X40793039Y-87818685D01*
X40838794Y-87871489D01*
X40850000Y-87923000D01*
X40850000Y-89049000D01*
X41197828Y-89049000D01*
X41197844Y-89048999D01*
X41257372Y-89042598D01*
X41257379Y-89042596D01*
X41392086Y-88992354D01*
X41392093Y-88992350D01*
X41507187Y-88906190D01*
X41507190Y-88906187D01*
X41593350Y-88791093D01*
X41593355Y-88791084D01*
X41609318Y-88748286D01*
X41651189Y-88692352D01*
X41716653Y-88667934D01*
X41784926Y-88682785D01*
X41834332Y-88732190D01*
X41849500Y-88791618D01*
X41849500Y-89257710D01*
X41860026Y-89345368D01*
X41860027Y-89345369D01*
X41915038Y-89484869D01*
X41915039Y-89484871D01*
X41941679Y-89520000D01*
X42005647Y-89604353D01*
X42125131Y-89694962D01*
X42264631Y-89749973D01*
X42352289Y-89760500D01*
X42352290Y-89760500D01*
X42947711Y-89760500D01*
X42991539Y-89755236D01*
X43035369Y-89749973D01*
X43080193Y-89732296D01*
X43149778Y-89726015D01*
X43171173Y-89732297D01*
X43214747Y-89749481D01*
X43214752Y-89749482D01*
X43302331Y-89759999D01*
X43349999Y-89759998D01*
X43350000Y-89759998D01*
X43350000Y-89572672D01*
X43369685Y-89505633D01*
X43375197Y-89497746D01*
X43376846Y-89495571D01*
X43384962Y-89484869D01*
X43439973Y-89345369D01*
X43450500Y-89257710D01*
X43450500Y-87912290D01*
X43447022Y-87883332D01*
X43439973Y-87824631D01*
X43384962Y-87685131D01*
X43384960Y-87685128D01*
X43375196Y-87672252D01*
X43350373Y-87606940D01*
X43350000Y-87597327D01*
X43350000Y-87410000D01*
X43319053Y-87379054D01*
X43285568Y-87317731D01*
X43290552Y-87248039D01*
X43307928Y-87216451D01*
X43384962Y-87114869D01*
X43439973Y-86975369D01*
X43450500Y-86887710D01*
X43450500Y-85542290D01*
X43442165Y-85472888D01*
X43439973Y-85454631D01*
X43384962Y-85315131D01*
X43334754Y-85248924D01*
X43309932Y-85183616D01*
X43324359Y-85115252D01*
X43373456Y-85065540D01*
X43433559Y-85050000D01*
X43600000Y-85050000D01*
X43600000Y-83874000D01*
X43619685Y-83806961D01*
X43672489Y-83761206D01*
X43724000Y-83750000D01*
X43925500Y-83750000D01*
X43992539Y-83769685D01*
X44038294Y-83822489D01*
X44049500Y-83874000D01*
X44049500Y-85024969D01*
X44029815Y-85092008D01*
X44000427Y-85123772D01*
X43905645Y-85195648D01*
X43815039Y-85315128D01*
X43815038Y-85315130D01*
X43760027Y-85454630D01*
X43760026Y-85454631D01*
X43749500Y-85542289D01*
X43749500Y-86887710D01*
X43760026Y-86975368D01*
X43760027Y-86975369D01*
X43815038Y-87114869D01*
X43892069Y-87216448D01*
X43916892Y-87281757D01*
X43902465Y-87350121D01*
X43880947Y-87379053D01*
X43850000Y-87410000D01*
X43850000Y-87597327D01*
X43830315Y-87664366D01*
X43824804Y-87672252D01*
X43815039Y-87685128D01*
X43815038Y-87685130D01*
X43760027Y-87824630D01*
X43760026Y-87824631D01*
X43749500Y-87912289D01*
X43749500Y-89257710D01*
X43760026Y-89345368D01*
X43760027Y-89345369D01*
X43815037Y-89484867D01*
X43815040Y-89484872D01*
X43824803Y-89497746D01*
X43849627Y-89563057D01*
X43850000Y-89572672D01*
X43850000Y-89759999D01*
X43897660Y-89759999D01*
X43985248Y-89749482D01*
X44028825Y-89732297D01*
X44098412Y-89726015D01*
X44119807Y-89732297D01*
X44126446Y-89734915D01*
X44164631Y-89749973D01*
X44252289Y-89760500D01*
X44252290Y-89760500D01*
X44847711Y-89760500D01*
X44891539Y-89755236D01*
X44935369Y-89749973D01*
X45074869Y-89694962D01*
X45194353Y-89604353D01*
X45284962Y-89484869D01*
X45312014Y-89416268D01*
X45354918Y-89361125D01*
X45416560Y-89338230D01*
X45427364Y-89337284D01*
X45445068Y-89335735D01*
X45450470Y-89335500D01*
X45458704Y-89335500D01*
X45458709Y-89335500D01*
X45470327Y-89334141D01*
X45491276Y-89331693D01*
X45504028Y-89330577D01*
X45567797Y-89324999D01*
X45567805Y-89324996D01*
X45574866Y-89323539D01*
X45574878Y-89323598D01*
X45582243Y-89321965D01*
X45582229Y-89321906D01*
X45589246Y-89320241D01*
X45589255Y-89320241D01*
X45661423Y-89293974D01*
X45734334Y-89269814D01*
X45734343Y-89269807D01*
X45740882Y-89266760D01*
X45740908Y-89266816D01*
X45747690Y-89263532D01*
X45747663Y-89263478D01*
X45754106Y-89260240D01*
X45754117Y-89260237D01*
X45818283Y-89218034D01*
X45883656Y-89177712D01*
X45883662Y-89177705D01*
X45889325Y-89173229D01*
X45889362Y-89173277D01*
X45895204Y-89168518D01*
X45895164Y-89168471D01*
X45900686Y-89163836D01*
X45900696Y-89163830D01*
X45923179Y-89139999D01*
X45953386Y-89107982D01*
X46976394Y-88084973D01*
X47318940Y-87742426D01*
X47380261Y-87708943D01*
X47449952Y-87713927D01*
X47505884Y-87755796D01*
X47582054Y-87857546D01*
X47608064Y-87877017D01*
X47697264Y-87943793D01*
X47697271Y-87943797D01*
X47832117Y-87994091D01*
X47832116Y-87994091D01*
X47839044Y-87994835D01*
X47891727Y-88000500D01*
X49187472Y-88000499D01*
X49247083Y-87994091D01*
X49381931Y-87943796D01*
X49497146Y-87857546D01*
X49583396Y-87742331D01*
X49633691Y-87607483D01*
X49640100Y-87547873D01*
X49640099Y-85652128D01*
X49633691Y-85592517D01*
X49628255Y-85577943D01*
X49605836Y-85517831D01*
X49600852Y-85448140D01*
X49634338Y-85386817D01*
X49695661Y-85353333D01*
X49722018Y-85350499D01*
X50187471Y-85350499D01*
X50187472Y-85350499D01*
X50247083Y-85344091D01*
X50296265Y-85325746D01*
X50365955Y-85320761D01*
X50382933Y-85325747D01*
X50432108Y-85344088D01*
X50432111Y-85344089D01*
X50432117Y-85344091D01*
X50491727Y-85350500D01*
X50957183Y-85350499D01*
X51024221Y-85370183D01*
X51069976Y-85422987D01*
X51079920Y-85492146D01*
X51073364Y-85517831D01*
X51045509Y-85592514D01*
X51045508Y-85592516D01*
X51039273Y-85650517D01*
X51039101Y-85652123D01*
X51039100Y-85652135D01*
X51039100Y-87547870D01*
X51039101Y-87547876D01*
X51045508Y-87607483D01*
X51095802Y-87742328D01*
X51095806Y-87742335D01*
X51182052Y-87857544D01*
X51182055Y-87857547D01*
X51297264Y-87943793D01*
X51297271Y-87943797D01*
X51432117Y-87994091D01*
X51432116Y-87994091D01*
X51439044Y-87994835D01*
X51491727Y-88000500D01*
X52787472Y-88000499D01*
X52847083Y-87994091D01*
X52981931Y-87943796D01*
X53097146Y-87857546D01*
X53183396Y-87742331D01*
X53233691Y-87607483D01*
X53240100Y-87547873D01*
X53240099Y-85652128D01*
X53233691Y-85592517D01*
X53233690Y-85592515D01*
X53183397Y-85457671D01*
X53183393Y-85457664D01*
X53097147Y-85342455D01*
X53097144Y-85342452D01*
X52981935Y-85256206D01*
X52981928Y-85256202D01*
X52847082Y-85205908D01*
X52847083Y-85205908D01*
X52787483Y-85199501D01*
X52787481Y-85199500D01*
X52787473Y-85199500D01*
X52787465Y-85199500D01*
X51722018Y-85199500D01*
X51654979Y-85179815D01*
X51609224Y-85127011D01*
X51599280Y-85057853D01*
X51605836Y-85032167D01*
X51615044Y-85007477D01*
X51633691Y-84957483D01*
X51640100Y-84897873D01*
X51640099Y-84387227D01*
X51659783Y-84320189D01*
X51676413Y-84299552D01*
X52025241Y-83950724D01*
X52038860Y-83938954D01*
X52058130Y-83924610D01*
X52091723Y-83884574D01*
X52095357Y-83880608D01*
X52101190Y-83874777D01*
X52121523Y-83849060D01*
X52170902Y-83790214D01*
X52170909Y-83790198D01*
X52174872Y-83784176D01*
X52174924Y-83784210D01*
X52178971Y-83777858D01*
X52178917Y-83777825D01*
X52182704Y-83771684D01*
X52182710Y-83771677D01*
X52194446Y-83746508D01*
X52215161Y-83702086D01*
X52249636Y-83633440D01*
X52249640Y-83633433D01*
X52249642Y-83633421D01*
X52252110Y-83626644D01*
X52252168Y-83626665D01*
X52254643Y-83619546D01*
X52254585Y-83619527D01*
X52256856Y-83612672D01*
X52272384Y-83537467D01*
X52281768Y-83497873D01*
X52290100Y-83462721D01*
X52290100Y-83462720D01*
X52290939Y-83455548D01*
X52290997Y-83455554D01*
X52291764Y-83448056D01*
X52291704Y-83448051D01*
X52292333Y-83440860D01*
X52292322Y-83440496D01*
X52290100Y-83364102D01*
X52290099Y-83099748D01*
X52309783Y-83032710D01*
X52339783Y-83000486D01*
X52397146Y-82957546D01*
X52483396Y-82842331D01*
X52533691Y-82707483D01*
X52540100Y-82647873D01*
X52540099Y-81152128D01*
X52533691Y-81092517D01*
X52524297Y-81067332D01*
X52519314Y-80997642D01*
X52552799Y-80936319D01*
X52614122Y-80902834D01*
X52640480Y-80900000D01*
X53037428Y-80900000D01*
X53037444Y-80899999D01*
X53096972Y-80893598D01*
X53096979Y-80893596D01*
X53231686Y-80843354D01*
X53231693Y-80843350D01*
X53346787Y-80757190D01*
X53346790Y-80757187D01*
X53432950Y-80642093D01*
X53432954Y-80642086D01*
X53483196Y-80507379D01*
X53483198Y-80507372D01*
X53489599Y-80447844D01*
X53489600Y-80447827D01*
X53489600Y-79950000D01*
X52363600Y-79950000D01*
X52296561Y-79930315D01*
X52250806Y-79877511D01*
X52239600Y-79826000D01*
X52239600Y-78500000D01*
X52739600Y-78500000D01*
X52739600Y-79450000D01*
X53489600Y-79450000D01*
X53489600Y-78952172D01*
X53489599Y-78952155D01*
X53483198Y-78892627D01*
X53483196Y-78892620D01*
X53432954Y-78757913D01*
X53432950Y-78757906D01*
X53346790Y-78642812D01*
X53346787Y-78642809D01*
X53231693Y-78556649D01*
X53231686Y-78556645D01*
X53096979Y-78506403D01*
X53096972Y-78506401D01*
X53037444Y-78500000D01*
X52739600Y-78500000D01*
X52239600Y-78500000D01*
X51941755Y-78500000D01*
X51882227Y-78506401D01*
X51882220Y-78506403D01*
X51747513Y-78556645D01*
X51747506Y-78556649D01*
X51632412Y-78642809D01*
X51627638Y-78647584D01*
X51566315Y-78681069D01*
X51496623Y-78676085D01*
X51452276Y-78647584D01*
X51447144Y-78642452D01*
X51331935Y-78556206D01*
X51331928Y-78556202D01*
X51197082Y-78505908D01*
X51197083Y-78505908D01*
X51137483Y-78499501D01*
X51137481Y-78499500D01*
X51137473Y-78499500D01*
X51137464Y-78499500D01*
X50041729Y-78499500D01*
X50041723Y-78499501D01*
X49982116Y-78505908D01*
X49847271Y-78556202D01*
X49847269Y-78556204D01*
X49730515Y-78643606D01*
X49665051Y-78668023D01*
X49596778Y-78653172D01*
X49581893Y-78643605D01*
X49531935Y-78606206D01*
X49531928Y-78606202D01*
X49397082Y-78555908D01*
X49397083Y-78555908D01*
X49337483Y-78549501D01*
X49337481Y-78549500D01*
X49337473Y-78549500D01*
X49337464Y-78549500D01*
X48141729Y-78549500D01*
X48141723Y-78549501D01*
X48082116Y-78555908D01*
X47947271Y-78606202D01*
X47947264Y-78606206D01*
X47832055Y-78692452D01*
X47832052Y-78692455D01*
X47745806Y-78807664D01*
X47745803Y-78807669D01*
X47706268Y-78913668D01*
X47664396Y-78969601D01*
X47598932Y-78994018D01*
X47530659Y-78979166D01*
X47510381Y-78965324D01*
X47454813Y-78918697D01*
X47448780Y-78914729D01*
X47448812Y-78914680D01*
X47442453Y-78910628D01*
X47442422Y-78910679D01*
X47436280Y-78906891D01*
X47436278Y-78906890D01*
X47436277Y-78906889D01*
X47402560Y-78891166D01*
X47350122Y-78844994D01*
X47338785Y-78822117D01*
X47333396Y-78807669D01*
X47333394Y-78807666D01*
X47247147Y-78692455D01*
X47247144Y-78692452D01*
X47131935Y-78606206D01*
X47131928Y-78606202D01*
X46997082Y-78555908D01*
X46997084Y-78555908D01*
X46942033Y-78549990D01*
X46877482Y-78523252D01*
X46837634Y-78465859D01*
X46835141Y-78396034D01*
X46870794Y-78335946D01*
X46880968Y-78327441D01*
X46907546Y-78307546D01*
X46993796Y-78192331D01*
X47044091Y-78057483D01*
X47050500Y-77997873D01*
X47050499Y-76902128D01*
X47044091Y-76842517D01*
X47042026Y-76836981D01*
X46993797Y-76707672D01*
X46993796Y-76707669D01*
X46968509Y-76673891D01*
X46944094Y-76608430D01*
X46958945Y-76540157D01*
X46968512Y-76525271D01*
X46993351Y-76492090D01*
X47043597Y-76357376D01*
X47043598Y-76357372D01*
X47049999Y-76297844D01*
X47050000Y-76297827D01*
X47050000Y-76000000D01*
X44950000Y-76000000D01*
X44950000Y-76297844D01*
X44956401Y-76357372D01*
X44956403Y-76357379D01*
X45006645Y-76492086D01*
X45006646Y-76492088D01*
X45031488Y-76525273D01*
X45055904Y-76590738D01*
X45041052Y-76659011D01*
X45031488Y-76673892D01*
X45006205Y-76707665D01*
X45006202Y-76707671D01*
X44955908Y-76842517D01*
X44952619Y-76873115D01*
X44949501Y-76902123D01*
X44949500Y-76902135D01*
X44949500Y-77387768D01*
X44929815Y-77454807D01*
X44913179Y-77475451D01*
X44889487Y-77499142D01*
X44828164Y-77532626D01*
X44758472Y-77527640D01*
X44716399Y-77496142D01*
X44713817Y-77498725D01*
X44707544Y-77492452D01*
X44592335Y-77406206D01*
X44592325Y-77406201D01*
X44577006Y-77400487D01*
X44521073Y-77358615D01*
X44496657Y-77293150D01*
X44504160Y-77240971D01*
X44516091Y-77208983D01*
X44519552Y-77176788D01*
X44522500Y-77149373D01*
X44522499Y-75500000D01*
X44950000Y-75500000D01*
X45750000Y-75500000D01*
X45750000Y-74750000D01*
X46250000Y-74750000D01*
X46250000Y-75500000D01*
X47050000Y-75500000D01*
X47050000Y-75202172D01*
X47049999Y-75202155D01*
X47043598Y-75142627D01*
X47043596Y-75142620D01*
X46993354Y-75007913D01*
X46993350Y-75007906D01*
X46907190Y-74892812D01*
X46907187Y-74892809D01*
X46792093Y-74806649D01*
X46792086Y-74806645D01*
X46657379Y-74756403D01*
X46657372Y-74756401D01*
X46597844Y-74750000D01*
X46250000Y-74750000D01*
X45750000Y-74750000D01*
X45402155Y-74750000D01*
X45342627Y-74756401D01*
X45342620Y-74756403D01*
X45207913Y-74806645D01*
X45207906Y-74806649D01*
X45092812Y-74892809D01*
X45092809Y-74892812D01*
X45006649Y-75007906D01*
X45006645Y-75007913D01*
X44956403Y-75142620D01*
X44956401Y-75142627D01*
X44950000Y-75202155D01*
X44950000Y-75500000D01*
X44522499Y-75500000D01*
X44522499Y-75250628D01*
X44516091Y-75191017D01*
X44496636Y-75138856D01*
X44465797Y-75056171D01*
X44465793Y-75056164D01*
X44379547Y-74940955D01*
X44379544Y-74940952D01*
X44264335Y-74854706D01*
X44264328Y-74854702D01*
X44129482Y-74804408D01*
X44129483Y-74804408D01*
X44069883Y-74798001D01*
X44069881Y-74798000D01*
X44069873Y-74798000D01*
X44069864Y-74798000D01*
X42374129Y-74798000D01*
X42374123Y-74798001D01*
X42314516Y-74804408D01*
X42179671Y-74854702D01*
X42179664Y-74854706D01*
X42064455Y-74940952D01*
X42064452Y-74940955D01*
X41978206Y-75056164D01*
X41978202Y-75056171D01*
X41927908Y-75191016D01*
X41923288Y-75233989D01*
X41896549Y-75298539D01*
X41839156Y-75338386D01*
X41769330Y-75340879D01*
X41709242Y-75305225D01*
X41677969Y-75242745D01*
X41676710Y-75233989D01*
X41672091Y-75191017D01*
X41652636Y-75138856D01*
X41621797Y-75056171D01*
X41621793Y-75056164D01*
X41535547Y-74940955D01*
X41535544Y-74940952D01*
X41420335Y-74854706D01*
X41420328Y-74854702D01*
X41285482Y-74804408D01*
X41285483Y-74804408D01*
X41225883Y-74798001D01*
X41225881Y-74798000D01*
X41225873Y-74798000D01*
X41225864Y-74798000D01*
X39530129Y-74798000D01*
X39530123Y-74798001D01*
X39470516Y-74804408D01*
X39335671Y-74854702D01*
X39335664Y-74854706D01*
X39220455Y-74940952D01*
X39220452Y-74940955D01*
X39134206Y-75056164D01*
X39134202Y-75056171D01*
X39083908Y-75191017D01*
X39078347Y-75242745D01*
X39077501Y-75250623D01*
X39077500Y-75250635D01*
X39077500Y-75325500D01*
X39057815Y-75392539D01*
X39005011Y-75438294D01*
X38953500Y-75449500D01*
X38863705Y-75449500D01*
X38845735Y-75448191D01*
X38821972Y-75444710D01*
X38776533Y-75448686D01*
X38769931Y-75449264D01*
X38764530Y-75449500D01*
X38756289Y-75449500D01*
X38734579Y-75452037D01*
X38723724Y-75453306D01*
X38708419Y-75454645D01*
X38647199Y-75460001D01*
X38640132Y-75461460D01*
X38640120Y-75461404D01*
X38632763Y-75463035D01*
X38632777Y-75463092D01*
X38625743Y-75464759D01*
X38553575Y-75491025D01*
X38480675Y-75515181D01*
X38474126Y-75518236D01*
X38474101Y-75518183D01*
X38467308Y-75521471D01*
X38467334Y-75521523D01*
X38460880Y-75524764D01*
X38396708Y-75566971D01*
X38331347Y-75607285D01*
X38325683Y-75611765D01*
X38325647Y-75611719D01*
X38319798Y-75616484D01*
X38319835Y-75616528D01*
X38314310Y-75621164D01*
X38261597Y-75677035D01*
X33525451Y-80413181D01*
X33464128Y-80446666D01*
X33437770Y-80449500D01*
X33263705Y-80449500D01*
X33245735Y-80448191D01*
X33221972Y-80444710D01*
X33176533Y-80448686D01*
X33169931Y-80449264D01*
X33164530Y-80449500D01*
X33156289Y-80449500D01*
X33134579Y-80452037D01*
X33123724Y-80453306D01*
X33108419Y-80454645D01*
X33047199Y-80460001D01*
X33040132Y-80461460D01*
X33040120Y-80461404D01*
X33032763Y-80463035D01*
X33032777Y-80463092D01*
X33025743Y-80464759D01*
X32953575Y-80491025D01*
X32880665Y-80515185D01*
X32874126Y-80518235D01*
X32874101Y-80518183D01*
X32867308Y-80521471D01*
X32867334Y-80521522D01*
X32860884Y-80524761D01*
X32796716Y-80566964D01*
X32731347Y-80607285D01*
X32725677Y-80611769D01*
X32725641Y-80611723D01*
X32719798Y-80616484D01*
X32719835Y-80616528D01*
X32714310Y-80621164D01*
X32714304Y-80621169D01*
X32714304Y-80621170D01*
X32661614Y-80677017D01*
X32371373Y-80967259D01*
X32115451Y-81223181D01*
X32054128Y-81256666D01*
X32027770Y-81259500D01*
X31873705Y-81259500D01*
X31855735Y-81258191D01*
X31831972Y-81254710D01*
X31786533Y-81258686D01*
X31779931Y-81259264D01*
X31774530Y-81259500D01*
X31766289Y-81259500D01*
X31744579Y-81262037D01*
X31733724Y-81263306D01*
X31718419Y-81264645D01*
X31657199Y-81270001D01*
X31650132Y-81271460D01*
X31650120Y-81271404D01*
X31642763Y-81273035D01*
X31642777Y-81273092D01*
X31635743Y-81274759D01*
X31563575Y-81301025D01*
X31490675Y-81325181D01*
X31484126Y-81328236D01*
X31484101Y-81328183D01*
X31477308Y-81331471D01*
X31477334Y-81331523D01*
X31470880Y-81334764D01*
X31406702Y-81376975D01*
X31400276Y-81380938D01*
X31332881Y-81399371D01*
X31266220Y-81378441D01*
X31221456Y-81324795D01*
X31219008Y-81318725D01*
X31168354Y-81182913D01*
X31168350Y-81182906D01*
X31082190Y-81067812D01*
X31082187Y-81067809D01*
X30967093Y-80981649D01*
X30967086Y-80981645D01*
X30832379Y-80931403D01*
X30832372Y-80931401D01*
X30772844Y-80925000D01*
X30699329Y-80925000D01*
X30632290Y-80905315D01*
X30605004Y-80880000D01*
X29830581Y-80880000D01*
X29882060Y-80824079D01*
X29928982Y-80717108D01*
X29938628Y-80600698D01*
X29909953Y-80487462D01*
X29846064Y-80389673D01*
X29833636Y-80380000D01*
X30603597Y-80380000D01*
X30568442Y-80257137D01*
X30474278Y-80076870D01*
X30345753Y-79919246D01*
X30188129Y-79790721D01*
X30007861Y-79696557D01*
X29812328Y-79640609D01*
X29812325Y-79640608D01*
X29693002Y-79630000D01*
X29335000Y-79630000D01*
X29335000Y-80280000D01*
X28835000Y-80280000D01*
X28835000Y-79630000D01*
X28476998Y-79630000D01*
X28357674Y-79640608D01*
X28357671Y-79640609D01*
X28162138Y-79696557D01*
X27981870Y-79790721D01*
X27824246Y-79919246D01*
X27695721Y-80076870D01*
X27601557Y-80257137D01*
X27566403Y-80380000D01*
X28339419Y-80380000D01*
X28287940Y-80435921D01*
X28241018Y-80542892D01*
X28231372Y-80659302D01*
X28260047Y-80772538D01*
X28323936Y-80870327D01*
X28336364Y-80880000D01*
X27566403Y-80880000D01*
X27601557Y-81002862D01*
X27695721Y-81183129D01*
X27824246Y-81340753D01*
X27981870Y-81469278D01*
X28020676Y-81489549D01*
X28070984Y-81538036D01*
X28087091Y-81606023D01*
X28063885Y-81671926D01*
X28058810Y-81678497D01*
X28022674Y-81722178D01*
X27955387Y-81865171D01*
X27955385Y-81865174D01*
X27938797Y-81952135D01*
X27925773Y-82020412D01*
X27925773Y-82020414D01*
X27925773Y-82020415D01*
X27935696Y-82178137D01*
X27935696Y-82178140D01*
X27971126Y-82287180D01*
X27984533Y-82328441D01*
X28069214Y-82461877D01*
X28093681Y-82484854D01*
X28110011Y-82500189D01*
X28145405Y-82560431D01*
X28142611Y-82630245D01*
X28112807Y-82678261D01*
X28058100Y-82732968D01*
X28055373Y-82735535D01*
X28010670Y-82775140D01*
X28010667Y-82775143D01*
X27976736Y-82824299D01*
X27974517Y-82827314D01*
X27937674Y-82874341D01*
X27933824Y-82882896D01*
X27922808Y-82902427D01*
X27917484Y-82910141D01*
X27917481Y-82910145D01*
X27896301Y-82965989D01*
X27894869Y-82969446D01*
X27870350Y-83023931D01*
X27868661Y-83033148D01*
X27862639Y-83054752D01*
X27859311Y-83063527D01*
X27852108Y-83122841D01*
X27851545Y-83126542D01*
X27840781Y-83185280D01*
X27840781Y-83185286D01*
X27844387Y-83244904D01*
X27844500Y-83248648D01*
X27844500Y-86651351D01*
X27844387Y-86655095D01*
X27840781Y-86714711D01*
X27840781Y-86714714D01*
X27851545Y-86773457D01*
X27852108Y-86777158D01*
X27859311Y-86836474D01*
X27862637Y-86845243D01*
X27868661Y-86866852D01*
X27870350Y-86876069D01*
X27894863Y-86930536D01*
X27896296Y-86933995D01*
X27917481Y-86989853D01*
X27917481Y-86989854D01*
X27922805Y-86997567D01*
X27933824Y-87017105D01*
X27937671Y-87025652D01*
X27937672Y-87025654D01*
X27937673Y-87025655D01*
X27937674Y-87025657D01*
X27960793Y-87055166D01*
X27974515Y-87072680D01*
X27976730Y-87075690D01*
X28010668Y-87124858D01*
X28055392Y-87164480D01*
X28058084Y-87167014D01*
X28084422Y-87193352D01*
X28110662Y-87219592D01*
X28144147Y-87280915D01*
X28139163Y-87350607D01*
X28118525Y-87386313D01*
X28022674Y-87502178D01*
X27955387Y-87645171D01*
X27955385Y-87645174D01*
X27938782Y-87732214D01*
X27925773Y-87800412D01*
X27925773Y-87800414D01*
X27925773Y-87800415D01*
X27932812Y-87912290D01*
X27935659Y-87957557D01*
X27935696Y-87958137D01*
X27935696Y-87958140D01*
X27949460Y-88000499D01*
X27984533Y-88108441D01*
X27984534Y-88108442D01*
X27984534Y-88108444D01*
X28065195Y-88235545D01*
X28084496Y-88302695D01*
X28064429Y-88369621D01*
X28017910Y-88411896D01*
X27981868Y-88430722D01*
X27824246Y-88559246D01*
X27695721Y-88716870D01*
X27601557Y-88897137D01*
X27566403Y-89020000D01*
X28339419Y-89020000D01*
X28287940Y-89075921D01*
X28241018Y-89182892D01*
X28231372Y-89299302D01*
X28260047Y-89412538D01*
X28323936Y-89510327D01*
X28336364Y-89520000D01*
X27566403Y-89520000D01*
X27601557Y-89642862D01*
X27695721Y-89823129D01*
X27824246Y-89980753D01*
X27981870Y-90109278D01*
X28162138Y-90203442D01*
X28357671Y-90259390D01*
X28357674Y-90259391D01*
X28476998Y-90270000D01*
X28835000Y-90270000D01*
X28835000Y-89620000D01*
X29335000Y-89620000D01*
X29335000Y-90270000D01*
X29693002Y-90270000D01*
X29812325Y-90259391D01*
X29812328Y-90259390D01*
X30007861Y-90203442D01*
X30188129Y-90109278D01*
X30345753Y-89980753D01*
X30474278Y-89823129D01*
X30568442Y-89642862D01*
X30603597Y-89520000D01*
X29830581Y-89520000D01*
X29882060Y-89464079D01*
X29928982Y-89357108D01*
X29938628Y-89240698D01*
X29909953Y-89127462D01*
X29846064Y-89029673D01*
X29833636Y-89020000D01*
X30606168Y-89020000D01*
X30656397Y-88982669D01*
X30699329Y-88975000D01*
X30772828Y-88975000D01*
X30772844Y-88974999D01*
X30832372Y-88968598D01*
X30832379Y-88968596D01*
X30967086Y-88918354D01*
X30967093Y-88918350D01*
X31082187Y-88832190D01*
X31082190Y-88832187D01*
X31168350Y-88717093D01*
X31168354Y-88717086D01*
X31218596Y-88582379D01*
X31218598Y-88582372D01*
X31224999Y-88522844D01*
X31225000Y-88522827D01*
X31225000Y-88425000D01*
X29874000Y-88425000D01*
X29806961Y-88405315D01*
X29761206Y-88352511D01*
X29750000Y-88301000D01*
X29750000Y-88299499D01*
X29769685Y-88232460D01*
X29822489Y-88186705D01*
X29873997Y-88175499D01*
X30772872Y-88175499D01*
X30832483Y-88169091D01*
X30967331Y-88118796D01*
X31082546Y-88032546D01*
X31125858Y-87974687D01*
X31181791Y-87932818D01*
X31224972Y-87925027D01*
X31225000Y-87925000D01*
X31225000Y-87827182D01*
X31224999Y-87827164D01*
X31221068Y-87790602D01*
X31221068Y-87764094D01*
X31225500Y-87722873D01*
X31225499Y-87449498D01*
X31245183Y-87382461D01*
X31297987Y-87336706D01*
X31349499Y-87325500D01*
X32167257Y-87325500D01*
X32182877Y-87327224D01*
X32182904Y-87326939D01*
X32190660Y-87327671D01*
X32190667Y-87327673D01*
X32259814Y-87325500D01*
X32289350Y-87325500D01*
X32296228Y-87324630D01*
X32302041Y-87324172D01*
X32348627Y-87322709D01*
X32367869Y-87317117D01*
X32386912Y-87313174D01*
X32406792Y-87310664D01*
X32450122Y-87293507D01*
X32455646Y-87291617D01*
X32457603Y-87291048D01*
X32500390Y-87278618D01*
X32517629Y-87268422D01*
X32535165Y-87259837D01*
X32536822Y-87259182D01*
X32582406Y-87250499D01*
X33297871Y-87250499D01*
X33297872Y-87250499D01*
X33357483Y-87244091D01*
X33358810Y-87243596D01*
X33492329Y-87193797D01*
X33492329Y-87193796D01*
X33492331Y-87193796D01*
X33526106Y-87168511D01*
X33591566Y-87144094D01*
X33659840Y-87158944D01*
X33674728Y-87168512D01*
X33707910Y-87193352D01*
X33707913Y-87193354D01*
X33842620Y-87243596D01*
X33842627Y-87243598D01*
X33902155Y-87249999D01*
X33902172Y-87250000D01*
X34347122Y-87250000D01*
X34414161Y-87269685D01*
X34459916Y-87322489D01*
X34469860Y-87391647D01*
X34440835Y-87455203D01*
X34434803Y-87461681D01*
X34283303Y-87613181D01*
X34221980Y-87646666D01*
X34195622Y-87649500D01*
X34063705Y-87649500D01*
X34045735Y-87648191D01*
X34021972Y-87644710D01*
X33976890Y-87648655D01*
X33969933Y-87649264D01*
X33964532Y-87649500D01*
X33956287Y-87649500D01*
X33930222Y-87652546D01*
X33923705Y-87653308D01*
X33918403Y-87653771D01*
X33847201Y-87660001D01*
X33840134Y-87661461D01*
X33840122Y-87661404D01*
X33832753Y-87663038D01*
X33832767Y-87663095D01*
X33825739Y-87664760D01*
X33770536Y-87684852D01*
X33753563Y-87691030D01*
X33680666Y-87715186D01*
X33680664Y-87715186D01*
X33680661Y-87715188D01*
X33674122Y-87718237D01*
X33674097Y-87718185D01*
X33667308Y-87721471D01*
X33667334Y-87721522D01*
X33660884Y-87724761D01*
X33596716Y-87766964D01*
X33531347Y-87807285D01*
X33525677Y-87811769D01*
X33525641Y-87811723D01*
X33519798Y-87816484D01*
X33519835Y-87816528D01*
X33514310Y-87821164D01*
X33514304Y-87821169D01*
X33514304Y-87821170D01*
X33474802Y-87863039D01*
X33461614Y-87877017D01*
X33064358Y-88274272D01*
X33050729Y-88286051D01*
X33031468Y-88300390D01*
X32997898Y-88340397D01*
X32994253Y-88344376D01*
X32988409Y-88350222D01*
X32968059Y-88375959D01*
X32918695Y-88434789D01*
X32914729Y-88440819D01*
X32914682Y-88440788D01*
X32910630Y-88447147D01*
X32910679Y-88447177D01*
X32906889Y-88453321D01*
X32874424Y-88522941D01*
X32839960Y-88591566D01*
X32837488Y-88598357D01*
X32837432Y-88598336D01*
X32834960Y-88605450D01*
X32835015Y-88605469D01*
X32832742Y-88612327D01*
X32824974Y-88649945D01*
X32817207Y-88687565D01*
X32810262Y-88716870D01*
X32799498Y-88762286D01*
X32798661Y-88769454D01*
X32798601Y-88769447D01*
X32797835Y-88776946D01*
X32797895Y-88776952D01*
X32797265Y-88784141D01*
X32799499Y-88860916D01*
X32799499Y-89045622D01*
X32779814Y-89112661D01*
X32763180Y-89133303D01*
X30460159Y-91436323D01*
X30446530Y-91448102D01*
X30427269Y-91462441D01*
X30393699Y-91502448D01*
X30390054Y-91506427D01*
X30384210Y-91512273D01*
X30363860Y-91538010D01*
X30314496Y-91596840D01*
X30310530Y-91602870D01*
X30310483Y-91602839D01*
X30306431Y-91609198D01*
X30306480Y-91609228D01*
X30302690Y-91615372D01*
X30270225Y-91684992D01*
X30235761Y-91753617D01*
X30233289Y-91760408D01*
X30233233Y-91760387D01*
X30230761Y-91767501D01*
X30230816Y-91767520D01*
X30228543Y-91774378D01*
X30222943Y-91801501D01*
X30213008Y-91849616D01*
X30201571Y-91897876D01*
X30195299Y-91924337D01*
X30194462Y-91931505D01*
X30194402Y-91931498D01*
X30193636Y-91938997D01*
X30193696Y-91939003D01*
X30193066Y-91946192D01*
X30195300Y-92022967D01*
X30195300Y-93178243D01*
X30193992Y-93196208D01*
X30190511Y-93219975D01*
X30195065Y-93272013D01*
X30195301Y-93277419D01*
X30195301Y-93285658D01*
X30199107Y-93318223D01*
X30205801Y-93394740D01*
X30207262Y-93401816D01*
X30207204Y-93401827D01*
X30208835Y-93409186D01*
X30208893Y-93409173D01*
X30210558Y-93416199D01*
X30236826Y-93488373D01*
X30260986Y-93561280D01*
X30264037Y-93567823D01*
X30263983Y-93567847D01*
X30267271Y-93574637D01*
X30267322Y-93574612D01*
X30270562Y-93581062D01*
X30270563Y-93581063D01*
X30270564Y-93581066D01*
X30302247Y-93629238D01*
X30312766Y-93645232D01*
X30353088Y-93710604D01*
X30357567Y-93716268D01*
X30357520Y-93716305D01*
X30362283Y-93722151D01*
X30362329Y-93722113D01*
X30366974Y-93727649D01*
X30422821Y-93780337D01*
X30780119Y-94137635D01*
X30791899Y-94151266D01*
X30806238Y-94170526D01*
X30806240Y-94170528D01*
X30806241Y-94170529D01*
X30806242Y-94170530D01*
X30846274Y-94204122D01*
X30850247Y-94207763D01*
X30858631Y-94216147D01*
X30857387Y-94217390D01*
X30890710Y-94270712D01*
X30895301Y-94304140D01*
X30895301Y-95052001D01*
X30895302Y-95052019D01*
X30905801Y-95154796D01*
X30905802Y-95154799D01*
X30949741Y-95287397D01*
X30960987Y-95321334D01*
X31053089Y-95470656D01*
X31177145Y-95594712D01*
X31326467Y-95686814D01*
X31493004Y-95741999D01*
X31595792Y-95752500D01*
X32595809Y-95752499D01*
X32595817Y-95752498D01*
X32595820Y-95752498D01*
X32652103Y-95746748D01*
X32698598Y-95741999D01*
X32865135Y-95686814D01*
X33014457Y-95594712D01*
X33120877Y-95488291D01*
X33182196Y-95454809D01*
X33251888Y-95459793D01*
X33287594Y-95480430D01*
X33314682Y-95502839D01*
X33315709Y-95503688D01*
X33320021Y-95507611D01*
X35817636Y-98005227D01*
X36596197Y-98783788D01*
X36606022Y-98796051D01*
X36606243Y-98795869D01*
X36611214Y-98801878D01*
X36631907Y-98821309D01*
X36661635Y-98849226D01*
X36682529Y-98870120D01*
X36688011Y-98874373D01*
X36692443Y-98878157D01*
X36726418Y-98910062D01*
X36743976Y-98919714D01*
X36760233Y-98930393D01*
X36776064Y-98942673D01*
X36795737Y-98951186D01*
X36818833Y-98961182D01*
X36824077Y-98963750D01*
X36864908Y-98986197D01*
X36877523Y-98989435D01*
X36884305Y-98991177D01*
X36902719Y-98997481D01*
X36921104Y-99005438D01*
X36967157Y-99012732D01*
X36972826Y-99013906D01*
X37017981Y-99025500D01*
X37038016Y-99025500D01*
X37057413Y-99027026D01*
X37077196Y-99030160D01*
X37123583Y-99025775D01*
X37129422Y-99025500D01*
X37296252Y-99025500D01*
X37363291Y-99045185D01*
X37388400Y-99066526D01*
X37394126Y-99072885D01*
X37394130Y-99072889D01*
X37547265Y-99184148D01*
X37547270Y-99184151D01*
X37720192Y-99261142D01*
X37720197Y-99261144D01*
X37905354Y-99300500D01*
X37905355Y-99300500D01*
X38094644Y-99300500D01*
X38094646Y-99300500D01*
X38279803Y-99261144D01*
X38452730Y-99184151D01*
X38605871Y-99072888D01*
X38732533Y-98932216D01*
X38827179Y-98768284D01*
X38885674Y-98588256D01*
X38905460Y-98400000D01*
X38885674Y-98211744D01*
X38827179Y-98031716D01*
X38732533Y-97867784D01*
X38605871Y-97727112D01*
X38601987Y-97724290D01*
X38452734Y-97615851D01*
X38452729Y-97615848D01*
X38279807Y-97538857D01*
X38279802Y-97538855D01*
X38134001Y-97507865D01*
X38094646Y-97499500D01*
X37905354Y-97499500D01*
X37872897Y-97506398D01*
X37720197Y-97538855D01*
X37720192Y-97538857D01*
X37547271Y-97615848D01*
X37430329Y-97700811D01*
X37364522Y-97724290D01*
X37296469Y-97708464D01*
X37269763Y-97688173D01*
X35087072Y-95505481D01*
X35053587Y-95444158D01*
X35058571Y-95374466D01*
X35100443Y-95318533D01*
X35165907Y-95294116D01*
X35174753Y-95293800D01*
X35653800Y-95293800D01*
X35653800Y-91906200D01*
X35055855Y-91906200D01*
X34996327Y-91912601D01*
X34996320Y-91912603D01*
X34857460Y-91964395D01*
X34811993Y-91971350D01*
X34811993Y-91972099D01*
X34465866Y-91972099D01*
X34454987Y-91971070D01*
X34454975Y-91971262D01*
X34447188Y-91970772D01*
X34447186Y-91970772D01*
X34428022Y-91971977D01*
X34424131Y-91972099D01*
X34006529Y-91972099D01*
X34006523Y-91972100D01*
X33946916Y-91978507D01*
X33812065Y-92028804D01*
X33807356Y-92031375D01*
X33739082Y-92046222D01*
X33673619Y-92021801D01*
X33668230Y-92017528D01*
X33642214Y-91995698D01*
X33636180Y-91991729D01*
X33636212Y-91991680D01*
X33629853Y-91987628D01*
X33629822Y-91987679D01*
X33623680Y-91983891D01*
X33623678Y-91983890D01*
X33623677Y-91983889D01*
X33581873Y-91964395D01*
X33554058Y-91951424D01*
X33514381Y-91931498D01*
X33485433Y-91916960D01*
X33485431Y-91916959D01*
X33485430Y-91916959D01*
X33478645Y-91914489D01*
X33478665Y-91914433D01*
X33471549Y-91911959D01*
X33471531Y-91912015D01*
X33464671Y-91909742D01*
X33436841Y-91903996D01*
X33389434Y-91894207D01*
X33340472Y-91882603D01*
X33314719Y-91876499D01*
X33307547Y-91875661D01*
X33307553Y-91875601D01*
X33300055Y-91874835D01*
X33300050Y-91874895D01*
X33292859Y-91874265D01*
X33235861Y-91875924D01*
X33168277Y-91858197D01*
X33144662Y-91837408D01*
X33143620Y-91838451D01*
X33014458Y-91709289D01*
X33014457Y-91709288D01*
X32865135Y-91617186D01*
X32708122Y-91565157D01*
X32650679Y-91525385D01*
X32623856Y-91460870D01*
X32636171Y-91392094D01*
X32659444Y-91359774D01*
X34035638Y-89983579D01*
X34049267Y-89971802D01*
X34068530Y-89957462D01*
X34068532Y-89957458D01*
X34068534Y-89957458D01*
X34093779Y-89927371D01*
X34102113Y-89917437D01*
X34105767Y-89913451D01*
X34111591Y-89907628D01*
X34131930Y-89881904D01*
X34181302Y-89823066D01*
X34181306Y-89823057D01*
X34185274Y-89817027D01*
X34185325Y-89817060D01*
X34189369Y-89810712D01*
X34189317Y-89810680D01*
X34193104Y-89804537D01*
X34193111Y-89804529D01*
X34225572Y-89734915D01*
X34260040Y-89666285D01*
X34260041Y-89666279D01*
X34262508Y-89659502D01*
X34262566Y-89659523D01*
X34265043Y-89652396D01*
X34264986Y-89652378D01*
X34267255Y-89645531D01*
X34267256Y-89645526D01*
X34267257Y-89645524D01*
X34282790Y-89570293D01*
X34300500Y-89495573D01*
X34300500Y-89495571D01*
X34301339Y-89488400D01*
X34301398Y-89488406D01*
X34302164Y-89480906D01*
X34302105Y-89480901D01*
X34302734Y-89473711D01*
X34300500Y-89396934D01*
X34300500Y-89274500D01*
X34320185Y-89207461D01*
X34372989Y-89161706D01*
X34424500Y-89150500D01*
X34494147Y-89150500D01*
X34512117Y-89151809D01*
X34535875Y-89155289D01*
X34587920Y-89150735D01*
X34593322Y-89150500D01*
X34601556Y-89150500D01*
X34601561Y-89150500D01*
X34613179Y-89149141D01*
X34634128Y-89146693D01*
X34646880Y-89145577D01*
X34710649Y-89139999D01*
X34710657Y-89139996D01*
X34717718Y-89138539D01*
X34717730Y-89138598D01*
X34725095Y-89136965D01*
X34725081Y-89136906D01*
X34732098Y-89135241D01*
X34732107Y-89135241D01*
X34804275Y-89108974D01*
X34877186Y-89084814D01*
X34877195Y-89084807D01*
X34883734Y-89081760D01*
X34883760Y-89081816D01*
X34890542Y-89078532D01*
X34890515Y-89078478D01*
X34896958Y-89075240D01*
X34896969Y-89075237D01*
X34961135Y-89033034D01*
X35026508Y-88992712D01*
X35026514Y-88992705D01*
X35032177Y-88988229D01*
X35032214Y-88988277D01*
X35038056Y-88983518D01*
X35038016Y-88983471D01*
X35043538Y-88978836D01*
X35043548Y-88978830D01*
X35065250Y-88955825D01*
X35096238Y-88922982D01*
X35437819Y-88581400D01*
X35499142Y-88547915D01*
X35568833Y-88552899D01*
X35624767Y-88594770D01*
X35649184Y-88660235D01*
X35649500Y-88669081D01*
X35649500Y-89857710D01*
X35660026Y-89945368D01*
X35660027Y-89945369D01*
X35715038Y-90084869D01*
X35715039Y-90084871D01*
X35733548Y-90109278D01*
X35805647Y-90204353D01*
X35888427Y-90267128D01*
X35918293Y-90289777D01*
X35925131Y-90294962D01*
X36064631Y-90349973D01*
X36152289Y-90360500D01*
X36152290Y-90360500D01*
X36747711Y-90360500D01*
X36814576Y-90352470D01*
X36835369Y-90349973D01*
X36974869Y-90294962D01*
X37094353Y-90204353D01*
X37184962Y-90084869D01*
X37239973Y-89945369D01*
X37250500Y-89857710D01*
X37250500Y-88814500D01*
X37270185Y-88747461D01*
X37322989Y-88701706D01*
X37374500Y-88690500D01*
X37425500Y-88690500D01*
X37492539Y-88710185D01*
X37538294Y-88762989D01*
X37549500Y-88814500D01*
X37549500Y-89857710D01*
X37560026Y-89945368D01*
X37560027Y-89945369D01*
X37615038Y-90084869D01*
X37615039Y-90084871D01*
X37633548Y-90109278D01*
X37705647Y-90204353D01*
X37788427Y-90267128D01*
X37818293Y-90289777D01*
X37825131Y-90294962D01*
X37964631Y-90349973D01*
X38052289Y-90360500D01*
X38052290Y-90360500D01*
X38247770Y-90360500D01*
X38314809Y-90380185D01*
X38335451Y-90396819D01*
X39528451Y-91589819D01*
X39561936Y-91651142D01*
X39556952Y-91720834D01*
X39515080Y-91776767D01*
X39449616Y-91801184D01*
X39440770Y-91801500D01*
X38697930Y-91801500D01*
X38697924Y-91801501D01*
X38638317Y-91807908D01*
X38503472Y-91858202D01*
X38503465Y-91858206D01*
X38388258Y-91944451D01*
X38388252Y-91944457D01*
X38345316Y-92001812D01*
X38289382Y-92043682D01*
X38246050Y-92051500D01*
X38067121Y-92051500D01*
X38003444Y-92032802D01*
X38003309Y-92033051D01*
X38002166Y-92032427D01*
X38000082Y-92031815D01*
X37996528Y-92029347D01*
X37995527Y-92028801D01*
X37860682Y-91978507D01*
X37860683Y-91978507D01*
X37801083Y-91972100D01*
X37801081Y-91972099D01*
X37801073Y-91972099D01*
X37801064Y-91972099D01*
X36995608Y-91972100D01*
X36995608Y-91971351D01*
X36950140Y-91964396D01*
X36811276Y-91912602D01*
X36811272Y-91912601D01*
X36751744Y-91906200D01*
X36153800Y-91906200D01*
X36153800Y-93350000D01*
X36472251Y-93350000D01*
X36539290Y-93369685D01*
X36585045Y-93422489D01*
X36588433Y-93430666D01*
X36603003Y-93469731D01*
X36603004Y-93469732D01*
X36644893Y-93525689D01*
X36669310Y-93591154D01*
X36654458Y-93659427D01*
X36644893Y-93674311D01*
X36603004Y-93730267D01*
X36603003Y-93730268D01*
X36588433Y-93769334D01*
X36546561Y-93825267D01*
X36481097Y-93849684D01*
X36472251Y-93850000D01*
X36153800Y-93850000D01*
X36153800Y-95293800D01*
X36751728Y-95293800D01*
X36751744Y-95293799D01*
X36811272Y-95287398D01*
X36811276Y-95287397D01*
X36950138Y-95235604D01*
X36995606Y-95228657D01*
X36995606Y-95227901D01*
X36998926Y-95227900D01*
X36998927Y-95227901D01*
X37091947Y-95227900D01*
X37158985Y-95247584D01*
X37179627Y-95264218D01*
X37449965Y-95534557D01*
X37699196Y-95783788D01*
X37709021Y-95796051D01*
X37709242Y-95795869D01*
X37714213Y-95801878D01*
X37735043Y-95821438D01*
X37764634Y-95849226D01*
X37785528Y-95870120D01*
X37791010Y-95874373D01*
X37795442Y-95878157D01*
X37829417Y-95910062D01*
X37846975Y-95919714D01*
X37863234Y-95930395D01*
X37879063Y-95942673D01*
X37921837Y-95961182D01*
X37927055Y-95963738D01*
X37967907Y-95986197D01*
X37987315Y-95991180D01*
X38005716Y-95997480D01*
X38024103Y-96005437D01*
X38067487Y-96012308D01*
X38070118Y-96012725D01*
X38075838Y-96013909D01*
X38120980Y-96025500D01*
X38141015Y-96025500D01*
X38160413Y-96027026D01*
X38180193Y-96030159D01*
X38180194Y-96030160D01*
X38180194Y-96030159D01*
X38180195Y-96030160D01*
X38226582Y-96025775D01*
X38232421Y-96025500D01*
X39995058Y-96025500D01*
X40010678Y-96027224D01*
X40010705Y-96026939D01*
X40018461Y-96027671D01*
X40018468Y-96027673D01*
X40087615Y-96025500D01*
X40117151Y-96025500D01*
X40124029Y-96024630D01*
X40129842Y-96024172D01*
X40176428Y-96022709D01*
X40195670Y-96017117D01*
X40214713Y-96013174D01*
X40234593Y-96010664D01*
X40277923Y-95993507D01*
X40283447Y-95991617D01*
X40287197Y-95990527D01*
X40328191Y-95978618D01*
X40345430Y-95968422D01*
X40362904Y-95959862D01*
X40381528Y-95952488D01*
X40381528Y-95952487D01*
X40381533Y-95952486D01*
X40419250Y-95925082D01*
X40424106Y-95921892D01*
X40464221Y-95898170D01*
X40478387Y-95884003D01*
X40493182Y-95871368D01*
X40509385Y-95859596D01*
X40509384Y-95859596D01*
X40509388Y-95859594D01*
X40539100Y-95823676D01*
X40543012Y-95819378D01*
X40783785Y-95578604D01*
X40796046Y-95568784D01*
X40795862Y-95568562D01*
X40801870Y-95563590D01*
X40801877Y-95563587D01*
X40822977Y-95541117D01*
X40883217Y-95505722D01*
X40913370Y-95502000D01*
X41245801Y-95502000D01*
X41245801Y-94376000D01*
X41265486Y-94308961D01*
X41318290Y-94263206D01*
X41369801Y-94252000D01*
X41621801Y-94252000D01*
X41688840Y-94271685D01*
X41734595Y-94324489D01*
X41745801Y-94376000D01*
X41745801Y-95502000D01*
X42093629Y-95502000D01*
X42093645Y-95501999D01*
X42153173Y-95495598D01*
X42153180Y-95495596D01*
X42287887Y-95445354D01*
X42287894Y-95445350D01*
X42402988Y-95359190D01*
X42402991Y-95359187D01*
X42494470Y-95236989D01*
X42496529Y-95238530D01*
X42536371Y-95198687D01*
X42604644Y-95183834D01*
X42670109Y-95208249D01*
X42695846Y-95237951D01*
X42697132Y-95236989D01*
X42788610Y-95359187D01*
X42788613Y-95359190D01*
X42903707Y-95445350D01*
X42903714Y-95445354D01*
X43038421Y-95495596D01*
X43038428Y-95495598D01*
X43097956Y-95501999D01*
X43097973Y-95502000D01*
X43445801Y-95502000D01*
X43445801Y-94376000D01*
X43465486Y-94308961D01*
X43518290Y-94263206D01*
X43569801Y-94252000D01*
X43821801Y-94252000D01*
X43888840Y-94271685D01*
X43934595Y-94324489D01*
X43945801Y-94376000D01*
X43945801Y-95502000D01*
X44293629Y-95502000D01*
X44293645Y-95501999D01*
X44353173Y-95495598D01*
X44353180Y-95495596D01*
X44487887Y-95445354D01*
X44487894Y-95445350D01*
X44602988Y-95359190D01*
X44602991Y-95359187D01*
X44694470Y-95236989D01*
X44696529Y-95238530D01*
X44736371Y-95198687D01*
X44804644Y-95183834D01*
X44870109Y-95208249D01*
X44895846Y-95237951D01*
X44897132Y-95236989D01*
X44988610Y-95359187D01*
X44988613Y-95359190D01*
X45103707Y-95445350D01*
X45103714Y-95445354D01*
X45238421Y-95495596D01*
X45238428Y-95495598D01*
X45297956Y-95501999D01*
X45297973Y-95502000D01*
X45645801Y-95502000D01*
X45645801Y-94376000D01*
X45665486Y-94308961D01*
X45718290Y-94263206D01*
X45769801Y-94252000D01*
X46011301Y-94252000D01*
X46078340Y-94271685D01*
X46124095Y-94324489D01*
X46135301Y-94376000D01*
X46135301Y-96470018D01*
X46115616Y-96537057D01*
X46098982Y-96557699D01*
X39301532Y-103355148D01*
X39236946Y-103416544D01*
X39201899Y-103466896D01*
X39199062Y-103470658D01*
X39160302Y-103518194D01*
X39160299Y-103518199D01*
X39144392Y-103548649D01*
X39140324Y-103555363D01*
X39120702Y-103583556D01*
X39096509Y-103639932D01*
X39094488Y-103644186D01*
X39066091Y-103698553D01*
X39066090Y-103698554D01*
X39056640Y-103731577D01*
X39054007Y-103738973D01*
X39040459Y-103770545D01*
X39028113Y-103830621D01*
X39026990Y-103835197D01*
X39010113Y-103894179D01*
X39010113Y-103894181D01*
X39007503Y-103928443D01*
X39006414Y-103936210D01*
X39000980Y-103962654D01*
X38999500Y-103969860D01*
X38999500Y-104031199D01*
X38999321Y-104035908D01*
X38994662Y-104097076D01*
X38996707Y-104113129D01*
X38999003Y-104131162D01*
X38999500Y-104138990D01*
X38999500Y-126534217D01*
X38979815Y-126601256D01*
X38963181Y-126621898D01*
X38731899Y-126853181D01*
X38670576Y-126886666D01*
X38644218Y-126889500D01*
X37080862Y-126889500D01*
X37014453Y-126870000D01*
X32544000Y-126870000D01*
X32476961Y-126850315D01*
X32431206Y-126797511D01*
X32420000Y-126746000D01*
X32420000Y-126494000D01*
X32439685Y-126426961D01*
X32492489Y-126381206D01*
X32544000Y-126370000D01*
X37010000Y-126370000D01*
X37010000Y-126202172D01*
X37009999Y-126202155D01*
X37003598Y-126142627D01*
X37003597Y-126142623D01*
X36961236Y-126029049D01*
X36956252Y-125959357D01*
X36961232Y-125942391D01*
X37004091Y-125827483D01*
X37010500Y-125767873D01*
X37010499Y-124932128D01*
X37004091Y-124872517D01*
X36961503Y-124758332D01*
X36956519Y-124688640D01*
X36961499Y-124671676D01*
X37004091Y-124557483D01*
X37010500Y-124497873D01*
X37010499Y-123662128D01*
X37004091Y-123602517D01*
X36961503Y-123488332D01*
X36956519Y-123418640D01*
X36961499Y-123401676D01*
X37004091Y-123287483D01*
X37010500Y-123227873D01*
X37010499Y-122392128D01*
X37004091Y-122332517D01*
X37001658Y-122325995D01*
X36953797Y-122197671D01*
X36953793Y-122197664D01*
X36867547Y-122082455D01*
X36867544Y-122082452D01*
X36752335Y-121996206D01*
X36752328Y-121996202D01*
X36617482Y-121945908D01*
X36617483Y-121945908D01*
X36557883Y-121939501D01*
X36557881Y-121939500D01*
X36557873Y-121939500D01*
X36557864Y-121939500D01*
X34242129Y-121939500D01*
X34242123Y-121939501D01*
X34182514Y-121945909D01*
X34078331Y-121984766D01*
X34008639Y-121989750D01*
X33991666Y-121984766D01*
X33887482Y-121945908D01*
X33887483Y-121945908D01*
X33827883Y-121939501D01*
X33827881Y-121939500D01*
X33827873Y-121939500D01*
X33827864Y-121939500D01*
X31512129Y-121939500D01*
X31512123Y-121939501D01*
X31452516Y-121945908D01*
X31317671Y-121996202D01*
X31317664Y-121996206D01*
X31202457Y-122082451D01*
X31202450Y-122082457D01*
X31164963Y-122132534D01*
X31109029Y-122174404D01*
X31069593Y-122182161D01*
X30995172Y-122184500D01*
X30965649Y-122184500D01*
X30958778Y-122185367D01*
X30952959Y-122185825D01*
X30906374Y-122187289D01*
X30906368Y-122187290D01*
X30887126Y-122192880D01*
X30868087Y-122196823D01*
X30848217Y-122199334D01*
X30848203Y-122199337D01*
X30804883Y-122216488D01*
X30799358Y-122218380D01*
X30754613Y-122231380D01*
X30754610Y-122231381D01*
X30737366Y-122241579D01*
X30719905Y-122250133D01*
X30701274Y-122257510D01*
X30701262Y-122257517D01*
X30663570Y-122284902D01*
X30658687Y-122288109D01*
X30618580Y-122311829D01*
X30604414Y-122325995D01*
X30589604Y-122338642D01*
X30587368Y-122340266D01*
X30521558Y-122363735D01*
X30453507Y-122347899D01*
X30404820Y-122297785D01*
X30390499Y-122239936D01*
X30390499Y-121939500D01*
X30390499Y-114675779D01*
X30410184Y-114608744D01*
X30426813Y-114588107D01*
X33878102Y-111136819D01*
X33939425Y-111103334D01*
X33965783Y-111100500D01*
X34046522Y-111100500D01*
X34054620Y-111101030D01*
X34089950Y-111105682D01*
X34089951Y-111105682D01*
X34142203Y-111098802D01*
X34246712Y-111085044D01*
X34392791Y-111024536D01*
X34392790Y-111024535D01*
X34411731Y-111016690D01*
X34416067Y-111008401D01*
X34429809Y-110996129D01*
X34518232Y-110928282D01*
X34539933Y-110899999D01*
X34545261Y-110893922D01*
X34893922Y-110545261D01*
X34899999Y-110539933D01*
X34928282Y-110518232D01*
X35024536Y-110392791D01*
X35085044Y-110246712D01*
X35100500Y-110129311D01*
X35105682Y-110089950D01*
X35101030Y-110054619D01*
X35100500Y-110046521D01*
X35100500Y-108463978D01*
X35101031Y-108455876D01*
X35105682Y-108420549D01*
X35105682Y-108420548D01*
X35085044Y-108263789D01*
X35085042Y-108263784D01*
X35073879Y-108236835D01*
X35042206Y-108160367D01*
X35024538Y-108117713D01*
X35024538Y-108117712D01*
X35024536Y-108117709D01*
X34952450Y-108023765D01*
X34939746Y-108007209D01*
X34928283Y-107992268D01*
X34900009Y-107970573D01*
X34893912Y-107965227D01*
X34434770Y-107506085D01*
X34429429Y-107499994D01*
X34407732Y-107471718D01*
X34282291Y-107375464D01*
X34136212Y-107314956D01*
X34136210Y-107314955D01*
X34018811Y-107299500D01*
X33979450Y-107294318D01*
X33944120Y-107298969D01*
X33936022Y-107299500D01*
X33442978Y-107299500D01*
X33434879Y-107298969D01*
X33399550Y-107294318D01*
X33360189Y-107299500D01*
X33242789Y-107314955D01*
X33242787Y-107314956D01*
X33096707Y-107375464D01*
X32971269Y-107471716D01*
X32949569Y-107499994D01*
X32944218Y-107506096D01*
X32595596Y-107854718D01*
X32589494Y-107860069D01*
X32561216Y-107881768D01*
X32516374Y-107940210D01*
X32464963Y-108007209D01*
X32401524Y-108160367D01*
X32357683Y-108214770D01*
X32291389Y-108236835D01*
X32286963Y-108236914D01*
X32219484Y-108236914D01*
X32187027Y-108243812D01*
X32034327Y-108276269D01*
X32034322Y-108276271D01*
X31861400Y-108353262D01*
X31861395Y-108353265D01*
X31708259Y-108464525D01*
X31581596Y-108605199D01*
X31486951Y-108769129D01*
X31486948Y-108769136D01*
X31428457Y-108949154D01*
X31428456Y-108949158D01*
X31408670Y-109137414D01*
X31428456Y-109325670D01*
X31428457Y-109325673D01*
X31486948Y-109505691D01*
X31486951Y-109505698D01*
X31581596Y-109669629D01*
X31664438Y-109761635D01*
X31694668Y-109824627D01*
X31686042Y-109893962D01*
X31659969Y-109932288D01*
X29647590Y-111944668D01*
X29641487Y-111950020D01*
X29613213Y-111971716D01*
X29589044Y-112003215D01*
X29516955Y-112097162D01*
X29516955Y-112097163D01*
X29456451Y-112243234D01*
X29456449Y-112243239D01*
X29435812Y-112399998D01*
X29435812Y-112399999D01*
X29440463Y-112435326D01*
X29440994Y-112443428D01*
X29440994Y-112706864D01*
X29421309Y-112773903D01*
X29404675Y-112794545D01*
X28606096Y-113593124D01*
X28599994Y-113598475D01*
X28571718Y-113620173D01*
X28571717Y-113620174D01*
X28466984Y-113756662D01*
X28464398Y-113772328D01*
X28414957Y-113891690D01*
X28414955Y-113891695D01*
X28394318Y-114048454D01*
X28398968Y-114083784D01*
X28399499Y-114091884D01*
X28399499Y-130756570D01*
X28398968Y-130764669D01*
X28394318Y-130799999D01*
X28399500Y-130839359D01*
X28414955Y-130956759D01*
X28414956Y-130956761D01*
X28475464Y-131102840D01*
X28571718Y-131228281D01*
X28599995Y-131249979D01*
X28606085Y-131255319D01*
X29944676Y-132593910D01*
X29950022Y-132600007D01*
X29971719Y-132628283D01*
X30097157Y-132724535D01*
X30097158Y-132724535D01*
X30097159Y-132724536D01*
X30185044Y-132760939D01*
X30239447Y-132804780D01*
X30261512Y-132871074D01*
X30244233Y-132938773D01*
X30193096Y-132986384D01*
X30137591Y-132999500D01*
X28124500Y-132999500D01*
X28057461Y-132979815D01*
X28011706Y-132927011D01*
X28000500Y-132875500D01*
X28000500Y-91267095D01*
X28005073Y-91251520D01*
X28000799Y-91208120D01*
X28000500Y-91202040D01*
X28000500Y-91112472D01*
X28000500Y-91112468D01*
X27989371Y-91049352D01*
X27990687Y-91037552D01*
X27983657Y-91014379D01*
X27981928Y-91007140D01*
X27970101Y-90940062D01*
X27956733Y-90903334D01*
X27941836Y-90862407D01*
X27941007Y-90849359D01*
X27932874Y-90834143D01*
X27925709Y-90818098D01*
X27919892Y-90802116D01*
X27910225Y-90775555D01*
X27910222Y-90775551D01*
X27910221Y-90775547D01*
X27861421Y-90691025D01*
X27857942Y-90676688D01*
X27848206Y-90664824D01*
X27836675Y-90648163D01*
X27822692Y-90623945D01*
X27819586Y-90619509D01*
X27819961Y-90619245D01*
X27810627Y-90605438D01*
X27808745Y-90601918D01*
X27790297Y-90585337D01*
X27751085Y-90538606D01*
X27744513Y-90523590D01*
X27734070Y-90515020D01*
X27717744Y-90498872D01*
X27710163Y-90489837D01*
X27701126Y-90482254D01*
X27684977Y-90465928D01*
X27680853Y-90460903D01*
X27661393Y-90448914D01*
X27614661Y-90409702D01*
X27604762Y-90394824D01*
X27594560Y-90389371D01*
X27580754Y-90380038D01*
X27580491Y-90380414D01*
X27576057Y-90377310D01*
X27576055Y-90377308D01*
X27551839Y-90363326D01*
X27535173Y-90351792D01*
X27528232Y-90346096D01*
X27508974Y-90338578D01*
X27424449Y-90289777D01*
X27424448Y-90289776D01*
X27416230Y-90286785D01*
X27381900Y-90274289D01*
X27365862Y-90267128D01*
X27355669Y-90261679D01*
X27337592Y-90258162D01*
X27259940Y-90229899D01*
X27192866Y-90218072D01*
X27185629Y-90216343D01*
X27167463Y-90210832D01*
X27150646Y-90210628D01*
X27087536Y-90199500D01*
X27087532Y-90199500D01*
X27000099Y-90199500D01*
X26997968Y-90199500D01*
X26991888Y-90199201D01*
X26955701Y-90195637D01*
X26932903Y-90199500D01*
X25995776Y-90199500D01*
X25928737Y-90179815D01*
X25882982Y-90127011D01*
X25873038Y-90057853D01*
X25902063Y-89994297D01*
X25911370Y-89985263D01*
X25911307Y-89985200D01*
X25915749Y-89980757D01*
X26044278Y-89823129D01*
X26138442Y-89642862D01*
X26173597Y-89520000D01*
X25450581Y-89520000D01*
X25502060Y-89464079D01*
X25548982Y-89357108D01*
X25558628Y-89240698D01*
X25529953Y-89127462D01*
X25466064Y-89029673D01*
X25453636Y-89020000D01*
X26173597Y-89020000D01*
X26138442Y-88897137D01*
X26044278Y-88716870D01*
X25915753Y-88559246D01*
X25758129Y-88430721D01*
X25577861Y-88336557D01*
X25382328Y-88280609D01*
X25382325Y-88280608D01*
X25263002Y-88270000D01*
X25155000Y-88270000D01*
X25155000Y-88920000D01*
X24655000Y-88920000D01*
X24655000Y-88270000D01*
X24546998Y-88270000D01*
X24427674Y-88280608D01*
X24427671Y-88280609D01*
X24232138Y-88336557D01*
X24051870Y-88430721D01*
X24002861Y-88470683D01*
X23938465Y-88497792D01*
X23869635Y-88485783D01*
X23818224Y-88438467D01*
X23800500Y-88374581D01*
X23800500Y-81525418D01*
X23820185Y-81458379D01*
X23872989Y-81412624D01*
X23942147Y-81402680D01*
X24002862Y-81429317D01*
X24051869Y-81469278D01*
X24232138Y-81563442D01*
X24427671Y-81619390D01*
X24427674Y-81619391D01*
X24546998Y-81630000D01*
X24655000Y-81630000D01*
X24655000Y-80980000D01*
X25155000Y-80980000D01*
X25155000Y-81630000D01*
X25263002Y-81630000D01*
X25382325Y-81619391D01*
X25382328Y-81619390D01*
X25577861Y-81563442D01*
X25758129Y-81469278D01*
X25915753Y-81340753D01*
X26044278Y-81183129D01*
X26138442Y-81002862D01*
X26173597Y-80880000D01*
X25450581Y-80880000D01*
X25502060Y-80824079D01*
X25548982Y-80717108D01*
X25558628Y-80600698D01*
X25529953Y-80487462D01*
X25466064Y-80389673D01*
X25453636Y-80380000D01*
X26173597Y-80380000D01*
X26138442Y-80257137D01*
X26044278Y-80076870D01*
X25983932Y-80002861D01*
X25956823Y-79938465D01*
X25968832Y-79869635D01*
X26016147Y-79818224D01*
X26080034Y-79800500D01*
X26932903Y-79800500D01*
X26948477Y-79805073D01*
X26991878Y-79800799D01*
X26997958Y-79800500D01*
X27087528Y-79800500D01*
X27087532Y-79800500D01*
X27150646Y-79789371D01*
X27162445Y-79790687D01*
X27185617Y-79783658D01*
X27192843Y-79781931D01*
X27259938Y-79770101D01*
X27259943Y-79770099D01*
X27259944Y-79770099D01*
X27309225Y-79752162D01*
X27337589Y-79741837D01*
X27350637Y-79741008D01*
X27365852Y-79732876D01*
X27381893Y-79725712D01*
X27424445Y-79710225D01*
X27508973Y-79661421D01*
X27523309Y-79657943D01*
X27535172Y-79648208D01*
X27551825Y-79636681D01*
X27576055Y-79622692D01*
X27576060Y-79622687D01*
X27580491Y-79619586D01*
X27580755Y-79619964D01*
X27594566Y-79610623D01*
X27598087Y-79608740D01*
X27614657Y-79590300D01*
X27661395Y-79551083D01*
X27676406Y-79544514D01*
X27684975Y-79534073D01*
X27701126Y-79517745D01*
X27710163Y-79510163D01*
X27717745Y-79501126D01*
X27734073Y-79484975D01*
X27739100Y-79480849D01*
X27751081Y-79461398D01*
X27790298Y-79414660D01*
X27805171Y-79404765D01*
X27810623Y-79394566D01*
X27819964Y-79380755D01*
X27819586Y-79380491D01*
X27822687Y-79376061D01*
X27822687Y-79376060D01*
X27822692Y-79376055D01*
X27836681Y-79351825D01*
X27848208Y-79335172D01*
X27853904Y-79328230D01*
X27861422Y-79308973D01*
X27910221Y-79224452D01*
X27910221Y-79224451D01*
X27910225Y-79224445D01*
X27925712Y-79181893D01*
X27932876Y-79165852D01*
X27938319Y-79155668D01*
X27941838Y-79137589D01*
X27970099Y-79059944D01*
X27970099Y-79059943D01*
X27970101Y-79059938D01*
X27981931Y-78992843D01*
X27983658Y-78985617D01*
X27989166Y-78967459D01*
X27989370Y-78950649D01*
X28000500Y-78887532D01*
X28000500Y-78800000D01*
X28000500Y-78799500D01*
X28000500Y-78797958D01*
X28000799Y-78791878D01*
X28004362Y-78755696D01*
X28000500Y-78732903D01*
X28000500Y-69599999D01*
X29794457Y-69599999D01*
X29802419Y-69741784D01*
X29802517Y-69745261D01*
X29802517Y-69779572D01*
X29806357Y-69813651D01*
X29806649Y-69817116D01*
X29814612Y-69958901D01*
X29814614Y-69958917D01*
X29838397Y-70098895D01*
X29838883Y-70102338D01*
X29840920Y-70120410D01*
X29842725Y-70136433D01*
X29846315Y-70152161D01*
X29846315Y-70152165D01*
X29850361Y-70169889D01*
X29851040Y-70173301D01*
X29874826Y-70313296D01*
X29874828Y-70313305D01*
X29914137Y-70449752D01*
X29915006Y-70453119D01*
X29922641Y-70486568D01*
X29922642Y-70486572D01*
X29927966Y-70501787D01*
X29927967Y-70501789D01*
X29927967Y-70501793D01*
X29933971Y-70518952D01*
X29935027Y-70522265D01*
X29959819Y-70608316D01*
X29974341Y-70658724D01*
X30021562Y-70772726D01*
X30028682Y-70789914D01*
X30029922Y-70793163D01*
X30041253Y-70825547D01*
X30056140Y-70856460D01*
X30057559Y-70859633D01*
X30111908Y-70990837D01*
X30180591Y-71115111D01*
X30182188Y-71118202D01*
X30190076Y-71134581D01*
X30190083Y-71134593D01*
X30197079Y-71149120D01*
X30215328Y-71178163D01*
X30217090Y-71181151D01*
X30285789Y-71305452D01*
X30367952Y-71421250D01*
X30369885Y-71424143D01*
X30379567Y-71439552D01*
X30379572Y-71439557D01*
X30388149Y-71453207D01*
X30388151Y-71453210D01*
X30388153Y-71453212D01*
X30409541Y-71480033D01*
X30411632Y-71482811D01*
X30493805Y-71598622D01*
X30588417Y-71704493D01*
X30590662Y-71707151D01*
X30602004Y-71721375D01*
X30602012Y-71721383D01*
X30612059Y-71733982D01*
X30612066Y-71733990D01*
X30623468Y-71745392D01*
X30623469Y-71745394D01*
X30636329Y-71758253D01*
X30638718Y-71760781D01*
X30729520Y-71862388D01*
X30733339Y-71866661D01*
X30824215Y-71947873D01*
X30839226Y-71961287D01*
X30841753Y-71963677D01*
X30866011Y-71987935D01*
X30878613Y-71997985D01*
X30878613Y-71997986D01*
X30892846Y-72009336D01*
X30895501Y-72011578D01*
X31001377Y-72106194D01*
X31117192Y-72188369D01*
X31119958Y-72190451D01*
X31126240Y-72195461D01*
X31146793Y-72211851D01*
X31146795Y-72211852D01*
X31160437Y-72220424D01*
X31160438Y-72220425D01*
X31175856Y-72230113D01*
X31178729Y-72232033D01*
X31294547Y-72314210D01*
X31294549Y-72314212D01*
X31316966Y-72326601D01*
X31418886Y-72382930D01*
X31421800Y-72384649D01*
X31450880Y-72402921D01*
X31465399Y-72409913D01*
X31465401Y-72409915D01*
X31465402Y-72409915D01*
X31481791Y-72417808D01*
X31484881Y-72419404D01*
X31609167Y-72488094D01*
X31740372Y-72542441D01*
X31743518Y-72543849D01*
X31774448Y-72558744D01*
X31806861Y-72570086D01*
X31810067Y-72571310D01*
X31941276Y-72625659D01*
X32050794Y-72657210D01*
X32077718Y-72664967D01*
X32081034Y-72666024D01*
X32098200Y-72672030D01*
X32098209Y-72672032D01*
X32113428Y-72677358D01*
X32146915Y-72685001D01*
X32150219Y-72685854D01*
X32286700Y-72725173D01*
X32426722Y-72748963D01*
X32430085Y-72749633D01*
X32463558Y-72757273D01*
X32479581Y-72759078D01*
X32479583Y-72759079D01*
X32479584Y-72759079D01*
X32485864Y-72759786D01*
X32497682Y-72761117D01*
X32501094Y-72761600D01*
X32641093Y-72785387D01*
X32782922Y-72793352D01*
X32786270Y-72793633D01*
X32820433Y-72797483D01*
X32820435Y-72797483D01*
X32854738Y-72797483D01*
X32858215Y-72797581D01*
X32911002Y-72800544D01*
X33000000Y-72805543D01*
X33092665Y-72800338D01*
X33141785Y-72797581D01*
X33145262Y-72797483D01*
X33179565Y-72797483D01*
X33179567Y-72797483D01*
X33213729Y-72793633D01*
X33217077Y-72793352D01*
X33358907Y-72785387D01*
X33498940Y-72761594D01*
X33502292Y-72761120D01*
X33536442Y-72757273D01*
X33569955Y-72749623D01*
X33573249Y-72748968D01*
X33713300Y-72725173D01*
X33849768Y-72685857D01*
X33853112Y-72684994D01*
X33886572Y-72677358D01*
X33901782Y-72672035D01*
X33901787Y-72672035D01*
X33918961Y-72666025D01*
X33922276Y-72664969D01*
X33975547Y-72649621D01*
X34058724Y-72625659D01*
X34189984Y-72571288D01*
X34193125Y-72570090D01*
X34225552Y-72558744D01*
X34256500Y-72543839D01*
X34259621Y-72542444D01*
X34390833Y-72488094D01*
X34515129Y-72419398D01*
X34518209Y-72417807D01*
X34549120Y-72402921D01*
X34578218Y-72384637D01*
X34581098Y-72382938D01*
X34705452Y-72314211D01*
X34821278Y-72232027D01*
X34824148Y-72230110D01*
X34839531Y-72220444D01*
X34853207Y-72211851D01*
X34880066Y-72190430D01*
X34882771Y-72188395D01*
X34998623Y-72106194D01*
X35104507Y-72011570D01*
X35107144Y-72009343D01*
X35107153Y-72009336D01*
X35133989Y-71987935D01*
X35158295Y-71963628D01*
X35160733Y-71961323D01*
X35175787Y-71947870D01*
X46999500Y-71947870D01*
X46999501Y-71947876D01*
X47005908Y-72007483D01*
X47056202Y-72142328D01*
X47056206Y-72142335D01*
X47142452Y-72257544D01*
X47142455Y-72257547D01*
X47257664Y-72343793D01*
X47257671Y-72343797D01*
X47392517Y-72394091D01*
X47392516Y-72394091D01*
X47395679Y-72394431D01*
X47452127Y-72400500D01*
X48447872Y-72400499D01*
X48507483Y-72394091D01*
X48642331Y-72343796D01*
X48757546Y-72257546D01*
X48843796Y-72142331D01*
X48850547Y-72124229D01*
X48857285Y-72106166D01*
X48899157Y-72050233D01*
X48964621Y-72025816D01*
X48973467Y-72025500D01*
X51026533Y-72025500D01*
X51093572Y-72045185D01*
X51139327Y-72097989D01*
X51142715Y-72106166D01*
X51156203Y-72142330D01*
X51156206Y-72142335D01*
X51242452Y-72257544D01*
X51242455Y-72257547D01*
X51357663Y-72343792D01*
X51357665Y-72343793D01*
X51357669Y-72343796D01*
X51357673Y-72343797D01*
X51359924Y-72345027D01*
X51361746Y-72346849D01*
X51364769Y-72349112D01*
X51364443Y-72349546D01*
X51409331Y-72394431D01*
X51424500Y-72453861D01*
X51424500Y-74967255D01*
X51422775Y-74982872D01*
X51423061Y-74982899D01*
X51422326Y-74990665D01*
X51424500Y-75059814D01*
X51424500Y-75070639D01*
X51404815Y-75137678D01*
X51373387Y-75170956D01*
X51288900Y-75232340D01*
X51288895Y-75232344D01*
X51162239Y-75373011D01*
X51139509Y-75412381D01*
X51088941Y-75460596D01*
X51020334Y-75473818D01*
X50969002Y-75457113D01*
X50914532Y-75424900D01*
X50867894Y-75397319D01*
X50867892Y-75397318D01*
X50867890Y-75397317D01*
X50713102Y-75352346D01*
X50713096Y-75352345D01*
X50676937Y-75349500D01*
X50676935Y-75349500D01*
X50272256Y-75349501D01*
X50273066Y-75349501D01*
X50236901Y-75352346D01*
X50082110Y-75397317D01*
X50082102Y-75397320D01*
X50063117Y-75408548D01*
X49995392Y-75425728D01*
X49936878Y-75408546D01*
X49917897Y-75397320D01*
X49917888Y-75397317D01*
X49763102Y-75352346D01*
X49763096Y-75352345D01*
X49726937Y-75349500D01*
X49726935Y-75349500D01*
X49323008Y-75349501D01*
X49323066Y-75349501D01*
X49286901Y-75352346D01*
X49132110Y-75397317D01*
X49132103Y-75397320D01*
X48993363Y-75479369D01*
X48993351Y-75479378D01*
X48879378Y-75593351D01*
X48879369Y-75593363D01*
X48797320Y-75732103D01*
X48797317Y-75732110D01*
X48752346Y-75886897D01*
X48752345Y-75886903D01*
X48749500Y-75923063D01*
X48749501Y-76326934D01*
X48752346Y-76363098D01*
X48797317Y-76517889D01*
X48797319Y-76517894D01*
X48808837Y-76537371D01*
X48826018Y-76605095D01*
X48808838Y-76663608D01*
X48797782Y-76682302D01*
X48797779Y-76682310D01*
X48752844Y-76836975D01*
X48752843Y-76836981D01*
X48750000Y-76873115D01*
X48750001Y-77276883D01*
X48752843Y-77313016D01*
X48793497Y-77452949D01*
X49309628Y-76936818D01*
X49370951Y-76903333D01*
X49397301Y-76900499D01*
X49575501Y-76900499D01*
X49642539Y-76920184D01*
X49688294Y-76972988D01*
X49699500Y-77024499D01*
X49699500Y-77202689D01*
X49679815Y-77269728D01*
X49663181Y-77290370D01*
X49147049Y-77806501D01*
X49286978Y-77847155D01*
X49286981Y-77847156D01*
X49323115Y-77850000D01*
X49726883Y-77849999D01*
X49763021Y-77847155D01*
X49917690Y-77802220D01*
X49917693Y-77802219D01*
X49936386Y-77791164D01*
X50004109Y-77773980D01*
X50062627Y-77791161D01*
X50082106Y-77802681D01*
X50122928Y-77814541D01*
X50236897Y-77847653D01*
X50236900Y-77847653D01*
X50236902Y-77847654D01*
X50244793Y-77848275D01*
X50273063Y-77850500D01*
X50273064Y-77850499D01*
X50273065Y-77850500D01*
X50676934Y-77850499D01*
X50713098Y-77847654D01*
X50867894Y-77802681D01*
X50949351Y-77754508D01*
X51011477Y-77717768D01*
X51074597Y-77700500D01*
X51415322Y-77700500D01*
X51465758Y-77711221D01*
X51480463Y-77717768D01*
X51562981Y-77754508D01*
X51748138Y-77793864D01*
X51748139Y-77793864D01*
X51937428Y-77793864D01*
X51937430Y-77793864D01*
X52122587Y-77754508D01*
X52295514Y-77677515D01*
X52448655Y-77566252D01*
X52575317Y-77425580D01*
X52669963Y-77261648D01*
X52728458Y-77081620D01*
X52736548Y-77004637D01*
X52763132Y-76940025D01*
X52820430Y-76900040D01*
X52885648Y-76896311D01*
X52905354Y-76900500D01*
X52905359Y-76900500D01*
X53094644Y-76900500D01*
X53094646Y-76900500D01*
X53279803Y-76861144D01*
X53452730Y-76784151D01*
X53605871Y-76672888D01*
X53732533Y-76532216D01*
X53768113Y-76470588D01*
X53818679Y-76422374D01*
X53887286Y-76409150D01*
X53952151Y-76435118D01*
X53992680Y-76492032D01*
X53999500Y-76532589D01*
X53999500Y-79475467D01*
X53999416Y-79475889D01*
X53999459Y-79500001D01*
X53999500Y-79500099D01*
X53999617Y-79500383D01*
X54016801Y-79517575D01*
X54048669Y-79575969D01*
X54053100Y-79580400D01*
X54580446Y-79580400D01*
X54647485Y-79600085D01*
X54693240Y-79652889D01*
X54703735Y-79717657D01*
X54700024Y-79752162D01*
X54700024Y-79900004D01*
X56600020Y-79900004D01*
X56600020Y-79752176D01*
X56600019Y-79752162D01*
X56596309Y-79717657D01*
X56608713Y-79648897D01*
X56656323Y-79597759D01*
X56719598Y-79580400D01*
X67280445Y-79580400D01*
X67347484Y-79600085D01*
X67393239Y-79652889D01*
X67403734Y-79717657D01*
X67400023Y-79752162D01*
X67400023Y-79900004D01*
X69300019Y-79900004D01*
X69300019Y-79752176D01*
X69300018Y-79752162D01*
X69296308Y-79717657D01*
X69308712Y-79648897D01*
X69356322Y-79597759D01*
X69419597Y-79580400D01*
X69928099Y-79580400D01*
X69941727Y-79566771D01*
X69947784Y-79546146D01*
X69998993Y-79501772D01*
X70000381Y-79500383D01*
X70000383Y-79500383D01*
X70000500Y-79500099D01*
X70000541Y-79500000D01*
X70000540Y-79499997D01*
X70000583Y-79475889D01*
X70000500Y-79475467D01*
X70000500Y-75024759D01*
X70000528Y-75024616D01*
X70000524Y-75024616D01*
X70000539Y-75000002D01*
X70000541Y-75000000D01*
X70000462Y-74999808D01*
X70000384Y-74999618D01*
X70000382Y-74999616D01*
X70000099Y-74999500D01*
X70000000Y-74999459D01*
X69975446Y-74999459D01*
X69975240Y-74999500D01*
X54024760Y-74999500D01*
X54024554Y-74999459D01*
X54000000Y-74999459D01*
X53999901Y-74999500D01*
X53999617Y-74999616D01*
X53999615Y-74999618D01*
X53999459Y-74999999D01*
X53999476Y-75024616D01*
X53999471Y-75024616D01*
X53999500Y-75024759D01*
X53999500Y-75467410D01*
X53979815Y-75534449D01*
X53927011Y-75580204D01*
X53857853Y-75590148D01*
X53794297Y-75561123D01*
X53768113Y-75529410D01*
X53745951Y-75491025D01*
X53732533Y-75467784D01*
X53605871Y-75327112D01*
X53605870Y-75327111D01*
X53452734Y-75215851D01*
X53452729Y-75215848D01*
X53279807Y-75138857D01*
X53279802Y-75138855D01*
X53134001Y-75107865D01*
X53094646Y-75099500D01*
X53094645Y-75099500D01*
X53035452Y-75099500D01*
X52968413Y-75079815D01*
X52947771Y-75063181D01*
X52711819Y-74827228D01*
X52678334Y-74765905D01*
X52675500Y-74739547D01*
X52675500Y-72453861D01*
X52695185Y-72386822D01*
X52735418Y-72349362D01*
X52735231Y-72349112D01*
X52737565Y-72347364D01*
X52740076Y-72345027D01*
X52742323Y-72343798D01*
X52742331Y-72343796D01*
X52857546Y-72257546D01*
X52943796Y-72142331D01*
X52994091Y-72007483D01*
X53000500Y-71947873D01*
X53000499Y-70852128D01*
X52995299Y-70803757D01*
X52994091Y-70792516D01*
X52940697Y-70649359D01*
X52942266Y-70648773D01*
X52929616Y-70590630D01*
X52941314Y-70550793D01*
X52940253Y-70550398D01*
X52993597Y-70407376D01*
X52993598Y-70407372D01*
X52999999Y-70347844D01*
X53000000Y-70347827D01*
X53000000Y-70050000D01*
X51100000Y-70050000D01*
X51100000Y-70347844D01*
X51106401Y-70407372D01*
X51106403Y-70407379D01*
X51159746Y-70550399D01*
X51157930Y-70551076D01*
X51170383Y-70608316D01*
X51158428Y-70649033D01*
X51159303Y-70649360D01*
X51142715Y-70693834D01*
X51100843Y-70749767D01*
X51035379Y-70774184D01*
X51026533Y-70774500D01*
X48973467Y-70774500D01*
X48906428Y-70754815D01*
X48860673Y-70702011D01*
X48857285Y-70693834D01*
X48840697Y-70649360D01*
X48842266Y-70648774D01*
X48829616Y-70590630D01*
X48841314Y-70550793D01*
X48840253Y-70550398D01*
X48893597Y-70407376D01*
X48893598Y-70407372D01*
X48899999Y-70347844D01*
X48900000Y-70347827D01*
X48900000Y-70050000D01*
X47000000Y-70050000D01*
X47000000Y-70347844D01*
X47006401Y-70407372D01*
X47006403Y-70407379D01*
X47059746Y-70550399D01*
X47057930Y-70551076D01*
X47070383Y-70608316D01*
X47058428Y-70649033D01*
X47059303Y-70649359D01*
X47005908Y-70792517D01*
X47002357Y-70825552D01*
X46999501Y-70852123D01*
X46999500Y-70852135D01*
X46999500Y-71947870D01*
X35175787Y-71947870D01*
X35266661Y-71866661D01*
X35361306Y-71760752D01*
X35363644Y-71758279D01*
X35387935Y-71733989D01*
X35409345Y-71707140D01*
X35411569Y-71704507D01*
X35506194Y-71598623D01*
X35588395Y-71482771D01*
X35590430Y-71480066D01*
X35611851Y-71453207D01*
X35630113Y-71424143D01*
X35632027Y-71421278D01*
X35714211Y-71305452D01*
X35782938Y-71181098D01*
X35784637Y-71178218D01*
X35802921Y-71149120D01*
X35817807Y-71118207D01*
X35819404Y-71115118D01*
X35819408Y-71115111D01*
X35888094Y-70990833D01*
X35942444Y-70859621D01*
X35943839Y-70856500D01*
X35958744Y-70825552D01*
X35970099Y-70793099D01*
X35971293Y-70789972D01*
X36025659Y-70658724D01*
X36056867Y-70550398D01*
X36064969Y-70522276D01*
X36066025Y-70518961D01*
X36072035Y-70501787D01*
X36072035Y-70501782D01*
X36077358Y-70486572D01*
X36084994Y-70453112D01*
X36085862Y-70449752D01*
X36125173Y-70313300D01*
X36148968Y-70173249D01*
X36149623Y-70169955D01*
X36157273Y-70136442D01*
X36159080Y-70120410D01*
X36159707Y-70114838D01*
X36161118Y-70102312D01*
X36161598Y-70098914D01*
X36185387Y-69958907D01*
X36193352Y-69817078D01*
X36193634Y-69813726D01*
X36197483Y-69779567D01*
X36198155Y-69731541D01*
X36205543Y-69600000D01*
X36205543Y-69599999D01*
X63794457Y-69599999D01*
X63802418Y-69741784D01*
X63802516Y-69745258D01*
X63802516Y-69779567D01*
X63802517Y-69779572D01*
X63806357Y-69813651D01*
X63806649Y-69817116D01*
X63814612Y-69958901D01*
X63814614Y-69958917D01*
X63838397Y-70098895D01*
X63838883Y-70102338D01*
X63840920Y-70120410D01*
X63842725Y-70136433D01*
X63846315Y-70152161D01*
X63846315Y-70152165D01*
X63850361Y-70169889D01*
X63851040Y-70173301D01*
X63874826Y-70313296D01*
X63874828Y-70313305D01*
X63914137Y-70449752D01*
X63915006Y-70453119D01*
X63922641Y-70486568D01*
X63922642Y-70486572D01*
X63927966Y-70501787D01*
X63927967Y-70501789D01*
X63927967Y-70501793D01*
X63933971Y-70518952D01*
X63935027Y-70522265D01*
X63959819Y-70608316D01*
X63974341Y-70658724D01*
X64021562Y-70772726D01*
X64028682Y-70789914D01*
X64029922Y-70793163D01*
X64041253Y-70825547D01*
X64056140Y-70856460D01*
X64057559Y-70859633D01*
X64111908Y-70990837D01*
X64180591Y-71115111D01*
X64182188Y-71118202D01*
X64190076Y-71134581D01*
X64190083Y-71134593D01*
X64197079Y-71149120D01*
X64215328Y-71178163D01*
X64217090Y-71181151D01*
X64285789Y-71305452D01*
X64367952Y-71421250D01*
X64369885Y-71424143D01*
X64379567Y-71439552D01*
X64379572Y-71439557D01*
X64388149Y-71453207D01*
X64388151Y-71453210D01*
X64388153Y-71453212D01*
X64409541Y-71480033D01*
X64411632Y-71482811D01*
X64493805Y-71598622D01*
X64588417Y-71704493D01*
X64590662Y-71707151D01*
X64602004Y-71721375D01*
X64602012Y-71721383D01*
X64612059Y-71733982D01*
X64612066Y-71733990D01*
X64623468Y-71745392D01*
X64623469Y-71745394D01*
X64636329Y-71758253D01*
X64638718Y-71760781D01*
X64729520Y-71862388D01*
X64733339Y-71866661D01*
X64824215Y-71947873D01*
X64839226Y-71961287D01*
X64841753Y-71963677D01*
X64866011Y-71987935D01*
X64878613Y-71997985D01*
X64878613Y-71997986D01*
X64892846Y-72009336D01*
X64895501Y-72011578D01*
X65001377Y-72106194D01*
X65117192Y-72188369D01*
X65119958Y-72190451D01*
X65126240Y-72195461D01*
X65146793Y-72211851D01*
X65146795Y-72211852D01*
X65160437Y-72220424D01*
X65160438Y-72220425D01*
X65175856Y-72230113D01*
X65178729Y-72232033D01*
X65294547Y-72314210D01*
X65294549Y-72314212D01*
X65316966Y-72326601D01*
X65418886Y-72382930D01*
X65421800Y-72384649D01*
X65450880Y-72402921D01*
X65465399Y-72409913D01*
X65465401Y-72409915D01*
X65465402Y-72409915D01*
X65481791Y-72417808D01*
X65484881Y-72419404D01*
X65609167Y-72488094D01*
X65740372Y-72542441D01*
X65743518Y-72543849D01*
X65774448Y-72558744D01*
X65806861Y-72570086D01*
X65810067Y-72571310D01*
X65941276Y-72625659D01*
X66050794Y-72657210D01*
X66077718Y-72664967D01*
X66081034Y-72666024D01*
X66098200Y-72672030D01*
X66098209Y-72672032D01*
X66113428Y-72677358D01*
X66146915Y-72685001D01*
X66150219Y-72685854D01*
X66286700Y-72725173D01*
X66426722Y-72748963D01*
X66430085Y-72749633D01*
X66463558Y-72757273D01*
X66479581Y-72759078D01*
X66479583Y-72759079D01*
X66479584Y-72759079D01*
X66485864Y-72759786D01*
X66497682Y-72761117D01*
X66501094Y-72761600D01*
X66641093Y-72785387D01*
X66782922Y-72793352D01*
X66786270Y-72793633D01*
X66820433Y-72797483D01*
X66820435Y-72797483D01*
X66854738Y-72797483D01*
X66858215Y-72797581D01*
X66909102Y-72800438D01*
X67000000Y-72805543D01*
X67090897Y-72800438D01*
X67141785Y-72797581D01*
X67145262Y-72797483D01*
X67179565Y-72797483D01*
X67179567Y-72797483D01*
X67213729Y-72793633D01*
X67217077Y-72793352D01*
X67358907Y-72785387D01*
X67498940Y-72761594D01*
X67502292Y-72761120D01*
X67536442Y-72757273D01*
X67569955Y-72749623D01*
X67573249Y-72748968D01*
X67713300Y-72725173D01*
X67849768Y-72685857D01*
X67853112Y-72684994D01*
X67886572Y-72677358D01*
X67901782Y-72672035D01*
X67901787Y-72672035D01*
X67918961Y-72666025D01*
X67922276Y-72664969D01*
X67975547Y-72649621D01*
X68058724Y-72625659D01*
X68189984Y-72571288D01*
X68193125Y-72570090D01*
X68225552Y-72558744D01*
X68256500Y-72543839D01*
X68259621Y-72542444D01*
X68390833Y-72488094D01*
X68515129Y-72419398D01*
X68518209Y-72417807D01*
X68549120Y-72402921D01*
X68578218Y-72384637D01*
X68581098Y-72382938D01*
X68705452Y-72314211D01*
X68821278Y-72232027D01*
X68824148Y-72230110D01*
X68839531Y-72220444D01*
X68853207Y-72211851D01*
X68880066Y-72190430D01*
X68882771Y-72188395D01*
X68998623Y-72106194D01*
X69104507Y-72011570D01*
X69107144Y-72009343D01*
X69107153Y-72009336D01*
X69133989Y-71987935D01*
X69158295Y-71963628D01*
X69160733Y-71961323D01*
X69266661Y-71866661D01*
X69361306Y-71760752D01*
X69363644Y-71758279D01*
X69387935Y-71733989D01*
X69409345Y-71707140D01*
X69411569Y-71704507D01*
X69506194Y-71598623D01*
X69588395Y-71482771D01*
X69590430Y-71480066D01*
X69611851Y-71453207D01*
X69630113Y-71424143D01*
X69632027Y-71421278D01*
X69714211Y-71305452D01*
X69782938Y-71181098D01*
X69784637Y-71178218D01*
X69802921Y-71149120D01*
X69817807Y-71118207D01*
X69819404Y-71115118D01*
X69819408Y-71115111D01*
X69888094Y-70990833D01*
X69942444Y-70859621D01*
X69943839Y-70856500D01*
X69958744Y-70825552D01*
X69970099Y-70793099D01*
X69971293Y-70789972D01*
X70025659Y-70658724D01*
X70056867Y-70550398D01*
X70064969Y-70522276D01*
X70066025Y-70518961D01*
X70072035Y-70501787D01*
X70072035Y-70501782D01*
X70077358Y-70486572D01*
X70084994Y-70453112D01*
X70085862Y-70449752D01*
X70125173Y-70313300D01*
X70148968Y-70173249D01*
X70149623Y-70169955D01*
X70157273Y-70136442D01*
X70159080Y-70120410D01*
X70159707Y-70114838D01*
X70161118Y-70102312D01*
X70161598Y-70098914D01*
X70185387Y-69958907D01*
X70193352Y-69817078D01*
X70193634Y-69813726D01*
X70197483Y-69779567D01*
X70198155Y-69731541D01*
X70205543Y-69600000D01*
X70198155Y-69468461D01*
X70197483Y-69420433D01*
X70193634Y-69386273D01*
X70193351Y-69382918D01*
X70185387Y-69241093D01*
X70161600Y-69101095D01*
X70161118Y-69097680D01*
X70159080Y-69079592D01*
X70159079Y-69079584D01*
X70157274Y-69063570D01*
X70157273Y-69063558D01*
X70149633Y-69030085D01*
X70148963Y-69026722D01*
X70125173Y-68886700D01*
X70085856Y-68750228D01*
X70084994Y-68746884D01*
X70077358Y-68713428D01*
X70072032Y-68698206D01*
X70066024Y-68681034D01*
X70064967Y-68677718D01*
X70034782Y-68572943D01*
X70025659Y-68541276D01*
X69971310Y-68410067D01*
X69970086Y-68406861D01*
X69958744Y-68374448D01*
X69943849Y-68343518D01*
X69942435Y-68340358D01*
X69888094Y-68209168D01*
X69888094Y-68209167D01*
X69819404Y-68084881D01*
X69817808Y-68081791D01*
X69809915Y-68065402D01*
X69809915Y-68065401D01*
X69809913Y-68065399D01*
X69802921Y-68050880D01*
X69784649Y-68021800D01*
X69782930Y-68018886D01*
X69715988Y-67897763D01*
X69714212Y-67894549D01*
X69714210Y-67894547D01*
X69632033Y-67778729D01*
X69630113Y-67775856D01*
X69620425Y-67760438D01*
X69611851Y-67746793D01*
X69590451Y-67719958D01*
X69588369Y-67717192D01*
X69506194Y-67601377D01*
X69411578Y-67495501D01*
X69409336Y-67492846D01*
X69397987Y-67478614D01*
X69397985Y-67478613D01*
X69387935Y-67466011D01*
X69363677Y-67441753D01*
X69361287Y-67439226D01*
X69266662Y-67333340D01*
X69266659Y-67333337D01*
X69160781Y-67238718D01*
X69158253Y-67236329D01*
X69145397Y-67223472D01*
X69145392Y-67223468D01*
X69133990Y-67212066D01*
X69133982Y-67212060D01*
X69121383Y-67202012D01*
X69121381Y-67202009D01*
X69107151Y-67190662D01*
X69104493Y-67188417D01*
X68998622Y-67093805D01*
X68882811Y-67011632D01*
X68880033Y-67009541D01*
X68853212Y-66988153D01*
X68853210Y-66988151D01*
X68839558Y-66979573D01*
X68839554Y-66979568D01*
X68824143Y-66969885D01*
X68821250Y-66967952D01*
X68705452Y-66885789D01*
X68581151Y-66817090D01*
X68578174Y-66815334D01*
X68549120Y-66797079D01*
X68534593Y-66790083D01*
X68534589Y-66790079D01*
X68518202Y-66782188D01*
X68515111Y-66780591D01*
X68390837Y-66711908D01*
X68390835Y-66711907D01*
X68390833Y-66711906D01*
X68369889Y-66703230D01*
X68259633Y-66657559D01*
X68256460Y-66656140D01*
X68225547Y-66641253D01*
X68193163Y-66629922D01*
X68189914Y-66628682D01*
X68172726Y-66621562D01*
X68058724Y-66574341D01*
X68031277Y-66566433D01*
X67922265Y-66535027D01*
X67918952Y-66533971D01*
X67901793Y-66527967D01*
X67901790Y-66527967D01*
X67886572Y-66522642D01*
X67886559Y-66522639D01*
X67853119Y-66515006D01*
X67849752Y-66514137D01*
X67713305Y-66474828D01*
X67713296Y-66474826D01*
X67573301Y-66451040D01*
X67569889Y-66450361D01*
X67552165Y-66446315D01*
X67552162Y-66446315D01*
X67536442Y-66442727D01*
X67536439Y-66442726D01*
X67536432Y-66442725D01*
X67520410Y-66440920D01*
X67520409Y-66440919D01*
X67520409Y-66440920D01*
X67502338Y-66438883D01*
X67498895Y-66438397D01*
X67358917Y-66414614D01*
X67358901Y-66414612D01*
X67217116Y-66406649D01*
X67213651Y-66406357D01*
X67179572Y-66402517D01*
X67179567Y-66402517D01*
X67145262Y-66402517D01*
X67141785Y-66402419D01*
X67000000Y-66394457D01*
X66858215Y-66402419D01*
X66854738Y-66402517D01*
X66820424Y-66402517D01*
X66786347Y-66406357D01*
X66782881Y-66406649D01*
X66641098Y-66414612D01*
X66641082Y-66414614D01*
X66501122Y-66438394D01*
X66497680Y-66438880D01*
X66479595Y-66440918D01*
X66479589Y-66440920D01*
X66463564Y-66442725D01*
X66463548Y-66442728D01*
X66430096Y-66450363D01*
X66426687Y-66451041D01*
X66304450Y-66471811D01*
X66286700Y-66474827D01*
X66286698Y-66474827D01*
X66286689Y-66474829D01*
X66150249Y-66514136D01*
X66146884Y-66515004D01*
X66113435Y-66522639D01*
X66113422Y-66522643D01*
X66098202Y-66527968D01*
X66081042Y-66533972D01*
X66077731Y-66535027D01*
X65941283Y-66574338D01*
X65941264Y-66574345D01*
X65810088Y-66628680D01*
X65806841Y-66629920D01*
X65789669Y-66635929D01*
X65774448Y-66641255D01*
X65743529Y-66656143D01*
X65740358Y-66657562D01*
X65609168Y-66711905D01*
X65609155Y-66711911D01*
X65484890Y-66780590D01*
X65481803Y-66782185D01*
X65465409Y-66790080D01*
X65450885Y-66797075D01*
X65450874Y-66797081D01*
X65421845Y-66815322D01*
X65418850Y-66817088D01*
X65294550Y-66885787D01*
X65178741Y-66967957D01*
X65175850Y-66969888D01*
X65160450Y-66979564D01*
X65160446Y-66979569D01*
X65146791Y-66988149D01*
X65146787Y-66988152D01*
X65129531Y-67001915D01*
X65119976Y-67009535D01*
X65117198Y-67011625D01*
X65001372Y-67093809D01*
X64895507Y-67188415D01*
X64892852Y-67190658D01*
X64878618Y-67202009D01*
X64866016Y-67212060D01*
X64866009Y-67212066D01*
X64841733Y-67236341D01*
X64839208Y-67238727D01*
X64733339Y-67333339D01*
X64638727Y-67439208D01*
X64636341Y-67441733D01*
X64612066Y-67466009D01*
X64612060Y-67466016D01*
X64602009Y-67478618D01*
X64590658Y-67492852D01*
X64588415Y-67495507D01*
X64493809Y-67601372D01*
X64411628Y-67717194D01*
X64409537Y-67719972D01*
X64388152Y-67746788D01*
X64388149Y-67746791D01*
X64379569Y-67760446D01*
X64379565Y-67760449D01*
X64369888Y-67775850D01*
X64367957Y-67778741D01*
X64285787Y-67894550D01*
X64217088Y-68018850D01*
X64215322Y-68021845D01*
X64197081Y-68050874D01*
X64197075Y-68050885D01*
X64190080Y-68065409D01*
X64182185Y-68081803D01*
X64180590Y-68084890D01*
X64111911Y-68209155D01*
X64111905Y-68209168D01*
X64057562Y-68340358D01*
X64056143Y-68343529D01*
X64041255Y-68374448D01*
X64035929Y-68389669D01*
X64029920Y-68406841D01*
X64028680Y-68410088D01*
X63974345Y-68541264D01*
X63974338Y-68541283D01*
X63935027Y-68677731D01*
X63933972Y-68681042D01*
X63927968Y-68698202D01*
X63922643Y-68713422D01*
X63922639Y-68713435D01*
X63915004Y-68746884D01*
X63914136Y-68750249D01*
X63874829Y-68886689D01*
X63874827Y-68886698D01*
X63874827Y-68886700D01*
X63874599Y-68888044D01*
X63851041Y-69026687D01*
X63850363Y-69030096D01*
X63842728Y-69063548D01*
X63842725Y-69063564D01*
X63840920Y-69079589D01*
X63840918Y-69079592D01*
X63838880Y-69097680D01*
X63838394Y-69101122D01*
X63814614Y-69241082D01*
X63814612Y-69241098D01*
X63806649Y-69382881D01*
X63806357Y-69386347D01*
X63802517Y-69420424D01*
X63802517Y-69436560D01*
X63802516Y-69454743D01*
X63802418Y-69458215D01*
X63794457Y-69599999D01*
X36205543Y-69599999D01*
X36202735Y-69550000D01*
X47000000Y-69550000D01*
X47700000Y-69550000D01*
X47700000Y-68800000D01*
X48200000Y-68800000D01*
X48200000Y-69550000D01*
X48900000Y-69550000D01*
X51100000Y-69550000D01*
X51800000Y-69550000D01*
X52299999Y-69550000D01*
X52999999Y-69550000D01*
X53000000Y-69252172D01*
X52999999Y-69252155D01*
X52993598Y-69192627D01*
X52993596Y-69192620D01*
X52943354Y-69057913D01*
X52943350Y-69057906D01*
X52857190Y-68942812D01*
X52857187Y-68942809D01*
X52742093Y-68856649D01*
X52742086Y-68856645D01*
X52607379Y-68806403D01*
X52607372Y-68806401D01*
X52547844Y-68800000D01*
X52300000Y-68800000D01*
X52299999Y-69550000D01*
X51800000Y-69550000D01*
X51800000Y-68800000D01*
X51552155Y-68800000D01*
X51492627Y-68806401D01*
X51492620Y-68806403D01*
X51357913Y-68856645D01*
X51357906Y-68856649D01*
X51242812Y-68942809D01*
X51242809Y-68942812D01*
X51156649Y-69057906D01*
X51156645Y-69057913D01*
X51106403Y-69192620D01*
X51106401Y-69192627D01*
X51100000Y-69252155D01*
X51100000Y-69550000D01*
X48900000Y-69550000D01*
X48900000Y-69252172D01*
X48899999Y-69252155D01*
X48893598Y-69192627D01*
X48893596Y-69192620D01*
X48843354Y-69057913D01*
X48843350Y-69057906D01*
X48757190Y-68942812D01*
X48757187Y-68942809D01*
X48642093Y-68856649D01*
X48642086Y-68856645D01*
X48507379Y-68806403D01*
X48507372Y-68806401D01*
X48447844Y-68800000D01*
X48200000Y-68800000D01*
X47700000Y-68800000D01*
X47452155Y-68800000D01*
X47392627Y-68806401D01*
X47392620Y-68806403D01*
X47257913Y-68856645D01*
X47257906Y-68856649D01*
X47142812Y-68942809D01*
X47142809Y-68942812D01*
X47056649Y-69057906D01*
X47056645Y-69057913D01*
X47006403Y-69192620D01*
X47006401Y-69192627D01*
X47000000Y-69252155D01*
X47000000Y-69550000D01*
X36202735Y-69550000D01*
X36198155Y-69468461D01*
X36197483Y-69420433D01*
X36193634Y-69386273D01*
X36193351Y-69382918D01*
X36185387Y-69241093D01*
X36161600Y-69101095D01*
X36161118Y-69097680D01*
X36159080Y-69079592D01*
X36159079Y-69079584D01*
X36157274Y-69063570D01*
X36157273Y-69063558D01*
X36149633Y-69030085D01*
X36148963Y-69026722D01*
X36125173Y-68886700D01*
X36085856Y-68750228D01*
X36084994Y-68746884D01*
X36077358Y-68713428D01*
X36072032Y-68698206D01*
X36066024Y-68681034D01*
X36064967Y-68677718D01*
X36034782Y-68572943D01*
X36025659Y-68541276D01*
X35971310Y-68410067D01*
X35970086Y-68406861D01*
X35958744Y-68374448D01*
X35943849Y-68343518D01*
X35942435Y-68340358D01*
X35888094Y-68209168D01*
X35888094Y-68209167D01*
X35819404Y-68084881D01*
X35817808Y-68081791D01*
X35809915Y-68065402D01*
X35809915Y-68065401D01*
X35809913Y-68065399D01*
X35802921Y-68050880D01*
X35784649Y-68021800D01*
X35782930Y-68018886D01*
X35715988Y-67897763D01*
X35714212Y-67894549D01*
X35714210Y-67894547D01*
X35632033Y-67778729D01*
X35630113Y-67775856D01*
X35620425Y-67760438D01*
X35611851Y-67746793D01*
X35590451Y-67719958D01*
X35588369Y-67717192D01*
X35506194Y-67601377D01*
X35411578Y-67495501D01*
X35409336Y-67492846D01*
X35397987Y-67478614D01*
X35397985Y-67478613D01*
X35387935Y-67466011D01*
X35363677Y-67441753D01*
X35361287Y-67439226D01*
X35266662Y-67333340D01*
X35266659Y-67333337D01*
X35160781Y-67238718D01*
X35158253Y-67236329D01*
X35145397Y-67223472D01*
X35145392Y-67223468D01*
X35133990Y-67212066D01*
X35133982Y-67212060D01*
X35121383Y-67202012D01*
X35121381Y-67202009D01*
X35107151Y-67190662D01*
X35104493Y-67188417D01*
X34998622Y-67093805D01*
X34882811Y-67011632D01*
X34880033Y-67009541D01*
X34853212Y-66988153D01*
X34853210Y-66988151D01*
X34839558Y-66979573D01*
X34839554Y-66979568D01*
X34824143Y-66969885D01*
X34821250Y-66967952D01*
X34705452Y-66885789D01*
X34581151Y-66817090D01*
X34578174Y-66815334D01*
X34549120Y-66797079D01*
X34534593Y-66790083D01*
X34534589Y-66790079D01*
X34518202Y-66782188D01*
X34515111Y-66780591D01*
X34390837Y-66711908D01*
X34390835Y-66711907D01*
X34390833Y-66711906D01*
X34369889Y-66703230D01*
X34259633Y-66657559D01*
X34256460Y-66656140D01*
X34225547Y-66641253D01*
X34193163Y-66629922D01*
X34189914Y-66628682D01*
X34172726Y-66621562D01*
X34058724Y-66574341D01*
X34031277Y-66566433D01*
X33922265Y-66535027D01*
X33918952Y-66533971D01*
X33901793Y-66527967D01*
X33901790Y-66527967D01*
X33886572Y-66522642D01*
X33886559Y-66522639D01*
X33853119Y-66515006D01*
X33849752Y-66514137D01*
X33713305Y-66474828D01*
X33713296Y-66474826D01*
X33573301Y-66451040D01*
X33569889Y-66450361D01*
X33552165Y-66446315D01*
X33552162Y-66446315D01*
X33536442Y-66442727D01*
X33536439Y-66442726D01*
X33536432Y-66442725D01*
X33520410Y-66440920D01*
X33520409Y-66440919D01*
X33520409Y-66440920D01*
X33502338Y-66438883D01*
X33498895Y-66438397D01*
X33358917Y-66414614D01*
X33358901Y-66414612D01*
X33217116Y-66406649D01*
X33213651Y-66406357D01*
X33179572Y-66402517D01*
X33179567Y-66402517D01*
X33145262Y-66402517D01*
X33141785Y-66402419D01*
X33012925Y-66395182D01*
X33000000Y-66394457D01*
X32999999Y-66394457D01*
X32858215Y-66402419D01*
X32854738Y-66402517D01*
X32820424Y-66402517D01*
X32786347Y-66406357D01*
X32782881Y-66406649D01*
X32641098Y-66414612D01*
X32641082Y-66414614D01*
X32501122Y-66438394D01*
X32497680Y-66438880D01*
X32479595Y-66440918D01*
X32479589Y-66440920D01*
X32463564Y-66442725D01*
X32463548Y-66442728D01*
X32430096Y-66450363D01*
X32426687Y-66451041D01*
X32304450Y-66471811D01*
X32286700Y-66474827D01*
X32286698Y-66474827D01*
X32286689Y-66474829D01*
X32150249Y-66514136D01*
X32146884Y-66515004D01*
X32113435Y-66522639D01*
X32113422Y-66522643D01*
X32098202Y-66527968D01*
X32081042Y-66533972D01*
X32077731Y-66535027D01*
X31941283Y-66574338D01*
X31941264Y-66574345D01*
X31810088Y-66628680D01*
X31806841Y-66629920D01*
X31789669Y-66635929D01*
X31774448Y-66641255D01*
X31743529Y-66656143D01*
X31740358Y-66657562D01*
X31609168Y-66711905D01*
X31609155Y-66711911D01*
X31484890Y-66780590D01*
X31481803Y-66782185D01*
X31465409Y-66790080D01*
X31450885Y-66797075D01*
X31450874Y-66797081D01*
X31421845Y-66815322D01*
X31418850Y-66817088D01*
X31294550Y-66885787D01*
X31178741Y-66967957D01*
X31175850Y-66969888D01*
X31160450Y-66979564D01*
X31160446Y-66979569D01*
X31146791Y-66988149D01*
X31146787Y-66988152D01*
X31129531Y-67001915D01*
X31119976Y-67009535D01*
X31117198Y-67011625D01*
X31001372Y-67093809D01*
X30895507Y-67188415D01*
X30892852Y-67190658D01*
X30878618Y-67202009D01*
X30866016Y-67212060D01*
X30866009Y-67212066D01*
X30841733Y-67236341D01*
X30839208Y-67238727D01*
X30733339Y-67333339D01*
X30638727Y-67439208D01*
X30636341Y-67441733D01*
X30612066Y-67466009D01*
X30612060Y-67466016D01*
X30602009Y-67478618D01*
X30590658Y-67492852D01*
X30588415Y-67495507D01*
X30493809Y-67601372D01*
X30411628Y-67717194D01*
X30409537Y-67719972D01*
X30388152Y-67746788D01*
X30388149Y-67746791D01*
X30379569Y-67760446D01*
X30379565Y-67760449D01*
X30369888Y-67775850D01*
X30367957Y-67778741D01*
X30285787Y-67894550D01*
X30217088Y-68018850D01*
X30215322Y-68021845D01*
X30197081Y-68050874D01*
X30197075Y-68050885D01*
X30190080Y-68065409D01*
X30182185Y-68081803D01*
X30180590Y-68084890D01*
X30111911Y-68209155D01*
X30111905Y-68209168D01*
X30057562Y-68340358D01*
X30056143Y-68343529D01*
X30041255Y-68374448D01*
X30035929Y-68389669D01*
X30029920Y-68406841D01*
X30028680Y-68410088D01*
X29974345Y-68541264D01*
X29974338Y-68541283D01*
X29935027Y-68677731D01*
X29933972Y-68681042D01*
X29927968Y-68698202D01*
X29922643Y-68713422D01*
X29922639Y-68713435D01*
X29915004Y-68746884D01*
X29914136Y-68750249D01*
X29874829Y-68886689D01*
X29874827Y-68886698D01*
X29874827Y-68886700D01*
X29874599Y-68888044D01*
X29851041Y-69026687D01*
X29850363Y-69030096D01*
X29842728Y-69063548D01*
X29842725Y-69063564D01*
X29840920Y-69079589D01*
X29840918Y-69079592D01*
X29838880Y-69097680D01*
X29838394Y-69101122D01*
X29814614Y-69241082D01*
X29814612Y-69241098D01*
X29806649Y-69382881D01*
X29806357Y-69386347D01*
X29802517Y-69420424D01*
X29802517Y-69454737D01*
X29802419Y-69458214D01*
X29794457Y-69599999D01*
X28000500Y-69599999D01*
X28009480Y-69382881D01*
X28009488Y-69382673D01*
X28018160Y-69184059D01*
X28018573Y-69179140D01*
X28045487Y-68963223D01*
X28071884Y-68762726D01*
X28072669Y-68758114D01*
X28117191Y-68545778D01*
X28161160Y-68347451D01*
X28162253Y-68343235D01*
X28224112Y-68135457D01*
X28285324Y-67941320D01*
X28286673Y-67937488D01*
X28365469Y-67735551D01*
X28443499Y-67547170D01*
X28445033Y-67543771D01*
X28514381Y-67401920D01*
X28540249Y-67349007D01*
X28597656Y-67238727D01*
X28634494Y-67167960D01*
X28636207Y-67164891D01*
X28747211Y-66978601D01*
X28856972Y-66806313D01*
X28858765Y-66803656D01*
X28984856Y-66627054D01*
X29109313Y-66464861D01*
X29111135Y-66462601D01*
X29251448Y-66296933D01*
X29390563Y-66145115D01*
X29545115Y-65990563D01*
X29696933Y-65851448D01*
X29862601Y-65711135D01*
X29864861Y-65709313D01*
X30027054Y-65584856D01*
X30203656Y-65458765D01*
X30206313Y-65456972D01*
X30378601Y-65347211D01*
X30564900Y-65236201D01*
X30567960Y-65234494D01*
X30685284Y-65173419D01*
X30749007Y-65140249D01*
X30823655Y-65103755D01*
X30943771Y-65045033D01*
X30947170Y-65043499D01*
X31135551Y-64965469D01*
X31337488Y-64886673D01*
X31341320Y-64885324D01*
X31535457Y-64824112D01*
X31743235Y-64762253D01*
X31747451Y-64761160D01*
X31945778Y-64717191D01*
X32158114Y-64672669D01*
X32162726Y-64671884D01*
X32363223Y-64645487D01*
X32579138Y-64618574D01*
X32584061Y-64618160D01*
X32782569Y-64609493D01*
X33000000Y-64600500D01*
X33000500Y-64600500D01*
X66999500Y-64600500D01*
X67000000Y-64600500D01*
X67217318Y-64609488D01*
G37*
%TD.AperFunction*%
%TA.AperFunction,Conductor*%
G36*
X69893977Y-86893159D02*
G01*
X69949910Y-86935031D01*
X69959997Y-86950881D01*
X69962992Y-86956483D01*
X69964089Y-86958536D01*
X69967474Y-86963601D01*
X69965952Y-86964617D01*
X69989916Y-87021020D01*
X69978134Y-87089889D01*
X69967514Y-87106420D01*
X69967893Y-87106673D01*
X69964505Y-87111742D01*
X69871652Y-87285458D01*
X69830839Y-87419999D01*
X69830840Y-87420000D01*
X70585517Y-87420000D01*
X70514199Y-87504993D01*
X70475000Y-87612694D01*
X70475000Y-87727306D01*
X70514199Y-87835007D01*
X70585517Y-87920000D01*
X69830840Y-87920000D01*
X69871651Y-88054537D01*
X69872651Y-88056407D01*
X69872878Y-88057501D01*
X69873981Y-88060162D01*
X69873476Y-88060370D01*
X69886896Y-88124809D01*
X69862564Y-88189172D01*
X69856205Y-88197666D01*
X69856202Y-88197671D01*
X69805908Y-88332517D01*
X69799501Y-88392116D01*
X69799500Y-88392135D01*
X69799500Y-89487870D01*
X69799501Y-89487876D01*
X69805908Y-89547483D01*
X69856202Y-89682328D01*
X69856206Y-89682335D01*
X69942452Y-89797544D01*
X69942455Y-89797547D01*
X70057664Y-89883793D01*
X70057669Y-89883796D01*
X70093832Y-89897284D01*
X70149766Y-89939154D01*
X70174184Y-90004618D01*
X70174500Y-90013466D01*
X70174500Y-90257884D01*
X70154815Y-90324923D01*
X70102011Y-90370678D01*
X70093834Y-90374066D01*
X70007669Y-90406203D01*
X70007664Y-90406206D01*
X69892455Y-90492452D01*
X69892452Y-90492455D01*
X69806206Y-90607664D01*
X69806202Y-90607671D01*
X69755908Y-90742517D01*
X69749501Y-90802116D01*
X69749500Y-90802135D01*
X69749500Y-91897870D01*
X69749501Y-91897876D01*
X69755908Y-91957483D01*
X69806202Y-92092328D01*
X69806203Y-92092330D01*
X69831176Y-92125690D01*
X69855592Y-92191155D01*
X69840740Y-92259428D01*
X69831176Y-92274310D01*
X69806203Y-92307669D01*
X69806202Y-92307671D01*
X69755908Y-92442517D01*
X69749501Y-92502116D01*
X69749500Y-92502135D01*
X69749500Y-93597870D01*
X69749501Y-93597876D01*
X69755908Y-93657483D01*
X69806202Y-93792328D01*
X69806206Y-93792335D01*
X69892452Y-93907544D01*
X69892455Y-93907547D01*
X70007664Y-93993793D01*
X70007671Y-93993797D01*
X70052618Y-94010560D01*
X70142517Y-94044091D01*
X70202127Y-94050500D01*
X70612092Y-94050499D01*
X70679130Y-94070183D01*
X70724885Y-94122987D01*
X70734829Y-94192146D01*
X70709039Y-94251811D01*
X70673894Y-94295881D01*
X70673250Y-94296827D01*
X70669166Y-94302169D01*
X70667171Y-94304504D01*
X70663471Y-94313935D01*
X70586905Y-94446551D01*
X70584746Y-94448609D01*
X70583838Y-94450802D01*
X70580249Y-94458081D01*
X70553955Y-94503623D01*
X70551943Y-94507802D01*
X70551812Y-94507739D01*
X70546282Y-94518847D01*
X70543973Y-94529055D01*
X70488056Y-94671529D01*
X70485776Y-94674468D01*
X70485006Y-94677678D01*
X70482431Y-94685862D01*
X70466317Y-94726921D01*
X70466312Y-94726938D01*
X70464775Y-94733671D01*
X70459477Y-94750288D01*
X70458798Y-94759858D01*
X70424750Y-94909032D01*
X70422545Y-94912972D01*
X70419909Y-94930243D01*
X70412937Y-94960787D01*
X70411823Y-94975652D01*
X70409230Y-94992219D01*
X70409931Y-95000902D01*
X70398498Y-95153469D01*
X70396698Y-95158244D01*
X70396733Y-95177029D01*
X70395012Y-95199995D01*
X70395012Y-95199997D01*
X70396733Y-95222974D01*
X70396702Y-95238931D01*
X70398498Y-95246529D01*
X70409931Y-95399095D01*
X70408740Y-95404657D01*
X70408744Y-95404671D01*
X70411823Y-95424346D01*
X70412937Y-95439211D01*
X70419909Y-95469757D01*
X70422171Y-95484577D01*
X70424750Y-95490966D01*
X70458798Y-95640138D01*
X70458414Y-95646398D01*
X70458448Y-95646480D01*
X70464775Y-95666329D01*
X70466312Y-95673061D01*
X70466319Y-95673084D01*
X70482432Y-95714138D01*
X70485008Y-95722325D01*
X70485411Y-95724006D01*
X70488056Y-95728469D01*
X70543973Y-95870943D01*
X70544574Y-95877731D01*
X70544603Y-95877778D01*
X70551812Y-95892260D01*
X70551943Y-95892198D01*
X70553955Y-95896376D01*
X70580250Y-95941921D01*
X70583839Y-95949199D01*
X70584263Y-95950223D01*
X70586904Y-95953446D01*
X70631195Y-96030160D01*
X70663470Y-96086062D01*
X70665197Y-96093182D01*
X70669165Y-96097828D01*
X70673255Y-96103178D01*
X70673890Y-96104110D01*
X70673897Y-96104122D01*
X70673905Y-96104132D01*
X70712140Y-96152077D01*
X70716534Y-96158344D01*
X70716664Y-96158557D01*
X70718944Y-96160609D01*
X70775649Y-96231715D01*
X70814501Y-96280433D01*
X70817451Y-96287660D01*
X70838695Y-96305804D01*
X70875083Y-96339568D01*
X70879271Y-96343932D01*
X70881039Y-96345094D01*
X70952871Y-96411744D01*
X70993520Y-96449461D01*
X70997747Y-96456558D01*
X71036921Y-96480564D01*
X71039434Y-96482188D01*
X71065305Y-96499827D01*
X71068269Y-96502093D01*
X71069363Y-96502594D01*
X71196345Y-96589168D01*
X71201852Y-96595884D01*
X71257129Y-96618781D01*
X71260288Y-96620194D01*
X71278437Y-96628934D01*
X71279189Y-96629344D01*
X71279432Y-96629414D01*
X71417812Y-96696054D01*
X71416845Y-96698060D01*
X71421206Y-96701435D01*
X71493255Y-96718732D01*
X71497038Y-96719768D01*
X71642857Y-96764748D01*
X71642858Y-96764748D01*
X71642861Y-96764749D01*
X71880051Y-96800499D01*
X71880053Y-96800499D01*
X71880059Y-96800500D01*
X71880064Y-96800500D01*
X71884680Y-96800846D01*
X71884507Y-96803145D01*
X71942539Y-96820185D01*
X71988294Y-96872989D01*
X71999500Y-96924500D01*
X71999500Y-132875500D01*
X71979815Y-132942539D01*
X71927011Y-132988294D01*
X71875500Y-132999500D01*
X67962409Y-132999500D01*
X67895370Y-132979815D01*
X67849615Y-132927011D01*
X67839671Y-132857853D01*
X67868696Y-132794297D01*
X67914957Y-132760939D01*
X68040362Y-132708994D01*
X68064013Y-132677596D01*
X68128282Y-132628282D01*
X68149983Y-132599999D01*
X68155311Y-132593922D01*
X71393922Y-129355311D01*
X71399999Y-129349983D01*
X71428282Y-129328282D01*
X71524536Y-129202841D01*
X71585044Y-129056762D01*
X71600500Y-128939361D01*
X71605682Y-128900000D01*
X71604728Y-128892757D01*
X71603249Y-128881518D01*
X71601030Y-128864669D01*
X71600500Y-128856571D01*
X71600500Y-98298772D01*
X71601031Y-98290670D01*
X71605682Y-98255343D01*
X71605682Y-98255342D01*
X71585044Y-98098583D01*
X71585044Y-98098582D01*
X71524536Y-97952503D01*
X71508858Y-97932071D01*
X71428282Y-97827062D01*
X71415132Y-97816972D01*
X71400007Y-97805366D01*
X71393904Y-97800013D01*
X68386827Y-94792936D01*
X68353342Y-94731613D01*
X68350508Y-94705255D01*
X68350508Y-94324003D01*
X68370193Y-94256964D01*
X68422997Y-94211209D01*
X68474508Y-94200003D01*
X68847847Y-94200003D01*
X68847863Y-94200002D01*
X68907391Y-94193601D01*
X68907398Y-94193599D01*
X69042105Y-94143357D01*
X69042112Y-94143353D01*
X69157206Y-94057193D01*
X69157209Y-94057190D01*
X69243369Y-93942096D01*
X69243373Y-93942089D01*
X69293615Y-93807382D01*
X69293617Y-93807375D01*
X69300018Y-93747847D01*
X69300019Y-93747830D01*
X69300019Y-93600003D01*
X67905872Y-93600003D01*
X67899240Y-93599648D01*
X67897882Y-93599502D01*
X67102138Y-93599502D01*
X67102132Y-93599503D01*
X67042527Y-93605910D01*
X66993342Y-93624255D01*
X66923650Y-93629238D01*
X66906677Y-93624254D01*
X66857499Y-93605912D01*
X66857492Y-93605910D01*
X66797895Y-93599503D01*
X66797893Y-93599502D01*
X66797885Y-93599502D01*
X66797876Y-93599502D01*
X66002141Y-93599502D01*
X66002135Y-93599503D01*
X65942530Y-93605910D01*
X65893345Y-93624255D01*
X65823653Y-93629238D01*
X65806680Y-93624254D01*
X65757502Y-93605912D01*
X65757495Y-93605910D01*
X65697898Y-93599503D01*
X65697896Y-93599502D01*
X65697888Y-93599502D01*
X65697880Y-93599502D01*
X64984455Y-93599502D01*
X64917416Y-93579817D01*
X64871661Y-93527013D01*
X64861717Y-93457855D01*
X64890742Y-93394299D01*
X64896761Y-93387834D01*
X66247771Y-92036823D01*
X66309094Y-92003339D01*
X66335452Y-92000505D01*
X66797869Y-92000505D01*
X66797870Y-92000505D01*
X66857481Y-91994097D01*
X66992329Y-91943802D01*
X67107544Y-91857552D01*
X67176937Y-91764853D01*
X67232869Y-91722985D01*
X67302560Y-91718001D01*
X67363883Y-91751486D01*
X67397368Y-91812809D01*
X67399300Y-91848800D01*
X67399459Y-91848809D01*
X67399523Y-91848809D01*
X67399523Y-91848812D01*
X67399701Y-91848822D01*
X67399523Y-91852122D01*
X67399524Y-91852126D01*
X67399523Y-91852138D01*
X67399523Y-92647873D01*
X67399524Y-92647879D01*
X67405932Y-92707487D01*
X67424542Y-92757385D01*
X67429526Y-92827077D01*
X67424543Y-92844049D01*
X67406425Y-92892626D01*
X67406424Y-92892630D01*
X67400023Y-92952158D01*
X67400023Y-93100003D01*
X67844178Y-93100003D01*
X67850809Y-93100358D01*
X67852150Y-93100503D01*
X68847891Y-93100502D01*
X68847896Y-93100501D01*
X68847902Y-93100501D01*
X68849226Y-93100359D01*
X68855860Y-93100003D01*
X69300019Y-93100003D01*
X69300019Y-92952175D01*
X69300018Y-92952158D01*
X69293617Y-92892630D01*
X69275498Y-92844051D01*
X69270514Y-92774359D01*
X69275495Y-92757394D01*
X69294110Y-92707486D01*
X69300519Y-92647876D01*
X69300518Y-91852131D01*
X69294110Y-91792520D01*
X69294110Y-91792519D01*
X69294108Y-91792513D01*
X69275766Y-91743336D01*
X69270781Y-91673645D01*
X69275760Y-91656685D01*
X69294110Y-91607489D01*
X69300519Y-91547879D01*
X69300518Y-90752134D01*
X69294110Y-90692523D01*
X69294110Y-90692522D01*
X69294108Y-90692516D01*
X69275766Y-90643339D01*
X69270781Y-90573648D01*
X69275760Y-90556688D01*
X69294110Y-90507492D01*
X69300519Y-90447882D01*
X69300518Y-89652137D01*
X69294110Y-89592526D01*
X69294110Y-89592525D01*
X69294108Y-89592519D01*
X69275766Y-89543342D01*
X69270781Y-89473651D01*
X69275760Y-89456691D01*
X69294110Y-89407495D01*
X69300519Y-89347885D01*
X69300518Y-88552140D01*
X69294110Y-88492529D01*
X69277195Y-88447177D01*
X69275766Y-88443346D01*
X69270781Y-88373655D01*
X69275766Y-88356677D01*
X69284777Y-88332517D01*
X69294110Y-88307495D01*
X69300519Y-88247885D01*
X69300518Y-87452140D01*
X69300517Y-87452128D01*
X69300517Y-87452124D01*
X69297127Y-87420594D01*
X69309532Y-87351834D01*
X69347528Y-87307022D01*
X69353749Y-87302501D01*
X69353751Y-87302501D01*
X69391458Y-87275103D01*
X69396309Y-87271916D01*
X69436439Y-87248185D01*
X69450608Y-87234014D01*
X69465398Y-87221383D01*
X69481606Y-87209609D01*
X69511318Y-87173691D01*
X69515231Y-87169391D01*
X69762964Y-86921658D01*
X69824285Y-86888175D01*
X69893977Y-86893159D01*
G37*
%TD.AperFunction*%
%TA.AperFunction,Conductor*%
G36*
X48410659Y-91970185D02*
G01*
X48431301Y-91986819D01*
X52273120Y-95828638D01*
X52284901Y-95842270D01*
X52299238Y-95861528D01*
X52339259Y-95895111D01*
X52343247Y-95898766D01*
X52349066Y-95904585D01*
X52349070Y-95904588D01*
X52349073Y-95904591D01*
X52374809Y-95924940D01*
X52433636Y-95974302D01*
X52433637Y-95974302D01*
X52433639Y-95974304D01*
X52439668Y-95978270D01*
X52439635Y-95978319D01*
X52445997Y-95982372D01*
X52446029Y-95982321D01*
X52452169Y-95986108D01*
X52452173Y-95986111D01*
X52476556Y-95997481D01*
X52521791Y-96018575D01*
X52539013Y-96027224D01*
X52590417Y-96053040D01*
X52590419Y-96053040D01*
X52597207Y-96055511D01*
X52597186Y-96055567D01*
X52604307Y-96058043D01*
X52604326Y-96057986D01*
X52611172Y-96060254D01*
X52611177Y-96060257D01*
X52611182Y-96060258D01*
X52611185Y-96060259D01*
X52686414Y-96075792D01*
X52686415Y-96075792D01*
X52761129Y-96093500D01*
X52761132Y-96093500D01*
X52761136Y-96093501D01*
X52768303Y-96094339D01*
X52768296Y-96094398D01*
X52775794Y-96095164D01*
X52775800Y-96095105D01*
X52782989Y-96095734D01*
X52782993Y-96095733D01*
X52782994Y-96095734D01*
X52859767Y-96093500D01*
X56106327Y-96093500D01*
X56124297Y-96094809D01*
X56148055Y-96098289D01*
X56200100Y-96093735D01*
X56205502Y-96093500D01*
X56213736Y-96093500D01*
X56213741Y-96093500D01*
X56225359Y-96092141D01*
X56246308Y-96089693D01*
X56259060Y-96088577D01*
X56322829Y-96082999D01*
X56322837Y-96082996D01*
X56329898Y-96081539D01*
X56329910Y-96081598D01*
X56337275Y-96079965D01*
X56337261Y-96079906D01*
X56344278Y-96078241D01*
X56344287Y-96078241D01*
X56416455Y-96051974D01*
X56489366Y-96027814D01*
X56489375Y-96027807D01*
X56495914Y-96024760D01*
X56495940Y-96024816D01*
X56502722Y-96021532D01*
X56502695Y-96021478D01*
X56509138Y-96018240D01*
X56509149Y-96018237D01*
X56573315Y-95976034D01*
X56638688Y-95935712D01*
X56638694Y-95935705D01*
X56644357Y-95931229D01*
X56644394Y-95931277D01*
X56650236Y-95926518D01*
X56650196Y-95926471D01*
X56655718Y-95921836D01*
X56655728Y-95921830D01*
X56680936Y-95895111D01*
X56708420Y-95865980D01*
X56800137Y-95774260D01*
X56985654Y-95588743D01*
X56999267Y-95576979D01*
X57018537Y-95562635D01*
X57039051Y-95538185D01*
X57097219Y-95499482D01*
X57147296Y-95494599D01*
X57202159Y-95500498D01*
X57997904Y-95500497D01*
X58057515Y-95494089D01*
X58106683Y-95475749D01*
X58176375Y-95470764D01*
X58193341Y-95475745D01*
X58242521Y-95494089D01*
X58302131Y-95500498D01*
X59097876Y-95500497D01*
X59157487Y-95494089D01*
X59206667Y-95475745D01*
X59276358Y-95470761D01*
X59293332Y-95475744D01*
X59342517Y-95494089D01*
X59402127Y-95500498D01*
X60197872Y-95500497D01*
X60257483Y-95494089D01*
X60306664Y-95475744D01*
X60376353Y-95470759D01*
X60393320Y-95475740D01*
X60442514Y-95494089D01*
X60502124Y-95500498D01*
X61297869Y-95500497D01*
X61357480Y-95494089D01*
X61406675Y-95475739D01*
X61476363Y-95470754D01*
X61493332Y-95475736D01*
X61542538Y-95494089D01*
X61602148Y-95500498D01*
X62397893Y-95500497D01*
X62457504Y-95494089D01*
X62506685Y-95475744D01*
X62576374Y-95470759D01*
X62593341Y-95475740D01*
X62642535Y-95494089D01*
X62702145Y-95500498D01*
X63497890Y-95500497D01*
X63557501Y-95494089D01*
X63606682Y-95475744D01*
X63676371Y-95470759D01*
X63693338Y-95475740D01*
X63742532Y-95494089D01*
X63802142Y-95500498D01*
X64597887Y-95500497D01*
X64657498Y-95494089D01*
X64658096Y-95493865D01*
X64658594Y-95493830D01*
X64665049Y-95492305D01*
X64665295Y-95493350D01*
X64727785Y-95488874D01*
X64789112Y-95522352D01*
X64799817Y-95534557D01*
X64832361Y-95576970D01*
X64871733Y-95628280D01*
X64900010Y-95649978D01*
X64906100Y-95655318D01*
X64964920Y-95714138D01*
X64998429Y-95747647D01*
X65031914Y-95808970D01*
X65026930Y-95878662D01*
X64997722Y-95921602D01*
X64998477Y-95922282D01*
X64867466Y-96067785D01*
X64772821Y-96231715D01*
X64772818Y-96231722D01*
X64735981Y-96345096D01*
X64714326Y-96411744D01*
X64694540Y-96600000D01*
X64714326Y-96788256D01*
X64714327Y-96788259D01*
X64772818Y-96968277D01*
X64772821Y-96968284D01*
X64867467Y-97132216D01*
X64961688Y-97236859D01*
X64994129Y-97272888D01*
X65147265Y-97384148D01*
X65147266Y-97384149D01*
X65147269Y-97384150D01*
X65147270Y-97384151D01*
X65153730Y-97387027D01*
X65206968Y-97432275D01*
X65227291Y-97499123D01*
X65210685Y-97562306D01*
X65167592Y-97636946D01*
X65167590Y-97636950D01*
X65114608Y-97800013D01*
X65109098Y-97816972D01*
X65089312Y-98005228D01*
X65109098Y-98193484D01*
X65109099Y-98193487D01*
X65167590Y-98373505D01*
X65167593Y-98373512D01*
X65262239Y-98537444D01*
X65388901Y-98678116D01*
X65542037Y-98789376D01*
X65542042Y-98789379D01*
X65714963Y-98866370D01*
X65714966Y-98866370D01*
X65714969Y-98866372D01*
X65732603Y-98870120D01*
X65763888Y-98876770D01*
X65825370Y-98909962D01*
X65825789Y-98910379D01*
X68673182Y-101757772D01*
X68706666Y-101819093D01*
X68709500Y-101845451D01*
X68709500Y-127914022D01*
X68689815Y-127981061D01*
X68673181Y-128001703D01*
X66791704Y-129883181D01*
X66730381Y-129916666D01*
X66704023Y-129919500D01*
X32055452Y-129919500D01*
X31988413Y-129899815D01*
X31967771Y-129883181D01*
X31316819Y-129232228D01*
X31283334Y-129170905D01*
X31280500Y-129144547D01*
X31280500Y-128868526D01*
X31300185Y-128801487D01*
X31352989Y-128755732D01*
X31422147Y-128745788D01*
X31447835Y-128752345D01*
X31452516Y-128754091D01*
X31459444Y-128754835D01*
X31512127Y-128760500D01*
X33827872Y-128760499D01*
X33887483Y-128754091D01*
X33991670Y-128715231D01*
X34061358Y-128710248D01*
X34078317Y-128715227D01*
X34182517Y-128754091D01*
X34242127Y-128760500D01*
X34865972Y-128760499D01*
X34914873Y-128770549D01*
X35098939Y-128849539D01*
X35098940Y-128849539D01*
X35098942Y-128849540D01*
X35298259Y-128890500D01*
X39097284Y-128890500D01*
X39186358Y-128892757D01*
X39186358Y-128892756D01*
X39186363Y-128892757D01*
X39246753Y-128881932D01*
X39251412Y-128881280D01*
X39293607Y-128876988D01*
X39312438Y-128875074D01*
X39345227Y-128864786D01*
X39352840Y-128862918D01*
X39386653Y-128856858D01*
X39443621Y-128834101D01*
X39448053Y-128832524D01*
X39506588Y-128814159D01*
X39536627Y-128797484D01*
X39543708Y-128794122D01*
X39575617Y-128781377D01*
X39626854Y-128747608D01*
X39630851Y-128745187D01*
X39684502Y-128715409D01*
X39710568Y-128693030D01*
X39716843Y-128688300D01*
X39745519Y-128669402D01*
X39745518Y-128669402D01*
X39788923Y-128625995D01*
X39792327Y-128622841D01*
X39838895Y-128582866D01*
X39859928Y-128555691D01*
X39865098Y-128549821D01*
X40698468Y-127716451D01*
X40763053Y-127655059D01*
X40798099Y-127604706D01*
X40800938Y-127600941D01*
X40804612Y-127596435D01*
X40839698Y-127553407D01*
X40855601Y-127522960D01*
X40859674Y-127516239D01*
X40864489Y-127509320D01*
X40879295Y-127488049D01*
X40903492Y-127431660D01*
X40905498Y-127427435D01*
X40933909Y-127373049D01*
X40943360Y-127340015D01*
X40945991Y-127332628D01*
X40959540Y-127301058D01*
X40971893Y-127240940D01*
X40973006Y-127236412D01*
X40989887Y-127177418D01*
X40992495Y-127143155D01*
X40993587Y-127135376D01*
X41000500Y-127101739D01*
X41000500Y-127040401D01*
X41000679Y-127035692D01*
X41005337Y-126974526D01*
X41000997Y-126940442D01*
X41000500Y-126932603D01*
X41000500Y-104537384D01*
X41020185Y-104470345D01*
X41036814Y-104449708D01*
X47834288Y-97652234D01*
X47898854Y-97590860D01*
X47933913Y-97540487D01*
X47936726Y-97536758D01*
X47975499Y-97489208D01*
X47991408Y-97458749D01*
X47995468Y-97452049D01*
X48015096Y-97423850D01*
X48039293Y-97367461D01*
X48041299Y-97363236D01*
X48069710Y-97308850D01*
X48079161Y-97275816D01*
X48081792Y-97268429D01*
X48095341Y-97236859D01*
X48107694Y-97176741D01*
X48108807Y-97172213D01*
X48125688Y-97113219D01*
X48128296Y-97078956D01*
X48129386Y-97071186D01*
X48136301Y-97037542D01*
X48136300Y-96976204D01*
X48136479Y-96971494D01*
X48141138Y-96910324D01*
X48136798Y-96876242D01*
X48136301Y-96868403D01*
X48136301Y-93324715D01*
X48138558Y-93235641D01*
X48138557Y-93235640D01*
X48138558Y-93235637D01*
X48127734Y-93175249D01*
X48127081Y-93170587D01*
X48120875Y-93109563D01*
X48119855Y-93106311D01*
X48110585Y-93076768D01*
X48108718Y-93069155D01*
X48102659Y-93035347D01*
X48102658Y-93035345D01*
X48079903Y-92978379D01*
X48078322Y-92973938D01*
X48071481Y-92952135D01*
X48059960Y-92915412D01*
X48059959Y-92915410D01*
X48059958Y-92915407D01*
X48047315Y-92892630D01*
X48043286Y-92885371D01*
X48039918Y-92878278D01*
X48027179Y-92846386D01*
X48027178Y-92846383D01*
X47993421Y-92795163D01*
X47990981Y-92791134D01*
X47973737Y-92760067D01*
X47961210Y-92737498D01*
X47961208Y-92737495D01*
X47938834Y-92711434D01*
X47934103Y-92705159D01*
X47930204Y-92699243D01*
X47915203Y-92676481D01*
X47871834Y-92633112D01*
X47868630Y-92629656D01*
X47828668Y-92583106D01*
X47801499Y-92562075D01*
X47795605Y-92556883D01*
X47400903Y-92162181D01*
X47367418Y-92100858D01*
X47372402Y-92031166D01*
X47414274Y-91975233D01*
X47479738Y-91950816D01*
X47488584Y-91950500D01*
X48343620Y-91950500D01*
X48410659Y-91970185D01*
G37*
%TD.AperFunction*%
%TA.AperFunction,Conductor*%
G36*
X46532639Y-84419685D02*
G01*
X46578394Y-84472489D01*
X46589600Y-84524000D01*
X46589600Y-85650000D01*
X46625100Y-85650000D01*
X46692139Y-85669685D01*
X46737894Y-85722489D01*
X46749100Y-85774000D01*
X46749100Y-86138169D01*
X46729415Y-86205208D01*
X46712781Y-86225850D01*
X45371349Y-87567281D01*
X45310026Y-87600766D01*
X45240334Y-87595782D01*
X45201211Y-87570638D01*
X45201111Y-87570772D01*
X45199399Y-87569474D01*
X45195987Y-87567281D01*
X45194353Y-87565647D01*
X45170915Y-87547873D01*
X45106206Y-87498802D01*
X45064684Y-87442611D01*
X45060133Y-87372889D01*
X45093998Y-87311775D01*
X45106207Y-87301197D01*
X45194353Y-87234353D01*
X45284962Y-87114869D01*
X45339973Y-86975369D01*
X45350500Y-86887710D01*
X45350500Y-86521902D01*
X45370185Y-86454863D01*
X45377231Y-86444994D01*
X45381928Y-86439054D01*
X45409908Y-86405709D01*
X45431302Y-86380214D01*
X45431304Y-86380209D01*
X45435272Y-86374179D01*
X45435323Y-86374212D01*
X45439369Y-86367860D01*
X45439317Y-86367828D01*
X45443109Y-86361679D01*
X45443111Y-86361677D01*
X45475569Y-86292069D01*
X45510040Y-86223433D01*
X45510043Y-86223417D01*
X45512510Y-86216644D01*
X45512568Y-86216665D01*
X45515043Y-86209546D01*
X45514985Y-86209527D01*
X45517256Y-86202672D01*
X45517810Y-86199992D01*
X45532784Y-86127467D01*
X45550500Y-86052721D01*
X45550500Y-86052720D01*
X45551339Y-86045548D01*
X45551397Y-86045554D01*
X45552164Y-86038056D01*
X45552104Y-86038051D01*
X45552733Y-86030860D01*
X45550500Y-85954103D01*
X45550500Y-85894366D01*
X45550500Y-85767479D01*
X45570183Y-85700443D01*
X45622987Y-85654688D01*
X45687755Y-85644193D01*
X45741755Y-85649999D01*
X45741772Y-85650000D01*
X46089600Y-85650000D01*
X46089600Y-84524000D01*
X46109285Y-84456961D01*
X46162089Y-84411206D01*
X46213600Y-84400000D01*
X46465600Y-84400000D01*
X46532639Y-84419685D01*
G37*
%TD.AperFunction*%
%TA.AperFunction,Conductor*%
G36*
X39015593Y-77148287D02*
G01*
X39071526Y-77190159D01*
X39088441Y-77221136D01*
X39134202Y-77343828D01*
X39134206Y-77343835D01*
X39220452Y-77459044D01*
X39220455Y-77459047D01*
X39335664Y-77545293D01*
X39335671Y-77545297D01*
X39470517Y-77595591D01*
X39470516Y-77595591D01*
X39477444Y-77596335D01*
X39530127Y-77602000D01*
X41033475Y-77601999D01*
X41100514Y-77621684D01*
X41146269Y-77674487D01*
X41156764Y-77739255D01*
X41150000Y-77802155D01*
X41150000Y-78150000D01*
X42276000Y-78150000D01*
X42343039Y-78169685D01*
X42388794Y-78222489D01*
X42400000Y-78274000D01*
X42400000Y-78526000D01*
X42380315Y-78593039D01*
X42327511Y-78638794D01*
X42276000Y-78650000D01*
X41150000Y-78650000D01*
X41150000Y-78839270D01*
X41130315Y-78906309D01*
X41077511Y-78952064D01*
X41008353Y-78962008D01*
X40944797Y-78932983D01*
X40938319Y-78926951D01*
X40918657Y-78907289D01*
X40918656Y-78907288D01*
X40769334Y-78815186D01*
X40602797Y-78760001D01*
X40602795Y-78760000D01*
X40500010Y-78749500D01*
X39899998Y-78749500D01*
X39899980Y-78749501D01*
X39797203Y-78760000D01*
X39797200Y-78760001D01*
X39630668Y-78815185D01*
X39630663Y-78815187D01*
X39481342Y-78907289D01*
X39357289Y-79031342D01*
X39265187Y-79180663D01*
X39265185Y-79180666D01*
X39265186Y-79180666D01*
X39210001Y-79347203D01*
X39210001Y-79347204D01*
X39210000Y-79347204D01*
X39199500Y-79449983D01*
X39199500Y-80050001D01*
X39199501Y-80050019D01*
X39210000Y-80152796D01*
X39210001Y-80152799D01*
X39244576Y-80257137D01*
X39265186Y-80319334D01*
X39357288Y-80468656D01*
X39481344Y-80592712D01*
X39630666Y-80684814D01*
X39797203Y-80739999D01*
X39899991Y-80750500D01*
X40083767Y-80750499D01*
X40150807Y-80770183D01*
X40163472Y-80779508D01*
X40190409Y-80802110D01*
X40194391Y-80805759D01*
X40200223Y-80811591D01*
X40225959Y-80831940D01*
X40284786Y-80881302D01*
X40284787Y-80881302D01*
X40284789Y-80881304D01*
X40290818Y-80885270D01*
X40290785Y-80885319D01*
X40297147Y-80889372D01*
X40297179Y-80889321D01*
X40303319Y-80893108D01*
X40303323Y-80893111D01*
X40333717Y-80907284D01*
X40372941Y-80925575D01*
X40436846Y-80957669D01*
X40441567Y-80960040D01*
X40441569Y-80960040D01*
X40448357Y-80962511D01*
X40448336Y-80962567D01*
X40455457Y-80965043D01*
X40455476Y-80964986D01*
X40462322Y-80967254D01*
X40462327Y-80967257D01*
X40462332Y-80967258D01*
X40462335Y-80967259D01*
X40524043Y-80980000D01*
X40537565Y-80982792D01*
X40612279Y-81000500D01*
X40612282Y-81000500D01*
X40612286Y-81000501D01*
X40619453Y-81001339D01*
X40619446Y-81001398D01*
X40626944Y-81002164D01*
X40626950Y-81002105D01*
X40634139Y-81002734D01*
X40634143Y-81002733D01*
X40634144Y-81002734D01*
X40710917Y-81000500D01*
X40900249Y-81000500D01*
X40967288Y-81020185D01*
X40999515Y-81050188D01*
X41042455Y-81107548D01*
X41047226Y-81112319D01*
X41080711Y-81173642D01*
X41075727Y-81243334D01*
X41047226Y-81287681D01*
X41042455Y-81292451D01*
X41012449Y-81332534D01*
X40956515Y-81374404D01*
X40886823Y-81379388D01*
X40848089Y-81363762D01*
X40769334Y-81315186D01*
X40602797Y-81260001D01*
X40602795Y-81260000D01*
X40500010Y-81249500D01*
X39899998Y-81249500D01*
X39899980Y-81249501D01*
X39797203Y-81260000D01*
X39797200Y-81260001D01*
X39630668Y-81315185D01*
X39630663Y-81315187D01*
X39481342Y-81407289D01*
X39357289Y-81531342D01*
X39265187Y-81680663D01*
X39265185Y-81680668D01*
X39250661Y-81724500D01*
X39210001Y-81847203D01*
X39210001Y-81847204D01*
X39210000Y-81847204D01*
X39199500Y-81949983D01*
X39199500Y-82550001D01*
X39199501Y-82550019D01*
X39210000Y-82652796D01*
X39210001Y-82652799D01*
X39265185Y-82819331D01*
X39265187Y-82819336D01*
X39288219Y-82856676D01*
X39357288Y-82968656D01*
X39481344Y-83092712D01*
X39630666Y-83184814D01*
X39797203Y-83239999D01*
X39899991Y-83250500D01*
X40500008Y-83250499D01*
X40545221Y-83245880D01*
X40613912Y-83258649D01*
X40664797Y-83306529D01*
X40681718Y-83374319D01*
X40659303Y-83440496D01*
X40648017Y-83454331D01*
X40626615Y-83477016D01*
X38500451Y-85603181D01*
X38439128Y-85636666D01*
X38412770Y-85639500D01*
X38052290Y-85639500D01*
X37964864Y-85649999D01*
X37964631Y-85650027D01*
X37964627Y-85650028D01*
X37919804Y-85667703D01*
X37850218Y-85673984D01*
X37828827Y-85667703D01*
X37785247Y-85650517D01*
X37785248Y-85650517D01*
X37697667Y-85640000D01*
X37650000Y-85640000D01*
X37650000Y-85827327D01*
X37630315Y-85894366D01*
X37624804Y-85902252D01*
X37615039Y-85915128D01*
X37615038Y-85915130D01*
X37560027Y-86054630D01*
X37560026Y-86054631D01*
X37549500Y-86142289D01*
X37549500Y-86941000D01*
X37529815Y-87008039D01*
X37477011Y-87053794D01*
X37425500Y-87065000D01*
X37374500Y-87065000D01*
X37307461Y-87045315D01*
X37261706Y-86992511D01*
X37250500Y-86941000D01*
X37250500Y-86142289D01*
X37239973Y-86054631D01*
X37184962Y-85915131D01*
X37184960Y-85915128D01*
X37175196Y-85902252D01*
X37150373Y-85836940D01*
X37150000Y-85827327D01*
X37150000Y-85640000D01*
X37149999Y-85639999D01*
X37102339Y-85640000D01*
X37014749Y-85650518D01*
X36971170Y-85667703D01*
X36901583Y-85673984D01*
X36880194Y-85667703D01*
X36855733Y-85658057D01*
X36835369Y-85650027D01*
X36747710Y-85639500D01*
X36152290Y-85639500D01*
X36152289Y-85639500D01*
X36064631Y-85650026D01*
X36064630Y-85650027D01*
X35925130Y-85705038D01*
X35925128Y-85705039D01*
X35805647Y-85795647D01*
X35715039Y-85915128D01*
X35689355Y-85980260D01*
X35646449Y-86035404D01*
X35580541Y-86058597D01*
X35512556Y-86042476D01*
X35464080Y-85992160D01*
X35450000Y-85934770D01*
X35450000Y-85602172D01*
X35449999Y-85602155D01*
X35443598Y-85542627D01*
X35443596Y-85542620D01*
X35393354Y-85407913D01*
X35393350Y-85407906D01*
X35307190Y-85292812D01*
X35307187Y-85292809D01*
X35192093Y-85206649D01*
X35192086Y-85206645D01*
X35114078Y-85177550D01*
X35058144Y-85135678D01*
X35033727Y-85070214D01*
X35048579Y-85001941D01*
X35084526Y-84961050D01*
X35130687Y-84927512D01*
X35205871Y-84872888D01*
X35332533Y-84732216D01*
X35427179Y-84568284D01*
X35485674Y-84388256D01*
X35505460Y-84200000D01*
X35485674Y-84011744D01*
X35427179Y-83831716D01*
X35426859Y-83831163D01*
X35426772Y-83830804D01*
X35424538Y-83825786D01*
X35425456Y-83825377D01*
X35410387Y-83763263D01*
X35418065Y-83725830D01*
X35443598Y-83657372D01*
X35449999Y-83597844D01*
X35450000Y-83597827D01*
X35450000Y-83250000D01*
X34324000Y-83250000D01*
X34256961Y-83230315D01*
X34211206Y-83177511D01*
X34200000Y-83126000D01*
X34200000Y-81950000D01*
X34700000Y-81950000D01*
X34700000Y-82750000D01*
X35450000Y-82750000D01*
X35450000Y-82402172D01*
X35449999Y-82402155D01*
X35443598Y-82342627D01*
X35443596Y-82342620D01*
X35393354Y-82207913D01*
X35393350Y-82207906D01*
X35307190Y-82092812D01*
X35307187Y-82092809D01*
X35192093Y-82006649D01*
X35192086Y-82006645D01*
X35057379Y-81956403D01*
X35057372Y-81956401D01*
X34997844Y-81950000D01*
X34700000Y-81950000D01*
X34200000Y-81950000D01*
X34200000Y-81904265D01*
X34219685Y-81837226D01*
X34258903Y-81798727D01*
X34268656Y-81792712D01*
X34268661Y-81792706D01*
X34274325Y-81788229D01*
X34274363Y-81788277D01*
X34280200Y-81783522D01*
X34280161Y-81783475D01*
X34285696Y-81778830D01*
X34338385Y-81722983D01*
X37733933Y-78327434D01*
X38884580Y-77176786D01*
X38945901Y-77143303D01*
X39015593Y-77148287D01*
G37*
%TD.AperFunction*%
%TA.AperFunction,Conductor*%
G36*
X47539880Y-83265328D02*
G01*
X47600496Y-83278212D01*
X47705354Y-83300500D01*
X47705355Y-83300500D01*
X47894643Y-83300500D01*
X47894646Y-83300500D01*
X47952849Y-83288128D01*
X48022511Y-83293443D01*
X48078245Y-83335579D01*
X48082228Y-83341280D01*
X48106565Y-83378283D01*
X48136497Y-83426810D01*
X48154938Y-83494203D01*
X48134016Y-83560866D01*
X48118640Y-83579589D01*
X47592489Y-84105741D01*
X47531166Y-84139226D01*
X47461475Y-84134242D01*
X47405541Y-84092371D01*
X47384130Y-84046569D01*
X47383197Y-84042622D01*
X47332954Y-83907913D01*
X47332952Y-83907910D01*
X47308112Y-83874728D01*
X47283694Y-83809264D01*
X47298545Y-83740990D01*
X47308105Y-83726114D01*
X47333396Y-83692331D01*
X47383691Y-83557483D01*
X47390100Y-83497873D01*
X47390099Y-83386616D01*
X47409783Y-83319579D01*
X47462587Y-83273824D01*
X47531745Y-83263880D01*
X47539880Y-83265328D01*
G37*
%TD.AperFunction*%
%TD*%
D43*
X32314130Y-109137414D03*
X44400000Y-79800000D03*
X46600000Y-88600000D03*
X34400000Y-89400000D03*
X45000000Y-73400000D03*
X59600000Y-92400000D03*
X66400000Y-80200000D03*
X38800000Y-79400000D03*
X48400000Y-94600000D03*
X60000000Y-82200000D03*
X53400000Y-82400000D03*
X66600000Y-92800000D03*
X62600000Y-89600000D03*
X41400000Y-89400000D03*
X62600000Y-86400000D03*
X47800000Y-83400000D03*
X39800000Y-83800000D03*
X34800000Y-90800000D03*
X43600000Y-87200000D03*
X36800000Y-90800000D03*
X33689500Y-84800000D03*
X33689500Y-108600000D03*
X34600000Y-84200000D03*
X33800000Y-109800000D03*
X51894772Y-75905228D03*
X64400000Y-91400000D03*
X64400000Y-90000000D03*
X53000000Y-76000000D03*
X65994772Y-98005228D03*
X60400000Y-86000000D03*
X65600000Y-96600000D03*
X60400000Y-87200000D03*
X64800000Y-81439500D03*
X51842784Y-76893364D03*
X47800000Y-82400000D03*
X54000000Y-84000000D03*
X60400000Y-90000000D03*
X38000000Y-98400000D03*
X70800000Y-88940000D03*
X70800000Y-87670000D03*
X70800000Y-86400000D03*
X70800000Y-85130000D03*
X70800000Y-83860000D03*
X28555000Y-82060000D03*
X28555000Y-87840000D03*
D44*
X29085000Y-80630000D03*
D45*
X24905000Y-80630000D03*
D44*
X29085000Y-89270000D03*
D45*
X24905000Y-89270000D03*
M02*
