%TF.GenerationSoftware,KiCad,Pcbnew,7.0.6-7.0.6~ubuntu20.04.1*%
%TF.CreationDate,2023-08-02T11:13:29+01:00*%
%TF.ProjectId,concept2creation,636f6e63-6570-4743-9263-72656174696f,rev?*%
%TF.SameCoordinates,Original*%
%TF.FileFunction,Legend,Bot*%
%TF.FilePolarity,Positive*%
%FSLAX46Y46*%
G04 Gerber Fmt 4.6, Leading zero omitted, Abs format (unit mm)*
G04 Created by KiCad (PCBNEW 7.0.6-7.0.6~ubuntu20.04.1) date 2023-08-02 11:13:29*
%MOMM*%
%LPD*%
G01*
G04 APERTURE LIST*
%ADD10C,0.350000*%
%ADD11O,1.700000X0.700000*%
%ADD12O,1.300000X0.700000*%
G04 APERTURE END LIST*
D10*
X32314130Y-109137414D03*
X44400000Y-79800000D03*
X46600000Y-88600000D03*
X34400000Y-89400000D03*
X45000000Y-73400000D03*
X59600000Y-92400000D03*
X66400000Y-80200000D03*
X38800000Y-79400000D03*
X48400000Y-94600000D03*
X60000000Y-82200000D03*
X53400000Y-82400000D03*
X66600000Y-92800000D03*
X62600000Y-89600000D03*
X41400000Y-89400000D03*
X62600000Y-86400000D03*
X47800000Y-83400000D03*
X39800000Y-83800000D03*
X34800000Y-90800000D03*
X43600000Y-87200000D03*
X36800000Y-90800000D03*
X33689500Y-84800000D03*
X33689500Y-108600000D03*
X34600000Y-84200000D03*
X33800000Y-109800000D03*
X51894772Y-75905228D03*
X64400000Y-91400000D03*
X64400000Y-90000000D03*
X53000000Y-76000000D03*
X65994772Y-98005228D03*
X60400000Y-86000000D03*
X65600000Y-96600000D03*
X60400000Y-87200000D03*
X64800000Y-81439500D03*
X51842784Y-76893364D03*
X47800000Y-82400000D03*
X54000000Y-84000000D03*
X60400000Y-90000000D03*
X38000000Y-98400000D03*
X70800000Y-88940000D03*
X70800000Y-87670000D03*
X70800000Y-86400000D03*
X70800000Y-85130000D03*
X70800000Y-83860000D03*
X28555000Y-82060000D03*
X28555000Y-87840000D03*
D11*
X29085000Y-80630000D03*
D12*
X24905000Y-80630000D03*
D11*
X29085000Y-89270000D03*
D12*
X24905000Y-89270000D03*
M02*
