%TF.GenerationSoftware,KiCad,Pcbnew,7.0.6-7.0.6~ubuntu20.04.1*%
%TF.CreationDate,2023-08-02T11:13:29+01:00*%
%TF.ProjectId,concept2creation,636f6e63-6570-4743-9263-72656174696f,rev?*%
%TF.SameCoordinates,Original*%
%TF.FileFunction,Soldermask,Bot*%
%TF.FilePolarity,Negative*%
%FSLAX46Y46*%
G04 Gerber Fmt 4.6, Leading zero omitted, Abs format (unit mm)*
G04 Created by KiCad (PCBNEW 7.0.6-7.0.6~ubuntu20.04.1) date 2023-08-02 11:13:29*
%MOMM*%
%LPD*%
G01*
G04 APERTURE LIST*
G04 Aperture macros list*
%AMRoundRect*
0 Rectangle with rounded corners*
0 $1 Rounding radius*
0 $2 $3 $4 $5 $6 $7 $8 $9 X,Y pos of 4 corners*
0 Add a 4 corners polygon primitive as box body*
4,1,4,$2,$3,$4,$5,$6,$7,$8,$9,$2,$3,0*
0 Add four circle primitives for the rounded corners*
1,1,$1+$1,$2,$3*
1,1,$1+$1,$4,$5*
1,1,$1+$1,$6,$7*
1,1,$1+$1,$8,$9*
0 Add four rect primitives between the rounded corners*
20,1,$1+$1,$2,$3,$4,$5,0*
20,1,$1+$1,$4,$5,$6,$7,0*
20,1,$1+$1,$6,$7,$8,$9,0*
20,1,$1+$1,$8,$9,$2,$3,0*%
G04 Aperture macros list end*
%ADD10R,1.000000X1.000000*%
%ADD11O,1.000000X1.000000*%
%ADD12C,0.650000*%
%ADD13RoundRect,0.601600X-0.550000X0.000000X-0.550000X0.000000X0.550000X0.000000X0.550000X0.000000X0*%
%ADD14RoundRect,0.601600X-0.300000X0.000000X-0.300000X0.000000X0.300000X0.000000X0.300000X0.000000X0*%
G04 APERTURE END LIST*
%TO.C,J1*%
G36*
X29830195Y-80050684D02*
G01*
X29968426Y-80114354D01*
X30085466Y-80211632D01*
X30173537Y-80336161D01*
X30240052Y-80629669D01*
X30226064Y-80781350D01*
X30173342Y-80924114D01*
X30085466Y-81048368D01*
X29968426Y-81145646D01*
X29830195Y-81209316D01*
X29680426Y-81235000D01*
X28479552Y-81235000D01*
X28331226Y-81208178D01*
X28194706Y-81143791D01*
X28079503Y-81046264D01*
X27993467Y-80922243D01*
X27942462Y-80780181D01*
X27929983Y-80630000D01*
X27942462Y-80479819D01*
X27993467Y-80337757D01*
X28079503Y-80213736D01*
X28194962Y-80115991D01*
X28479219Y-80025000D01*
X29680426Y-80025000D01*
X29830195Y-80050684D01*
G37*
G36*
X25357309Y-80049006D02*
G01*
X25504088Y-80109092D01*
X25630315Y-80205119D01*
X25727593Y-80330811D01*
X25810091Y-80633666D01*
X25788689Y-80791178D01*
X25727387Y-80937455D01*
X25630315Y-81062881D01*
X25504088Y-81158908D01*
X25357309Y-81218994D01*
X25200317Y-81239000D01*
X24599662Y-81239000D01*
X24444115Y-81217860D01*
X24299045Y-81157057D01*
X24174655Y-81060780D01*
X24079422Y-80935588D01*
X24019835Y-80790015D01*
X23999960Y-80634000D01*
X24019835Y-80477985D01*
X24079422Y-80332412D01*
X24174655Y-80207220D01*
X24299311Y-80110737D01*
X24599331Y-80029000D01*
X25200317Y-80029000D01*
X25357309Y-80049006D01*
G37*
G36*
X29830195Y-88690684D02*
G01*
X29968426Y-88754354D01*
X30085466Y-88851632D01*
X30173537Y-88976161D01*
X30240052Y-89269669D01*
X30226064Y-89421350D01*
X30173342Y-89564114D01*
X30085466Y-89688368D01*
X29968426Y-89785646D01*
X29830195Y-89849316D01*
X29680426Y-89875000D01*
X28479552Y-89875000D01*
X28331226Y-89848178D01*
X28194706Y-89783791D01*
X28079503Y-89686264D01*
X27993467Y-89562243D01*
X27942462Y-89420181D01*
X27929983Y-89270000D01*
X27942462Y-89119819D01*
X27993467Y-88977757D01*
X28079503Y-88853736D01*
X28194962Y-88755991D01*
X28479219Y-88665000D01*
X29680426Y-88665000D01*
X29830195Y-88690684D01*
G37*
G36*
X25357309Y-88685006D02*
G01*
X25504088Y-88745092D01*
X25630315Y-88841119D01*
X25727593Y-88966811D01*
X25810091Y-89269666D01*
X25788689Y-89427178D01*
X25727387Y-89573455D01*
X25630315Y-89698881D01*
X25504088Y-89794908D01*
X25357309Y-89854994D01*
X25200317Y-89875000D01*
X24599662Y-89875000D01*
X24444115Y-89853860D01*
X24299045Y-89793057D01*
X24174655Y-89696780D01*
X24079422Y-89571588D01*
X24019835Y-89426015D01*
X23999960Y-89270000D01*
X24019835Y-89113985D01*
X24079422Y-88968412D01*
X24174655Y-88843220D01*
X24299311Y-88746737D01*
X24599331Y-88665000D01*
X25200317Y-88665000D01*
X25357309Y-88685006D01*
G37*
%TD*%
D10*
%TO.C,J2*%
X70800000Y-88940000D03*
D11*
X70800000Y-87670000D03*
X70800000Y-86400000D03*
X70800000Y-85130000D03*
X70800000Y-83860000D03*
%TD*%
D12*
%TO.C,J1*%
X28555000Y-82060000D03*
X28555000Y-87840000D03*
D13*
X29085000Y-80630000D03*
D14*
X24905000Y-80630000D03*
D13*
X29085000Y-89270000D03*
D14*
X24905000Y-89270000D03*
%TD*%
M02*
