%TF.GenerationSoftware,KiCad,Pcbnew,7.0.6-7.0.6~ubuntu20.04.1*%
%TF.CreationDate,2023-08-02T11:15:23+01:00*%
%TF.ProjectId,concept2creation,636f6e63-6570-4743-9263-72656174696f,rev?*%
%TF.SameCoordinates,Original*%
%TF.FileFunction,Drillmap*%
%TF.FilePolarity,Positive*%
%FSLAX45Y45*%
G04 Gerber Fmt 4.5, Leading zero omitted, Abs format (unit mm)*
G04 Created by KiCad (PCBNEW 7.0.6-7.0.6~ubuntu20.04.1) date 2023-08-02 11:15:23*
%MOMM*%
%LPD*%
G01*
G04 APERTURE LIST*
%ADD10C,0.100000*%
%ADD11C,0.200000*%
%ADD12C,0.065000*%
G04 APERTURE END LIST*
D10*
X2380000Y-7980000D02*
X2380000Y-9020000D01*
X4380000Y-13850000D02*
G75*
G03*
X5620000Y-13850000I620000J0D01*
G01*
X2800000Y-9120000D02*
G75*
G03*
X2700000Y-9020000I-100000J0D01*
G01*
X2800000Y-13300000D02*
X4280000Y-13300000D01*
X5720000Y-13300000D02*
X7200000Y-13300000D01*
X5720000Y-13300000D02*
G75*
G03*
X5620000Y-13400000I0J-100000D01*
G01*
X7200000Y-6960000D02*
G75*
G03*
X6700000Y-6460000I-500000J0D01*
G01*
X4380000Y-13400000D02*
G75*
G03*
X4280000Y-13300000I-100000J0D01*
G01*
X5620000Y-13850000D02*
X5620000Y-13400000D01*
X7020000Y-6960000D02*
G75*
G03*
X7020000Y-6960000I-320000J0D01*
G01*
X5320000Y-13850000D02*
G75*
G03*
X5320000Y-13850000I-320000J0D01*
G01*
X3620000Y-6960000D02*
G75*
G03*
X3620000Y-6960000I-320000J0D01*
G01*
X2800000Y-6960000D02*
X2800000Y-7880000D01*
X2800000Y-9120000D02*
X2800000Y-13300000D01*
X7200000Y-9360000D02*
G75*
G03*
X7200000Y-9680000I0J-160000D01*
G01*
X7200000Y-9360000D02*
X7200000Y-6960000D01*
X2700000Y-7980000D02*
X2380000Y-7980000D01*
X2380000Y-9020000D02*
X2700000Y-9020000D01*
X2700000Y-7980000D02*
G75*
G03*
X2800000Y-7880000I0J100000D01*
G01*
X4380000Y-13850000D02*
X4380000Y-13400000D01*
X6700000Y-6460000D02*
X3300000Y-6460000D01*
X7200000Y-13300000D02*
X7200000Y-9680000D01*
X3300000Y-6460000D02*
G75*
G03*
X2800000Y-6960000I0J-500000D01*
G01*
D11*
D12*
X2823000Y-8173500D02*
X2888000Y-8238500D01*
X2888000Y-8173500D02*
X2823000Y-8238500D01*
X2823000Y-8751500D02*
X2888000Y-8816500D01*
X2888000Y-8751500D02*
X2823000Y-8816500D01*
D11*
X2635777Y-14786484D02*
X2635777Y-14586484D01*
X2635777Y-14586484D02*
X2683396Y-14586484D01*
X2683396Y-14586484D02*
X2711967Y-14596008D01*
X2711967Y-14596008D02*
X2731015Y-14615055D01*
X2731015Y-14615055D02*
X2740539Y-14634103D01*
X2740539Y-14634103D02*
X2750063Y-14672198D01*
X2750063Y-14672198D02*
X2750063Y-14700769D01*
X2750063Y-14700769D02*
X2740539Y-14738865D01*
X2740539Y-14738865D02*
X2731015Y-14757912D01*
X2731015Y-14757912D02*
X2711967Y-14776960D01*
X2711967Y-14776960D02*
X2683396Y-14786484D01*
X2683396Y-14786484D02*
X2635777Y-14786484D01*
X2835777Y-14786484D02*
X2835777Y-14653150D01*
X2835777Y-14691246D02*
X2845301Y-14672198D01*
X2845301Y-14672198D02*
X2854824Y-14662674D01*
X2854824Y-14662674D02*
X2873872Y-14653150D01*
X2873872Y-14653150D02*
X2892920Y-14653150D01*
X2959586Y-14786484D02*
X2959586Y-14653150D01*
X2959586Y-14586484D02*
X2950062Y-14596008D01*
X2950062Y-14596008D02*
X2959586Y-14605531D01*
X2959586Y-14605531D02*
X2969110Y-14596008D01*
X2969110Y-14596008D02*
X2959586Y-14586484D01*
X2959586Y-14586484D02*
X2959586Y-14605531D01*
X3083396Y-14786484D02*
X3064348Y-14776960D01*
X3064348Y-14776960D02*
X3054824Y-14757912D01*
X3054824Y-14757912D02*
X3054824Y-14586484D01*
X3188158Y-14786484D02*
X3169110Y-14776960D01*
X3169110Y-14776960D02*
X3159586Y-14757912D01*
X3159586Y-14757912D02*
X3159586Y-14586484D01*
X3416729Y-14786484D02*
X3416729Y-14586484D01*
X3416729Y-14586484D02*
X3483396Y-14729341D01*
X3483396Y-14729341D02*
X3550062Y-14586484D01*
X3550062Y-14586484D02*
X3550062Y-14786484D01*
X3731015Y-14786484D02*
X3731015Y-14681722D01*
X3731015Y-14681722D02*
X3721491Y-14662674D01*
X3721491Y-14662674D02*
X3702443Y-14653150D01*
X3702443Y-14653150D02*
X3664348Y-14653150D01*
X3664348Y-14653150D02*
X3645301Y-14662674D01*
X3731015Y-14776960D02*
X3711967Y-14786484D01*
X3711967Y-14786484D02*
X3664348Y-14786484D01*
X3664348Y-14786484D02*
X3645301Y-14776960D01*
X3645301Y-14776960D02*
X3635777Y-14757912D01*
X3635777Y-14757912D02*
X3635777Y-14738865D01*
X3635777Y-14738865D02*
X3645301Y-14719817D01*
X3645301Y-14719817D02*
X3664348Y-14710293D01*
X3664348Y-14710293D02*
X3711967Y-14710293D01*
X3711967Y-14710293D02*
X3731015Y-14700769D01*
X3826253Y-14653150D02*
X3826253Y-14853150D01*
X3826253Y-14662674D02*
X3845301Y-14653150D01*
X3845301Y-14653150D02*
X3883396Y-14653150D01*
X3883396Y-14653150D02*
X3902443Y-14662674D01*
X3902443Y-14662674D02*
X3911967Y-14672198D01*
X3911967Y-14672198D02*
X3921491Y-14691246D01*
X3921491Y-14691246D02*
X3921491Y-14748388D01*
X3921491Y-14748388D02*
X3911967Y-14767436D01*
X3911967Y-14767436D02*
X3902443Y-14776960D01*
X3902443Y-14776960D02*
X3883396Y-14786484D01*
X3883396Y-14786484D02*
X3845301Y-14786484D01*
X3845301Y-14786484D02*
X3826253Y-14776960D01*
X4007205Y-14767436D02*
X4016729Y-14776960D01*
X4016729Y-14776960D02*
X4007205Y-14786484D01*
X4007205Y-14786484D02*
X3997682Y-14776960D01*
X3997682Y-14776960D02*
X4007205Y-14767436D01*
X4007205Y-14767436D02*
X4007205Y-14786484D01*
X4007205Y-14662674D02*
X4016729Y-14672198D01*
X4016729Y-14672198D02*
X4007205Y-14681722D01*
X4007205Y-14681722D02*
X3997682Y-14672198D01*
X3997682Y-14672198D02*
X4007205Y-14662674D01*
X4007205Y-14662674D02*
X4007205Y-14681722D01*
D12*
X2310000Y-15082500D02*
X2375000Y-15147500D01*
X2375000Y-15082500D02*
X2310000Y-15147500D01*
D11*
X2673872Y-15006484D02*
X2692920Y-15006484D01*
X2692920Y-15006484D02*
X2711967Y-15016008D01*
X2711967Y-15016008D02*
X2721491Y-15025531D01*
X2721491Y-15025531D02*
X2731015Y-15044579D01*
X2731015Y-15044579D02*
X2740539Y-15082674D01*
X2740539Y-15082674D02*
X2740539Y-15130293D01*
X2740539Y-15130293D02*
X2731015Y-15168388D01*
X2731015Y-15168388D02*
X2721491Y-15187436D01*
X2721491Y-15187436D02*
X2711967Y-15196960D01*
X2711967Y-15196960D02*
X2692920Y-15206484D01*
X2692920Y-15206484D02*
X2673872Y-15206484D01*
X2673872Y-15206484D02*
X2654824Y-15196960D01*
X2654824Y-15196960D02*
X2645301Y-15187436D01*
X2645301Y-15187436D02*
X2635777Y-15168388D01*
X2635777Y-15168388D02*
X2626253Y-15130293D01*
X2626253Y-15130293D02*
X2626253Y-15082674D01*
X2626253Y-15082674D02*
X2635777Y-15044579D01*
X2635777Y-15044579D02*
X2645301Y-15025531D01*
X2645301Y-15025531D02*
X2654824Y-15016008D01*
X2654824Y-15016008D02*
X2673872Y-15006484D01*
X2826253Y-15187436D02*
X2835777Y-15196960D01*
X2835777Y-15196960D02*
X2826253Y-15206484D01*
X2826253Y-15206484D02*
X2816729Y-15196960D01*
X2816729Y-15196960D02*
X2826253Y-15187436D01*
X2826253Y-15187436D02*
X2826253Y-15206484D01*
X3007205Y-15006484D02*
X2969110Y-15006484D01*
X2969110Y-15006484D02*
X2950062Y-15016008D01*
X2950062Y-15016008D02*
X2940539Y-15025531D01*
X2940539Y-15025531D02*
X2921491Y-15054103D01*
X2921491Y-15054103D02*
X2911967Y-15092198D01*
X2911967Y-15092198D02*
X2911967Y-15168388D01*
X2911967Y-15168388D02*
X2921491Y-15187436D01*
X2921491Y-15187436D02*
X2931015Y-15196960D01*
X2931015Y-15196960D02*
X2950062Y-15206484D01*
X2950062Y-15206484D02*
X2988158Y-15206484D01*
X2988158Y-15206484D02*
X3007205Y-15196960D01*
X3007205Y-15196960D02*
X3016729Y-15187436D01*
X3016729Y-15187436D02*
X3026253Y-15168388D01*
X3026253Y-15168388D02*
X3026253Y-15120769D01*
X3026253Y-15120769D02*
X3016729Y-15101722D01*
X3016729Y-15101722D02*
X3007205Y-15092198D01*
X3007205Y-15092198D02*
X2988158Y-15082674D01*
X2988158Y-15082674D02*
X2950062Y-15082674D01*
X2950062Y-15082674D02*
X2931015Y-15092198D01*
X2931015Y-15092198D02*
X2921491Y-15101722D01*
X2921491Y-15101722D02*
X2911967Y-15120769D01*
X3207205Y-15006484D02*
X3111967Y-15006484D01*
X3111967Y-15006484D02*
X3102443Y-15101722D01*
X3102443Y-15101722D02*
X3111967Y-15092198D01*
X3111967Y-15092198D02*
X3131015Y-15082674D01*
X3131015Y-15082674D02*
X3178634Y-15082674D01*
X3178634Y-15082674D02*
X3197682Y-15092198D01*
X3197682Y-15092198D02*
X3207205Y-15101722D01*
X3207205Y-15101722D02*
X3216729Y-15120769D01*
X3216729Y-15120769D02*
X3216729Y-15168388D01*
X3216729Y-15168388D02*
X3207205Y-15187436D01*
X3207205Y-15187436D02*
X3197682Y-15196960D01*
X3197682Y-15196960D02*
X3178634Y-15206484D01*
X3178634Y-15206484D02*
X3131015Y-15206484D01*
X3131015Y-15206484D02*
X3111967Y-15196960D01*
X3111967Y-15196960D02*
X3102443Y-15187436D01*
X3340539Y-15006484D02*
X3359586Y-15006484D01*
X3359586Y-15006484D02*
X3378634Y-15016008D01*
X3378634Y-15016008D02*
X3388158Y-15025531D01*
X3388158Y-15025531D02*
X3397682Y-15044579D01*
X3397682Y-15044579D02*
X3407205Y-15082674D01*
X3407205Y-15082674D02*
X3407205Y-15130293D01*
X3407205Y-15130293D02*
X3397682Y-15168388D01*
X3397682Y-15168388D02*
X3388158Y-15187436D01*
X3388158Y-15187436D02*
X3378634Y-15196960D01*
X3378634Y-15196960D02*
X3359586Y-15206484D01*
X3359586Y-15206484D02*
X3340539Y-15206484D01*
X3340539Y-15206484D02*
X3321491Y-15196960D01*
X3321491Y-15196960D02*
X3311967Y-15187436D01*
X3311967Y-15187436D02*
X3302443Y-15168388D01*
X3302443Y-15168388D02*
X3292920Y-15130293D01*
X3292920Y-15130293D02*
X3292920Y-15082674D01*
X3292920Y-15082674D02*
X3302443Y-15044579D01*
X3302443Y-15044579D02*
X3311967Y-15025531D01*
X3311967Y-15025531D02*
X3321491Y-15016008D01*
X3321491Y-15016008D02*
X3340539Y-15006484D01*
X3492920Y-15206484D02*
X3492920Y-15073150D01*
X3492920Y-15092198D02*
X3502443Y-15082674D01*
X3502443Y-15082674D02*
X3521491Y-15073150D01*
X3521491Y-15073150D02*
X3550063Y-15073150D01*
X3550063Y-15073150D02*
X3569110Y-15082674D01*
X3569110Y-15082674D02*
X3578634Y-15101722D01*
X3578634Y-15101722D02*
X3578634Y-15206484D01*
X3578634Y-15101722D02*
X3588158Y-15082674D01*
X3588158Y-15082674D02*
X3607205Y-15073150D01*
X3607205Y-15073150D02*
X3635777Y-15073150D01*
X3635777Y-15073150D02*
X3654824Y-15082674D01*
X3654824Y-15082674D02*
X3664348Y-15101722D01*
X3664348Y-15101722D02*
X3664348Y-15206484D01*
X3759586Y-15206484D02*
X3759586Y-15073150D01*
X3759586Y-15092198D02*
X3769110Y-15082674D01*
X3769110Y-15082674D02*
X3788158Y-15073150D01*
X3788158Y-15073150D02*
X3816729Y-15073150D01*
X3816729Y-15073150D02*
X3835777Y-15082674D01*
X3835777Y-15082674D02*
X3845301Y-15101722D01*
X3845301Y-15101722D02*
X3845301Y-15206484D01*
X3845301Y-15101722D02*
X3854824Y-15082674D01*
X3854824Y-15082674D02*
X3873872Y-15073150D01*
X3873872Y-15073150D02*
X3902443Y-15073150D01*
X3902443Y-15073150D02*
X3921491Y-15082674D01*
X3921491Y-15082674D02*
X3931015Y-15101722D01*
X3931015Y-15101722D02*
X3931015Y-15206484D01*
X4321491Y-14996960D02*
X4150063Y-15254103D01*
X4578634Y-15006484D02*
X4597682Y-15006484D01*
X4597682Y-15006484D02*
X4616729Y-15016008D01*
X4616729Y-15016008D02*
X4626253Y-15025531D01*
X4626253Y-15025531D02*
X4635777Y-15044579D01*
X4635777Y-15044579D02*
X4645301Y-15082674D01*
X4645301Y-15082674D02*
X4645301Y-15130293D01*
X4645301Y-15130293D02*
X4635777Y-15168388D01*
X4635777Y-15168388D02*
X4626253Y-15187436D01*
X4626253Y-15187436D02*
X4616729Y-15196960D01*
X4616729Y-15196960D02*
X4597682Y-15206484D01*
X4597682Y-15206484D02*
X4578634Y-15206484D01*
X4578634Y-15206484D02*
X4559587Y-15196960D01*
X4559587Y-15196960D02*
X4550063Y-15187436D01*
X4550063Y-15187436D02*
X4540539Y-15168388D01*
X4540539Y-15168388D02*
X4531015Y-15130293D01*
X4531015Y-15130293D02*
X4531015Y-15082674D01*
X4531015Y-15082674D02*
X4540539Y-15044579D01*
X4540539Y-15044579D02*
X4550063Y-15025531D01*
X4550063Y-15025531D02*
X4559587Y-15016008D01*
X4559587Y-15016008D02*
X4578634Y-15006484D01*
X4731015Y-15187436D02*
X4740539Y-15196960D01*
X4740539Y-15196960D02*
X4731015Y-15206484D01*
X4731015Y-15206484D02*
X4721491Y-15196960D01*
X4721491Y-15196960D02*
X4731015Y-15187436D01*
X4731015Y-15187436D02*
X4731015Y-15206484D01*
X4864348Y-15006484D02*
X4883396Y-15006484D01*
X4883396Y-15006484D02*
X4902444Y-15016008D01*
X4902444Y-15016008D02*
X4911968Y-15025531D01*
X4911968Y-15025531D02*
X4921491Y-15044579D01*
X4921491Y-15044579D02*
X4931015Y-15082674D01*
X4931015Y-15082674D02*
X4931015Y-15130293D01*
X4931015Y-15130293D02*
X4921491Y-15168388D01*
X4921491Y-15168388D02*
X4911968Y-15187436D01*
X4911968Y-15187436D02*
X4902444Y-15196960D01*
X4902444Y-15196960D02*
X4883396Y-15206484D01*
X4883396Y-15206484D02*
X4864348Y-15206484D01*
X4864348Y-15206484D02*
X4845301Y-15196960D01*
X4845301Y-15196960D02*
X4835777Y-15187436D01*
X4835777Y-15187436D02*
X4826253Y-15168388D01*
X4826253Y-15168388D02*
X4816729Y-15130293D01*
X4816729Y-15130293D02*
X4816729Y-15082674D01*
X4816729Y-15082674D02*
X4826253Y-15044579D01*
X4826253Y-15044579D02*
X4835777Y-15025531D01*
X4835777Y-15025531D02*
X4845301Y-15016008D01*
X4845301Y-15016008D02*
X4864348Y-15006484D01*
X5007206Y-15025531D02*
X5016729Y-15016008D01*
X5016729Y-15016008D02*
X5035777Y-15006484D01*
X5035777Y-15006484D02*
X5083396Y-15006484D01*
X5083396Y-15006484D02*
X5102444Y-15016008D01*
X5102444Y-15016008D02*
X5111968Y-15025531D01*
X5111968Y-15025531D02*
X5121491Y-15044579D01*
X5121491Y-15044579D02*
X5121491Y-15063627D01*
X5121491Y-15063627D02*
X5111968Y-15092198D01*
X5111968Y-15092198D02*
X4997682Y-15206484D01*
X4997682Y-15206484D02*
X5121491Y-15206484D01*
X5302444Y-15006484D02*
X5207206Y-15006484D01*
X5207206Y-15006484D02*
X5197682Y-15101722D01*
X5197682Y-15101722D02*
X5207206Y-15092198D01*
X5207206Y-15092198D02*
X5226253Y-15082674D01*
X5226253Y-15082674D02*
X5273872Y-15082674D01*
X5273872Y-15082674D02*
X5292920Y-15092198D01*
X5292920Y-15092198D02*
X5302444Y-15101722D01*
X5302444Y-15101722D02*
X5311968Y-15120769D01*
X5311968Y-15120769D02*
X5311968Y-15168388D01*
X5311968Y-15168388D02*
X5302444Y-15187436D01*
X5302444Y-15187436D02*
X5292920Y-15196960D01*
X5292920Y-15196960D02*
X5273872Y-15206484D01*
X5273872Y-15206484D02*
X5226253Y-15206484D01*
X5226253Y-15206484D02*
X5207206Y-15196960D01*
X5207206Y-15196960D02*
X5197682Y-15187436D01*
X5483396Y-15006484D02*
X5445301Y-15006484D01*
X5445301Y-15006484D02*
X5426253Y-15016008D01*
X5426253Y-15016008D02*
X5416729Y-15025531D01*
X5416729Y-15025531D02*
X5397682Y-15054103D01*
X5397682Y-15054103D02*
X5388158Y-15092198D01*
X5388158Y-15092198D02*
X5388158Y-15168388D01*
X5388158Y-15168388D02*
X5397682Y-15187436D01*
X5397682Y-15187436D02*
X5407206Y-15196960D01*
X5407206Y-15196960D02*
X5426253Y-15206484D01*
X5426253Y-15206484D02*
X5464349Y-15206484D01*
X5464349Y-15206484D02*
X5483396Y-15196960D01*
X5483396Y-15196960D02*
X5492920Y-15187436D01*
X5492920Y-15187436D02*
X5502444Y-15168388D01*
X5502444Y-15168388D02*
X5502444Y-15120769D01*
X5502444Y-15120769D02*
X5492920Y-15101722D01*
X5492920Y-15101722D02*
X5483396Y-15092198D01*
X5483396Y-15092198D02*
X5464349Y-15082674D01*
X5464349Y-15082674D02*
X5426253Y-15082674D01*
X5426253Y-15082674D02*
X5407206Y-15092198D01*
X5407206Y-15092198D02*
X5397682Y-15101722D01*
X5397682Y-15101722D02*
X5388158Y-15120769D01*
X5578634Y-15006484D02*
X5578634Y-15044579D01*
X5654825Y-15006484D02*
X5654825Y-15044579D01*
X5950063Y-15282674D02*
X5940539Y-15273150D01*
X5940539Y-15273150D02*
X5921491Y-15244579D01*
X5921491Y-15244579D02*
X5911968Y-15225531D01*
X5911968Y-15225531D02*
X5902444Y-15196960D01*
X5902444Y-15196960D02*
X5892920Y-15149341D01*
X5892920Y-15149341D02*
X5892920Y-15111246D01*
X5892920Y-15111246D02*
X5902444Y-15063627D01*
X5902444Y-15063627D02*
X5911968Y-15035055D01*
X5911968Y-15035055D02*
X5921491Y-15016008D01*
X5921491Y-15016008D02*
X5940539Y-14987436D01*
X5940539Y-14987436D02*
X5950063Y-14977912D01*
X6016729Y-15025531D02*
X6026253Y-15016008D01*
X6026253Y-15016008D02*
X6045301Y-15006484D01*
X6045301Y-15006484D02*
X6092920Y-15006484D01*
X6092920Y-15006484D02*
X6111968Y-15016008D01*
X6111968Y-15016008D02*
X6121491Y-15025531D01*
X6121491Y-15025531D02*
X6131015Y-15044579D01*
X6131015Y-15044579D02*
X6131015Y-15063627D01*
X6131015Y-15063627D02*
X6121491Y-15092198D01*
X6121491Y-15092198D02*
X6007206Y-15206484D01*
X6007206Y-15206484D02*
X6131015Y-15206484D01*
X6369110Y-15206484D02*
X6369110Y-15006484D01*
X6454825Y-15206484D02*
X6454825Y-15101722D01*
X6454825Y-15101722D02*
X6445301Y-15082674D01*
X6445301Y-15082674D02*
X6426253Y-15073150D01*
X6426253Y-15073150D02*
X6397682Y-15073150D01*
X6397682Y-15073150D02*
X6378634Y-15082674D01*
X6378634Y-15082674D02*
X6369110Y-15092198D01*
X6578634Y-15206484D02*
X6559587Y-15196960D01*
X6559587Y-15196960D02*
X6550063Y-15187436D01*
X6550063Y-15187436D02*
X6540539Y-15168388D01*
X6540539Y-15168388D02*
X6540539Y-15111246D01*
X6540539Y-15111246D02*
X6550063Y-15092198D01*
X6550063Y-15092198D02*
X6559587Y-15082674D01*
X6559587Y-15082674D02*
X6578634Y-15073150D01*
X6578634Y-15073150D02*
X6607206Y-15073150D01*
X6607206Y-15073150D02*
X6626253Y-15082674D01*
X6626253Y-15082674D02*
X6635777Y-15092198D01*
X6635777Y-15092198D02*
X6645301Y-15111246D01*
X6645301Y-15111246D02*
X6645301Y-15168388D01*
X6645301Y-15168388D02*
X6635777Y-15187436D01*
X6635777Y-15187436D02*
X6626253Y-15196960D01*
X6626253Y-15196960D02*
X6607206Y-15206484D01*
X6607206Y-15206484D02*
X6578634Y-15206484D01*
X6759587Y-15206484D02*
X6740539Y-15196960D01*
X6740539Y-15196960D02*
X6731015Y-15177912D01*
X6731015Y-15177912D02*
X6731015Y-15006484D01*
X6911968Y-15196960D02*
X6892920Y-15206484D01*
X6892920Y-15206484D02*
X6854825Y-15206484D01*
X6854825Y-15206484D02*
X6835777Y-15196960D01*
X6835777Y-15196960D02*
X6826253Y-15177912D01*
X6826253Y-15177912D02*
X6826253Y-15101722D01*
X6826253Y-15101722D02*
X6835777Y-15082674D01*
X6835777Y-15082674D02*
X6854825Y-15073150D01*
X6854825Y-15073150D02*
X6892920Y-15073150D01*
X6892920Y-15073150D02*
X6911968Y-15082674D01*
X6911968Y-15082674D02*
X6921491Y-15101722D01*
X6921491Y-15101722D02*
X6921491Y-15120769D01*
X6921491Y-15120769D02*
X6826253Y-15139817D01*
X6997682Y-15196960D02*
X7016730Y-15206484D01*
X7016730Y-15206484D02*
X7054825Y-15206484D01*
X7054825Y-15206484D02*
X7073872Y-15196960D01*
X7073872Y-15196960D02*
X7083396Y-15177912D01*
X7083396Y-15177912D02*
X7083396Y-15168388D01*
X7083396Y-15168388D02*
X7073872Y-15149341D01*
X7073872Y-15149341D02*
X7054825Y-15139817D01*
X7054825Y-15139817D02*
X7026253Y-15139817D01*
X7026253Y-15139817D02*
X7007206Y-15130293D01*
X7007206Y-15130293D02*
X6997682Y-15111246D01*
X6997682Y-15111246D02*
X6997682Y-15101722D01*
X6997682Y-15101722D02*
X7007206Y-15082674D01*
X7007206Y-15082674D02*
X7026253Y-15073150D01*
X7026253Y-15073150D02*
X7054825Y-15073150D01*
X7054825Y-15073150D02*
X7073872Y-15082674D01*
X7150063Y-15282674D02*
X7159587Y-15273150D01*
X7159587Y-15273150D02*
X7178634Y-15244579D01*
X7178634Y-15244579D02*
X7188158Y-15225531D01*
X7188158Y-15225531D02*
X7197682Y-15196960D01*
X7197682Y-15196960D02*
X7207206Y-15149341D01*
X7207206Y-15149341D02*
X7207206Y-15111246D01*
X7207206Y-15111246D02*
X7197682Y-15063627D01*
X7197682Y-15063627D02*
X7188158Y-15035055D01*
X7188158Y-15035055D02*
X7178634Y-15016008D01*
X7178634Y-15016008D02*
X7159587Y-14987436D01*
X7159587Y-14987436D02*
X7150063Y-14977912D01*
X7511968Y-15282674D02*
X7502444Y-15273150D01*
X7502444Y-15273150D02*
X7483396Y-15244579D01*
X7483396Y-15244579D02*
X7473872Y-15225531D01*
X7473872Y-15225531D02*
X7464349Y-15196960D01*
X7464349Y-15196960D02*
X7454825Y-15149341D01*
X7454825Y-15149341D02*
X7454825Y-15111246D01*
X7454825Y-15111246D02*
X7464349Y-15063627D01*
X7464349Y-15063627D02*
X7473872Y-15035055D01*
X7473872Y-15035055D02*
X7483396Y-15016008D01*
X7483396Y-15016008D02*
X7502444Y-14987436D01*
X7502444Y-14987436D02*
X7511968Y-14977912D01*
X7588158Y-15073150D02*
X7588158Y-15206484D01*
X7588158Y-15092198D02*
X7597682Y-15082674D01*
X7597682Y-15082674D02*
X7616730Y-15073150D01*
X7616730Y-15073150D02*
X7645301Y-15073150D01*
X7645301Y-15073150D02*
X7664349Y-15082674D01*
X7664349Y-15082674D02*
X7673872Y-15101722D01*
X7673872Y-15101722D02*
X7673872Y-15206484D01*
X7797682Y-15206484D02*
X7778634Y-15196960D01*
X7778634Y-15196960D02*
X7769111Y-15187436D01*
X7769111Y-15187436D02*
X7759587Y-15168388D01*
X7759587Y-15168388D02*
X7759587Y-15111246D01*
X7759587Y-15111246D02*
X7769111Y-15092198D01*
X7769111Y-15092198D02*
X7778634Y-15082674D01*
X7778634Y-15082674D02*
X7797682Y-15073150D01*
X7797682Y-15073150D02*
X7826253Y-15073150D01*
X7826253Y-15073150D02*
X7845301Y-15082674D01*
X7845301Y-15082674D02*
X7854825Y-15092198D01*
X7854825Y-15092198D02*
X7864349Y-15111246D01*
X7864349Y-15111246D02*
X7864349Y-15168388D01*
X7864349Y-15168388D02*
X7854825Y-15187436D01*
X7854825Y-15187436D02*
X7845301Y-15196960D01*
X7845301Y-15196960D02*
X7826253Y-15206484D01*
X7826253Y-15206484D02*
X7797682Y-15206484D01*
X7921492Y-15073150D02*
X7997682Y-15073150D01*
X7950063Y-15006484D02*
X7950063Y-15177912D01*
X7950063Y-15177912D02*
X7959587Y-15196960D01*
X7959587Y-15196960D02*
X7978634Y-15206484D01*
X7978634Y-15206484D02*
X7997682Y-15206484D01*
X8216730Y-15073150D02*
X8216730Y-15273150D01*
X8216730Y-15082674D02*
X8235777Y-15073150D01*
X8235777Y-15073150D02*
X8273873Y-15073150D01*
X8273873Y-15073150D02*
X8292920Y-15082674D01*
X8292920Y-15082674D02*
X8302444Y-15092198D01*
X8302444Y-15092198D02*
X8311968Y-15111246D01*
X8311968Y-15111246D02*
X8311968Y-15168388D01*
X8311968Y-15168388D02*
X8302444Y-15187436D01*
X8302444Y-15187436D02*
X8292920Y-15196960D01*
X8292920Y-15196960D02*
X8273873Y-15206484D01*
X8273873Y-15206484D02*
X8235777Y-15206484D01*
X8235777Y-15206484D02*
X8216730Y-15196960D01*
X8426254Y-15206484D02*
X8407206Y-15196960D01*
X8407206Y-15196960D02*
X8397682Y-15177912D01*
X8397682Y-15177912D02*
X8397682Y-15006484D01*
X8588158Y-15206484D02*
X8588158Y-15101722D01*
X8588158Y-15101722D02*
X8578635Y-15082674D01*
X8578635Y-15082674D02*
X8559587Y-15073150D01*
X8559587Y-15073150D02*
X8521492Y-15073150D01*
X8521492Y-15073150D02*
X8502444Y-15082674D01*
X8588158Y-15196960D02*
X8569111Y-15206484D01*
X8569111Y-15206484D02*
X8521492Y-15206484D01*
X8521492Y-15206484D02*
X8502444Y-15196960D01*
X8502444Y-15196960D02*
X8492920Y-15177912D01*
X8492920Y-15177912D02*
X8492920Y-15158865D01*
X8492920Y-15158865D02*
X8502444Y-15139817D01*
X8502444Y-15139817D02*
X8521492Y-15130293D01*
X8521492Y-15130293D02*
X8569111Y-15130293D01*
X8569111Y-15130293D02*
X8588158Y-15120769D01*
X8654825Y-15073150D02*
X8731015Y-15073150D01*
X8683396Y-15006484D02*
X8683396Y-15177912D01*
X8683396Y-15177912D02*
X8692920Y-15196960D01*
X8692920Y-15196960D02*
X8711968Y-15206484D01*
X8711968Y-15206484D02*
X8731015Y-15206484D01*
X8873873Y-15196960D02*
X8854825Y-15206484D01*
X8854825Y-15206484D02*
X8816730Y-15206484D01*
X8816730Y-15206484D02*
X8797682Y-15196960D01*
X8797682Y-15196960D02*
X8788158Y-15177912D01*
X8788158Y-15177912D02*
X8788158Y-15101722D01*
X8788158Y-15101722D02*
X8797682Y-15082674D01*
X8797682Y-15082674D02*
X8816730Y-15073150D01*
X8816730Y-15073150D02*
X8854825Y-15073150D01*
X8854825Y-15073150D02*
X8873873Y-15082674D01*
X8873873Y-15082674D02*
X8883396Y-15101722D01*
X8883396Y-15101722D02*
X8883396Y-15120769D01*
X8883396Y-15120769D02*
X8788158Y-15139817D01*
X9054825Y-15206484D02*
X9054825Y-15006484D01*
X9054825Y-15196960D02*
X9035777Y-15206484D01*
X9035777Y-15206484D02*
X8997682Y-15206484D01*
X8997682Y-15206484D02*
X8978635Y-15196960D01*
X8978635Y-15196960D02*
X8969111Y-15187436D01*
X8969111Y-15187436D02*
X8959587Y-15168388D01*
X8959587Y-15168388D02*
X8959587Y-15111246D01*
X8959587Y-15111246D02*
X8969111Y-15092198D01*
X8969111Y-15092198D02*
X8978635Y-15082674D01*
X8978635Y-15082674D02*
X8997682Y-15073150D01*
X8997682Y-15073150D02*
X9035777Y-15073150D01*
X9035777Y-15073150D02*
X9054825Y-15082674D01*
X9131016Y-15282674D02*
X9140539Y-15273150D01*
X9140539Y-15273150D02*
X9159587Y-15244579D01*
X9159587Y-15244579D02*
X9169111Y-15225531D01*
X9169111Y-15225531D02*
X9178635Y-15196960D01*
X9178635Y-15196960D02*
X9188158Y-15149341D01*
X9188158Y-15149341D02*
X9188158Y-15111246D01*
X9188158Y-15111246D02*
X9178635Y-15063627D01*
X9178635Y-15063627D02*
X9169111Y-15035055D01*
X9169111Y-15035055D02*
X9159587Y-15016008D01*
X9159587Y-15016008D02*
X9140539Y-14987436D01*
X9140539Y-14987436D02*
X9131016Y-14977912D01*
M02*
