M48
METRIC,TZ
T1C0.400
T2C0.500
T3C0.650
T4C0.700
%
G90
G05
T1
X32314Y-109137
X33690Y-84800
X33690Y-108600
X33800Y-109800
X34400Y-89400
X34600Y-84200
X34800Y-90800
X36800Y-90800
X38000Y-98400
X38800Y-79400
X39800Y-83800
X41400Y-89400
X43600Y-87200
X45000Y-73400
X46600Y-88600
X47800Y-82400
X47800Y-83400
X48400Y-94600
X51843Y-76893
X51895Y-75905
X53000Y-76000
X53400Y-82400
X54000Y-84000
X59600Y-92400
X60000Y-82200
X60400Y-86000
X60400Y-87200
X60400Y-90000
X62600Y-86400
X62600Y-89600
X64400Y-90000
X64400Y-91400
X64800Y-81440
X65600Y-96600
X65995Y-98005
X66400Y-80200
X66600Y-92800
T2
X44400Y-79800
T3
X70800Y-83860
X70800Y-85130
X70800Y-86400
X70800Y-87670
X70800Y-88940
T4
G00X25205Y-80630
M15
G01X24605Y-80630
M16
G05
G00X25205Y-89270
M15
G01X24605Y-89270
M16
G05
G00X29585Y-80630
M15
G01X28585Y-80630
M16
G05
G00X29585Y-89270
M15
G01X28585Y-89270
M16
G05
T0
M30
